<svg xmlns="http://www.w3.org/2000/svg" viewBox="0 0 500 500"><g id="freepik--Floor--inject-742"><g id="freepik--Beach--inject-742"><ellipse id="freepik--Sand--inject-742" cx="250" cy="351.18" rx="231.54" ry="133.68" style="fill:#f0f0f0"></ellipse><g id="freepik--Sea--inject-742"><path d="M413.73,445.71c65.46-37.8,83.51-92.59,54.19-139.77-23,13.59-59,17.71-80.65,30.16-22.06,12.72-9.88,21.27-19.94,34.7s-64.77,18.94-96.22,38.55c-28.1,17.53-16.05,29.87-39,43.55-19.47,11.59-52.53,14.26-73.26,21.19C243.26,495,344.81,485.5,413.73,445.71Z" style="fill:#2C9456;opacity:0.30000000000000004"></path><path d="M413.73,445.71c59.32-34.25,79.72-82.46,61.21-126.31-13.65,5.11-29.89,9-50.09,16.5-30.78,11.45-26.66,20.39-28,31-1.58,12.93-14.82,22.5-49.27,31.25-31.4,8-51.88,13.44-65.69,27-11,10.78-7.87,21.35-31,36.55-16.6,10.91-37.83,13.65-57.47,19.16C269.81,491.88,354,480.18,413.73,445.71Z" style="fill:#2C9456;opacity:0.5"></path><path d="M480.15,336.6c-21.08,6.6-41.29,11.35-49.33,19-16,15.26,7.06,26.88-27.67,43.33-38.27,18.13-82.76,19.7-96,36.86-16.51,21.33-13.2,35.39-54.08,49,58.25-.43,116.26-13.47,160.71-39.13C465.37,415.89,487.5,375.49,480.15,336.6Z" style="fill:#2C9456"></path><path d="M217,459.57a126.39,126.39,0,0,1-16.89,5.34c-5.72,1.48-11.48,2.73-17.23,4s-11.5,2.54-17.19,4l-2.14.54-2.12.6-1.37.37-1.71-.42c2.3-.86,4.64-1.62,7-2.32,5.67-1.7,11.43-3.05,17.18-4.35s11.54-2.45,17.3-3.66S211.33,461.2,217,459.57Z" style="fill:#fff"></path><path d="M262.41,415.61a91.9,91.9,0,0,1,12.36-8.79A124.92,124.92,0,0,1,288.33,400a249.46,249.46,0,0,1,28.66-10c9.7-2.83,19.45-5.44,29-8.62a97.71,97.71,0,0,0,13.94-5.69,33.79,33.79,0,0,0,6.29-4.06,12.17,12.17,0,0,0,4.17-6.1A10,10,0,0,1,369,369a16,16,0,0,1-2.48,2.91,33.86,33.86,0,0,1-6.2,4.44,97.42,97.42,0,0,1-13.9,6.18c-9.52,3.49-19.29,6.14-29,9s-19.29,5.86-28.63,9.61a125.67,125.67,0,0,0-13.66,6.4A104.22,104.22,0,0,0,262.41,415.61Z" style="fill:#fff"></path><path d="M468.31,306.55a85.71,85.71,0,0,1-8.87,4.61c-3.72,1.69-7.51,3.2-11.35,4.58-7.69,2.71-15.53,4.91-23.37,7-3.92,1.06-7.83,2.13-11.72,3.27s-7.77,2.31-11.63,3.59c3.72-1.63,7.55-3,11.39-4.36s7.73-2.51,11.61-3.71c7.76-2.41,15.56-4.65,23.17-7.37q5.71-2,11.26-4.46a90.75,90.75,0,0,0,8.79-4.34C467.84,305.78,468.08,306.16,468.31,306.55Z" style="fill:#fff"></path><path d="M291.12,417.83a73.52,73.52,0,0,0-6.72,5.54,35.41,35.41,0,0,0-5.48,6.62c-1.54,2.42-3,5-4.44,7.48s-3,5-4.7,7.43a64.2,64.2,0,0,1-5.56,6.87,55.67,55.67,0,0,1-6.56,5.92,72.79,72.79,0,0,1-15.21,8.72,102.38,102.38,0,0,0,14.4-9.73A64,64,0,0,0,268.43,444c3.36-4.69,6.07-9.84,9.43-14.69a33.31,33.31,0,0,1,6-6.49A58,58,0,0,1,291.12,417.83Z" style="fill:#fff"></path><path d="M427.52,334.92c-2.95,1.29-5.95,2.49-8.87,3.86s-5.84,2.68-8.62,4.27a32.77,32.77,0,0,0-7.55,5.62,12.5,12.5,0,0,0-3.69,8.13c-.28,3.14-.2,6.43-.75,9.7a21.9,21.9,0,0,1-3.59,9.22,27.85,27.85,0,0,1-7,6.88,49.75,49.75,0,0,1-8.5,4.71l2.07-1.25c.69-.43,1.41-.78,2.06-1.26A45.4,45.4,0,0,0,387,382a26.93,26.93,0,0,0,6.41-6.94c.42-.66.75-1.37,1.13-2s.61-1.44.91-2.16.48-1.48.65-2.24.35-1.53.43-2.31c.47-3.11.39-6.31.64-9.6a14.08,14.08,0,0,1,4.21-9.07,31.31,31.31,0,0,1,8.08-5.65c2.91-1.48,5.9-2.74,8.91-3.91S424.44,335.87,427.52,334.92Z" style="fill:#fff"></path><path d="M289.45,462.89a56.11,56.11,0,0,1-8.36,8.66,64.78,64.78,0,0,1-10.07,6.7,100.46,100.46,0,0,1-15.72,6.58c-1.77,0-3.54,0-5.31,0a146.5,146.5,0,0,0,20.44-7.75A63.93,63.93,0,0,0,289.45,462.89Z" style="fill:#fff"></path><path d="M319.08,426.84a62.09,62.09,0,0,1,11.65-5.44c4-1.47,8.13-2.7,12.25-3.85s8.28-2.15,12.44-3.1,8.33-1.84,12.51-2.77c-4,1.54-8.08,2.83-12.19,4s-8.22,2.31-12.32,3.45-8.21,2.27-12.29,3.48A116.27,116.27,0,0,0,319.08,426.84Z" style="fill:#fff"></path><path d="M389.54,404.66c4.75-2.17,9.58-4.15,14.2-6.49a75,75,0,0,0,6.73-3.79c1.1-.68,2.14-1.43,3.18-2.16s2-1.58,2.92-2.47a20.08,20.08,0,0,0,6.84-13c.27-2.52.09-5.13.26-7.77a13.47,13.47,0,0,1,2.59-7.38,13.91,13.91,0,0,0-1.78,7.41c0,2.56.39,5.16.22,7.85a18.79,18.79,0,0,1-2.08,7.77,23.72,23.72,0,0,1-4.93,6.36,37.64,37.64,0,0,1-6.39,4.74,62.06,62.06,0,0,1-7,3.63A129.26,129.26,0,0,1,389.54,404.66Z" style="fill:#fff"></path><path d="M480.29,337.21l-.64.17-11,2.71c3.56-1.27,7.18-2.32,10.77-3.48l.7-.22C480.19,336.66,480.24,336.94,480.29,337.21Z" style="fill:#fff"></path></g></g></g><g id="freepik--Shadow--inject-742"><path d="M292.36,375.51l-11.75-6.78c17.84-25.52,8.84-55.83-27-76.52-47.85-27.62-125.41-27.62-173.25,0s-47.85,72.4,0,100c24.78,14.3,57.53,21.18,90,20.67l28.53,16.47c4.78,2.76,12.54,2.76,17.32,0l76.13-43.87C297.14,382.75,297.14,378.27,292.36,375.51Z" style="fill:#e0e0e0"></path></g><g id="freepik--Plant--inject-742"><g id="freepik--Plants--inject-742"><path d="M358.31,259.1,343,266.43l13.87-2.93a24.23,24.23,0,0,1-4.15,9.66s-9.3,2.86-14.68,6.56l12.08-1.84a13,13,0,0,1-1.29,6c-.12.26-.24.52-.37.78-.9,1.74-2.31,5.09-4.42,9h0a61,61,0,0,1-6.37,9.67,41.27,41.27,0,0,1-3.89,4.19c-.08.09-.17.16-.26.25-1.91-1.76-5,.85-7.09-.87-.8-3.6-.81-15.41,0-22.15,3-25.81,26.17-36.92,42.58-38.27A46.68,46.68,0,0,0,358.31,259.1Z" style="fill:#2C9456"></path><path d="M358.31,259.1,343,266.43l13.87-2.93a24.23,24.23,0,0,1-4.15,9.66s-9.3,2.86-14.68,6.56l12.08-1.84a13,13,0,0,1-1.29,6c-.12.26-.24.52-.37.78-.9,1.74-2.31,5.09-4.42,9h0a61,61,0,0,1-6.37,9.67,41.27,41.27,0,0,1-3.89,4.19c-.08.09-.17.16-.26.25-1.91-1.76-5,.85-7.09-.87-.8-3.6-.81-15.41,0-22.15,3-25.81,26.17-36.92,42.58-38.27A46.68,46.68,0,0,0,358.31,259.1Z" style="opacity:0.30000000000000004"></path><path d="M347.22,257.68a19.47,19.47,0,0,0-4.27,3.78,39.11,39.11,0,0,0-3.32,4.67,52.58,52.58,0,0,0-4.78,10.36A48.43,48.43,0,0,0,332.62,299h0a.37.37,0,1,1-.74.11h0a48.84,48.84,0,0,1,2.62-22.71,52.1,52.1,0,0,1,5-10.34,39.32,39.32,0,0,1,3.4-4.63A19.79,19.79,0,0,1,347.22,257.68Z" style="fill:#fafafa"></path><path d="M391.05,286.24h0c-.5.16-7,.89-20.66,7.21l-13.56-2,8.35,4.45-10.49,5L342,296.13l7.85,7s-7.87,7-16.4,6.57c-4.7-.23-6.59-1-7-2.65-.28-1.15,2.15-5.36,3.87-9.4s5.45-10,13.47-15a26.82,26.82,0,0,1,6.94-3C364.88,275.69,383.38,281.2,391.05,286.24Z" style="fill:#2C9456"></path><path d="M391.05,286.24h0c-.5.16-7,.89-20.66,7.21l-13.56-2,8.35,4.45-10.49,5L342,296.13l7.85,7s-7.87,7-16.4,6.57c-4.7-.23-6.59-1-7-2.65-.28-1.15,2.15-5.36,3.87-9.4s5.45-10,13.47-15a26.82,26.82,0,0,1,6.94-3C364.88,275.69,383.38,281.2,391.05,286.24Z" style="opacity:0.15"></path><path d="M343.64,287.89h0a40.31,40.31,0,0,0-8.6,7.76h0a122.32,122.32,0,0,0-8.17,12.14,2.38,2.38,0,0,1-.39-.78c-.28-1.15,2.15-5.36,3.87-9.4s5.45-10,13.47-15a26.82,26.82,0,0,1,6.94-3c14.16-4,32.66,1.55,40.33,6.59-13.13-5.62-30.94-5.84-43.11-.65A27.66,27.66,0,0,0,343.64,287.89Z" style="opacity:0.1"></path><path d="M376.77,282.39a55,55,0,0,0-22.81.86,36.71,36.71,0,0,0-10.54,4.61,34.9,34.9,0,0,0-8.43,7.78,0,0,0,0,0,0,.05s0,0,.06,0a44.74,44.74,0,0,1,8.77-7.2,42.21,42.21,0,0,1,10.31-4.66A48.35,48.35,0,0,1,365.35,282a64.07,64.07,0,0,1,11.41.47s0,0,0,0S376.79,282.39,376.77,282.39Z" style="fill:#fafafa"></path></g></g><g id="freepik--Flag--inject-742"><g id="freepik--Flags--inject-742"><polygon points="325.44 85.05 364.39 62.56 356.26 81.32 364.39 86.01 325.44 108.5 325.44 85.05" style="fill:#2C9456"></polygon><polygon points="325.44 85.05 364.39 62.56 356.26 81.32 364.39 86.01 325.44 108.5 325.44 85.05" style="fill:#fff;opacity:0.6000000000000001"></polygon><polygon points="325.44 117.89 357.94 99.12 349.81 117.88 357.94 122.57 325.44 141.34 325.44 117.89" style="fill:#2C9456"></polygon><path d="M323.05,61.6V308.39a1.13,1.13,0,0,0,.68.93,3.58,3.58,0,0,0,3.25,0,1.13,1.13,0,0,0,.67-.93V61.6Z" style="fill:#37474f"></path><path d="M323.73,62.53a3.58,3.58,0,0,0,3.25,0,1,1,0,0,0,0-1.87,3.58,3.58,0,0,0-3.25,0A1,1,0,0,0,323.73,62.53Z" style="fill:#455a64"></path></g></g><g id="freepik--Character--inject-742"><g id="freepik--Umbrella--inject-742"><path d="M262.74,48.72c-11.65,4.78-32.43,24.07-44.05,38.71-19.79,8.42-52.9,24.49-72.14,37.71L131.88,95.07,110.19,50.62C161.87,36.73,204.09,30.34,262.74,48.72Z" style="fill:#2C9456"></path><path d="M262.74,48.72c-11.65,4.78-32.43,24.07-44.05,38.71-19.79,8.42-52.9,24.49-72.14,37.71L131.88,95.07,110.19,50.62C161.87,36.73,204.09,30.34,262.74,48.72Z" style="opacity:0.15"></path><path d="M262.74,48.72c-11.65,4.78-32.43,24.07-44.05,38.71-34.53-33.8-73-44.22-104.57-37.69A344.3,344.3,0,0,1,262.74,48.72Z" style="fill:#ebebeb"></path><path d="M131.88,95.08l4.47,9.16c17.33-11.45,42.51-23.74,70.59-27.31,14.88-13.63,46.87-26.56,55.8-28.21C262.74,48.72,203.4,45.2,131.88,95.08Z" style="opacity:0.15"></path><path d="M14.7,169.74c10.94-6.25,38.93-10.75,57.63-10.9,18.81-10.42,52-26.67,74.22-33.7L131.88,95.07,110.19,50.62C67.44,82.81,36.31,112.2,14.7,169.74Z" style="fill:#2C9456"></path><path d="M14.7,169.74c10.94-6.25,38.93-10.75,57.63-10.9,18.81-10.42,52-26.67,74.22-33.7L131.88,95.07,110.19,50.62C67.44,82.81,36.31,112.2,14.7,169.74Z" style="fill:#ebebeb"></path><path d="M14.7,169.74c10.94-6.25,38.93-10.75,57.63-10.9-5.4-48,10-84.72,34.64-105.62A344.4,344.4,0,0,0,14.7,169.74Z" style="fill:#2C9456"></path><path d="M14.7,169.74c10.94-6.25,38.93-10.75,57.63-10.9-5.4-48,10-84.72,34.64-105.62A344.4,344.4,0,0,0,14.7,169.74Z" style="opacity:0.15"></path><path d="M131.88,95.08l4.47,9.16c-19.69,6.61-45,19-65.07,38.87-19.9,3.35-49.78,20.6-56.58,26.63C14.7,169.74,48.55,120.75,131.88,95.08Z" style="opacity:0.15"></path><path d="M117,57.44,218.15,267.05a1.5,1.5,0,0,1-.26,1.46,4.64,4.64,0,0,1-3.75,1.82,1.48,1.48,0,0,1-1.31-.71L111.72,60Z" style="fill:#455a64"></path><path d="M114.5,59.44l-.52.15-.6.17c-.17,0-.39.08-.54.09-.8.13-.66-.31-.91-.67-.36-.78-.89-1.88-1.51-3.21-1.24-2.67-2.83-6.26-4.32-9.89-.74-1.82-1.45-3.65-2.09-5.39-.32-.86-.65-1.69-.92-2.5s-.54-1.56-.78-2.26-.43-1.35-.62-1.92-.34-1.08-.46-1.5c-.25-.83-.37-1.32-.37-1.32s.3.4.8,1.11c.25.36.55.79.88,1.29s.73,1.07,1.12,1.69l1.29,2c.46.71.9,1.48,1.39,2.27,1,1.58,2,3.27,2.91,5,1.93,3.42,3.74,6.9,5.06,9.53l1.58,3.18c.13.42.56.58,0,1.13a5,5,0,0,1-.41.36l-.51.37Z" style="fill:#455a64"></path><path d="M262.74,48.72a165.19,165.19,0,0,0-58,21C178.09,73,147.64,91,135,101.41L110.19,50.62C148.78,36.06,204.09,30.34,262.74,48.72Z" style="fill:#2C9456"></path><path d="M204.74,69.74C178.09,73,147.64,91,135,101.41L110.19,50.62c18.69-4.69,42.42.33,61.33,6.19A250.3,250.3,0,0,1,204.74,69.74Z" style="fill:#f0f0f0"></path><path d="M14.8,169.69A165.33,165.33,0,0,1,67.07,136.9c19-19,51.89-31.91,67.9-35.49L110.19,50.62C75,72.07,36.42,112.15,14.8,169.69Z" style="fill:#f0f0f0"></path><path d="M67.07,136.9c19-19,51.89-31.91,67.9-35.49L110.19,50.62C95,62.46,84.34,84.26,77.32,102.76A249.93,249.93,0,0,0,67.07,136.9Z" style="fill:#2C9456"></path></g><g id="freepik--character--inject-742"><g id="freepik--Bench--inject-742"><polygon points="237.87 251.61 266.3 375.9 274.43 380.6 245.99 256.3 237.87 251.61" style="fill:#2C9456"></polygon><polygon points="237.87 251.61 266.3 375.9 274.43 380.6 245.99 256.3 237.87 251.61" style="opacity:0.15"></polygon><polygon points="274.43 380.6 278.49 378.25 250.05 253.95 245.99 256.3 274.43 380.6" style="fill:#2C9456"></polygon><polygon points="274.43 380.6 278.49 378.25 250.05 253.95 245.99 256.3 274.43 380.6" style="opacity:0.07"></polygon><polygon points="209.43 235.19 201.31 333.69 209.43 338.38 217.56 239.88 209.43 235.19" style="fill:#2C9456"></polygon><polygon points="209.43 235.19 201.31 333.69 209.43 338.38 217.56 239.88 209.43 235.19" style="opacity:0.15"></polygon><polygon points="213.5 336.04 209.43 338.38 217.56 239.88 221.62 237.54 213.5 336.04" style="fill:#2C9456"></polygon><polygon points="213.5 336.04 209.43 338.38 217.56 239.88 221.62 237.54 213.5 336.04" style="opacity:0.07"></polygon><polygon points="219.99 257.24 247.25 292.65 249.72 303.45 215.93 259.58 219.99 257.24" style="fill:#2C9456"></polygon><polygon points="219.99 257.24 247.25 292.65 249.72 303.45 215.93 259.58 219.99 257.24" style="opacity:0.07"></polygon><polygon points="215.93 259.58 249.72 303.45 252.56 315.85 214.19 267.31 215.93 259.58" style="fill:#2C9456"></polygon><polygon points="215.93 259.58 249.72 303.45 252.56 315.85 214.19 267.31 215.93 259.58" style="opacity:0.15"></polygon><polygon points="243.47 276.12 214.22 280.35 213.48 289.33 245.69 285.79 243.47 276.12" style="fill:#2C9456"></polygon><polygon points="243.47 276.12 214.22 280.35 213.48 289.33 245.69 285.79 243.47 276.12" style="opacity:0.07"></polygon><polygon points="243.08 274.42 243.47 276.12 230.16 278.05 234.21 275.7 243.08 274.42" style="fill:#2C9456"></polygon><polygon points="222.19 277.44 223.44 279.02 214.22 280.35 218.28 278 222.19 277.44" style="fill:#2C9456"></polygon><polygon points="222.19 277.44 223.44 279.02 214.22 280.35 218.28 278 222.19 277.44" style="opacity:0.2"></polygon><path d="M229.08,281.35a2.87,2.87,0,0,1,1.3,2.24c0,.83-.58,1.17-1.3.75a2.85,2.85,0,0,1-1.29-2.24C227.79,281.27,228.37,280.94,229.08,281.35Z" style="fill:#455a64"></path><path d="M276.55,357.37a1.52,1.52,0,0,0-.89-1.25l-16-9.22a4.79,4.79,0,0,0-4.33,0l-60.66,35a1.53,1.53,0,0,0-.9,1.25v4.69a1.52,1.52,0,0,0,.9,1.25l16,9.23a4.79,4.79,0,0,0,4.33,0l60.66-35a1.49,1.49,0,0,0,.89-1.25Z" style="fill:#2C9456"></path><path d="M276.55,357.37a1.52,1.52,0,0,0-.89-1.25l-16-9.22a4.79,4.79,0,0,0-4.33,0l-60.66,35a1.53,1.53,0,0,0-.9,1.25v4.69a1.52,1.52,0,0,0,.9,1.25l16,9.23a4.79,4.79,0,0,0,4.33,0l60.66-35a1.49,1.49,0,0,0,.89-1.25Z" style="opacity:0.15"></path><path d="M194.69,384.42l16,9.23a4.79,4.79,0,0,0,4.33,0l60.66-35a1.32,1.32,0,0,0,0-2.5l-16-9.22a4.79,4.79,0,0,0-4.33,0l-60.66,35A1.32,1.32,0,0,0,194.69,384.42Z" style="fill:#2C9456"></path><path d="M276.56,357.37v4.69a1.51,1.51,0,0,1-.9,1.25l-60.66,35a4.49,4.49,0,0,1-2.17.51v-4.68a4.38,4.38,0,0,0,2.17-.52l60.66-35A1.52,1.52,0,0,0,276.56,357.37Z" style="fill:#2C9456"></path><path d="M276.56,357.37v4.69a1.51,1.51,0,0,1-.9,1.25l-60.66,35a4.49,4.49,0,0,1-2.17.51v-4.68a4.38,4.38,0,0,0,2.17-.52l60.66-35A1.52,1.52,0,0,0,276.56,357.37Z" style="opacity:0.07"></path><path d="M267.39,317.43a1.52,1.52,0,0,0-.89-1.25l-16-9.23a4.79,4.79,0,0,0-4.33,0l-55.62,32.1a1.52,1.52,0,0,0-.9,1.25V345a1.53,1.53,0,0,0,.9,1.25l16,9.23a4.79,4.79,0,0,0,4.33,0l55.62-32.1a1.54,1.54,0,0,0,.89-1.25Z" style="fill:#2C9456"></path><path d="M267.39,317.43a1.52,1.52,0,0,0-.89-1.25l-16-9.23a4.79,4.79,0,0,0-4.33,0l-55.62,32.1a1.52,1.52,0,0,0-.9,1.25V345a1.53,1.53,0,0,0,.9,1.25l16,9.23a4.79,4.79,0,0,0,4.33,0l55.62-32.1a1.54,1.54,0,0,0,.89-1.25Z" style="opacity:0.15"></path><path d="M190.57,341.55l16,9.22a4.73,4.73,0,0,0,4.33,0l55.62-32.09a1.32,1.32,0,0,0,0-2.5l-16-9.23a4.79,4.79,0,0,0-4.33,0l-55.62,32.1A1.32,1.32,0,0,0,190.57,341.55Z" style="fill:#2C9456"></path><path d="M267.39,317.43v4.69a1.51,1.51,0,0,1-.9,1.25l-55.61,32.1a4.49,4.49,0,0,1-2.17.51V351.3a4.38,4.38,0,0,0,2.17-.52l55.61-32.1A1.52,1.52,0,0,0,267.39,317.43Z" style="fill:#2C9456"></path><path d="M267.39,317.43v4.69a1.51,1.51,0,0,1-.9,1.25l-55.61,32.1a4.49,4.49,0,0,1-2.17.51V351.3a4.38,4.38,0,0,0,2.17-.52l55.61-32.1A1.52,1.52,0,0,0,267.39,317.43Z" style="opacity:0.07"></path><polygon points="181 284.44 193.18 418.12 201.31 422.81 189.12 289.13 181 284.44" style="fill:#2C9456"></polygon><polygon points="181 284.44 193.18 418.12 201.31 422.81 189.12 289.13 181 284.44" style="opacity:0.15"></polygon><polygon points="201.31 422.81 205.37 420.46 193.18 286.79 189.12 289.13 201.31 422.81" style="fill:#2C9456"></polygon><polygon points="201.31 422.81 205.37 420.46 193.18 286.79 189.12 289.13 201.31 422.81" style="opacity:0.07"></polygon><polygon points="152.56 268.02 128.19 375.9 136.32 380.6 160.69 272.72 152.56 268.02" style="fill:#2C9456"></polygon><polygon points="152.56 268.02 128.19 375.9 136.32 380.6 160.69 272.72 152.56 268.02" style="opacity:0.15"></polygon><polygon points="140.38 378.25 136.32 380.6 160.69 272.72 164.75 270.37 140.38 378.25" style="fill:#2C9456"></polygon><polygon points="140.38 378.25 136.32 380.6 160.69 272.72 164.75 270.37 140.38 378.25" style="opacity:0.07"></polygon><polygon points="159.88 291.95 184.61 324.08 185.4 332.69 155.81 294.29 159.88 291.95" style="fill:#2C9456"></polygon><polygon points="159.88 291.95 184.61 324.08 185.4 332.69 155.81 294.29 159.88 291.95" style="opacity:0.07"></polygon><polygon points="155.81 294.29 185.4 332.69 186.32 342.81 154.07 302.02 155.81 294.29" style="fill:#2C9456"></polygon><polygon points="155.81 294.29 185.4 332.69 186.32 342.81 154.07 302.02 155.81 294.29" style="opacity:0.15"></polygon><polygon points="183.4 310.83 151.02 315.5 148.99 324.52 184.3 320.64 183.4 310.83" style="fill:#2C9456"></polygon><polygon points="183.4 310.83 151.02 315.5 148.99 324.52 184.3 320.64 183.4 310.83" style="opacity:0.07"></polygon><polygon points="183.24 309.09 183.4 310.82 170.04 312.75 174.09 310.41 183.24 309.09" style="fill:#2C9456"></polygon><polygon points="162.07 312.14 163.32 313.73 151.02 315.5 155.09 313.15 162.07 312.14" style="fill:#2C9456"></polygon><polygon points="162.07 312.14 163.32 313.73 151.02 315.5 155.09 313.15 162.07 312.14" style="opacity:0.2"></polygon><path d="M169,316.06a2.85,2.85,0,0,1,1.3,2.24c0,.83-.58,1.16-1.3.75a2.85,2.85,0,0,1-1.29-2.24C167.67,316,168.25,315.65,169,316.06Z" style="fill:#455a64"></path><path d="M230.55,262.38l-1.61-2.79,3.91-2.26a9.31,9.31,0,0,0,4.65-8V213.37h3.22v35.92a12.57,12.57,0,0,1-6.26,10.84Z" style="fill:#37474f"></path><path d="M207.37,252.27l-1.61-2.79,3.92-2.26a9.35,9.35,0,0,0,4.64-8.05V200.93h3.23v38.24A12.58,12.58,0,0,1,211.29,250Z" style="fill:#37474f"></path><path d="M265.7,224.73a3,3,0,0,0-1.84-2.43l-56.8-30.68a4,4,0,0,0-3.49,0l-4.66,2.69a1.28,1.28,0,0,0-.73,1c0,.38,0,4.36,0,4.74a1.26,1.26,0,0,0,.7,1l52.94,32.68a9.22,9.22,0,0,0,8.59.13l3.52-2a3,3,0,0,0,1.77-2.42C265.7,228.6,265.71,225.58,265.7,224.73Z" style="fill:#2C9456"></path><path d="M255.88,230.2v4.69a8.53,8.53,0,0,1-4.06-1.11L198.87,201.1a1.27,1.27,0,0,1-.69-1c0-.37,0-4.17,0-4.71a1.27,1.27,0,0,0,.69,1l52.95,32.68A8.34,8.34,0,0,0,255.88,230.2Z" style="opacity:0.15"></path><path d="M265.7,224.74v4.7a3,3,0,0,1-1.77,2.43l-3.53,2a8.63,8.63,0,0,1-4.52,1V230.2a8.61,8.61,0,0,0,4.52-1l3.53-2A3,3,0,0,0,265.7,224.74Z" style="opacity:0.07"></path><path d="M248.09,249.64l-42.32-21.57a10.36,10.36,0,0,0-8.79.24l-52.27,30.18a3.18,3.18,0,0,0-1.84,2.63c0,.94,0,5.35,0,6.33a3.24,3.24,0,0,0,1.68,2.61l35.83,23.44c11.56,7.55,30.62,8.08,42.58,1.18l25.75-14.87c5.81-3.35,8.72-7.59,8.78-11.79,0-1.1,0-5.45,0-6.53C257.46,257.12,254.32,252.81,248.09,249.64Z" style="fill:#2C9456"></path><path d="M248.09,249.64l-42.32-21.57a10.36,10.36,0,0,0-8.79.24l-52.27,30.18a3.18,3.18,0,0,0-1.84,2.63c0,.94,0,5.35,0,6.33a3.24,3.24,0,0,0,1.68,2.61l35.83,23.44c11.56,7.55,30.62,8.08,42.58,1.18l25.75-14.87c5.81-3.35,8.72-7.59,8.78-11.79,0-1.1,0-5.45,0-6.53C257.46,257.12,254.32,252.81,248.09,249.64Z" style="opacity:0.15"></path><path d="M180.38,287.18c11.56,7.55,30.62,8.08,42.58,1.18l25.75-14.87c12-6.9,11.68-17.58-.62-23.85l-42.32-21.57a10.36,10.36,0,0,0-8.79.24l-52.27,30.18c-2.38,1.37-2.45,3.74-.16,5.25Z" style="fill:#2C9456"></path><path d="M257.49,268c-.06,4.19-3,8.43-8.78,11.79L223,294.68c-6,3.49-13.88,5.07-21.65,4.82v-6.3c7.78.24,15.62-1.35,21.65-4.84l25.75-14.87c5.76-3.33,8.68-7.52,8.78-11.68C257.5,263.25,257.51,267,257.49,268Z" style="fill:#2C9456"></path><path d="M257.49,268c-.06,4.19-3,8.43-8.78,11.79L223,294.68c-6,3.49-13.88,5.07-21.65,4.82v-6.3c7.78.24,15.62-1.35,21.65-4.84l25.75-14.87c5.76-3.33,8.68-7.52,8.78-11.68C257.5,263.25,257.51,267,257.49,268Z" style="opacity:0.07"></path><path d="M205.37,232.85l-5.85-64.23c-.61-6.6-3.39-11.31-7.45-13.66l-6.32-3.64c-4.39-2.56-10.27-2.35-16.5,1.24l-17.63,10.18c-12,6.91-19.54,23.49-16.93,37l11.53,59.88,6.34,3.66Z" style="fill:#2C9456"></path><path d="M205.37,232.85l-5.85-64.23c-.61-6.6-3.39-11.31-7.45-13.66l-6.32-3.64c-4.39-2.56-10.27-2.35-16.5,1.24l-17.63,10.18c-12,6.91-19.54,23.49-16.93,37l11.53,59.88,6.34,3.66Z" style="opacity:0.15"></path><path d="M185.75,151.32l6.05,3.49c-4.36-2.38-10.12-2.09-16.21,1.42L158,166.41c-7.31,4.22-13,12.07-15.69,20.63l-6.34-3.66c2.7-8.56,8.37-16.41,15.69-20.63l17.63-10.18C175.48,149,181.36,148.76,185.75,151.32Z" style="fill:#2C9456"></path><path d="M205.37,232.85l-5.85-64.23c-1.26-13.75-12-19.3-23.93-12.39L158,166.41c-12,6.9-19.54,23.49-16.93,37.05l11.52,59.87Z" style="fill:#2C9456"></path><path d="M205.37,232.85l-5.85-64.23c-1.26-13.75-12-19.3-23.93-12.39L158,166.41c-12,6.9-19.54,23.49-16.93,37.05l11.52,59.87Z" style="opacity:0.07"></path></g><g id="freepik--character--inject-742"><g id="freepik--Bottom--inject-742"><path d="M276.68,342.78a7.78,7.78,0,0,0-1.34-.71c-2.84-1.38-4.81-4.08-6.61-6.58a52.15,52.15,0,0,1-4.87-8.32,17.84,17.84,0,0,1-2.14-7.05,65.91,65.91,0,0,1,.39-9.63c.45-6.92,4.18-37.33,4.2-46.78,0-8-3.07-9.71-8.95-12.65-10.11-5.07-48.83-21.73-48.83-21.73L161.15,238c.69,16-.77,20.14,16.45,32.82,8.12,6,37.93,18.32,37.93,18.32s-2.05,5.21-.86,14.32c.64,4.88,2.1,12.22,2.7,16.6s1.45,9.25.43,13.32c-.44,1.73-3.35,4.18-2.83,8.27.21,1.67,1.41,2.55,2.33,3.73s1.75,2.06,2.75,3.38c4,5.2,2.95,10.69,8.13,14.68,3.23,2.5,6.39,2.51,9.54,2.5s6.85-.66,9.33-2.87a2.78,2.78,0,0,0,1-2,2.48,2.48,0,0,0-1-2,8.16,8.16,0,0,0-1.34-.71c-2.84-1.38-4.82-4.08-6.61-6.58a52.21,52.21,0,0,1-4.88-8.32c-.56-1.2-2.19-3.33-2.13-7.05.05-2.86.08-5.5.36-8.71,1.17-13.33,2.78-35.18,3.21-43.34.37-7.24.46-10.6-2.81-13.52a47.37,47.37,0,0,0-5.8-4.34l17.11,6.13a52.66,52.66,0,0,0,.07,11.27c.67,5.75,2.08,14,2.75,19.62.64,5.37,1.51,10.45.49,13.4-.58,1.69-3.35,4.18-2.83,8.26.22,1.67,1.41,2.56,2.33,3.73s1.76,2.07,2.76,3.39c4,5.2,2.94,10.69,8.12,14.68,3.24,2.49,6.39,2.51,9.54,2.49s6.85-.65,9.33-2.86a2.76,2.76,0,0,0,1-2A2.43,2.43,0,0,0,276.68,342.78Z" style="fill:#b16668"></path><path d="M227,266.58l-7.82-4.43s-9.78.23-13.45,8.45c-2.15,4.8-2.62,9.74.16,14.43,0,0-27.42-9.19-35.69-17.25s-9.39-13.6-9.3-27l47.6-11.46s8.28,3.49,22.64,9.85c6.07,2.68,14.83,6.6,14.83,6.6a15.63,15.63,0,0,0-11.17,6.49,16.29,16.29,0,0,0-1.46,16.58Z" style="fill:#455a64"></path><path d="M160.93,243c2.7,1.51,5,2.79,6.47,3.54a79.86,79.86,0,0,1,10.29,6.74c3.55,2.61,7.46,5.16,11.88,6,2.22.41,5.18.41,7.16-.84a11.78,11.78,0,0,0,2.43-2.25,13,13,0,0,1,2.41-2.27c.5-.33,1.1-.68,1.13-1.27a1.12,1.12,0,0,0-.53-.93,3.19,3.19,0,0,0-1-.39c-2.31-.59-4.65-1.11-6.9-1.87a22.4,22.4,0,0,1-6-3.09,12.19,12.19,0,0,0,5.1-.33,4,4,0,0,0,2-1.55c.46-.8-.4-1.27-1-1.31s-1.17-.15-1.77-.2c-1.81-.16-3.44-1.15-5.22-1.53-1.54-.32-4-.23-5.52-.62-1-.25-3.11-1.8-5.49-3.7l-15.47,3.72C160.92,241.54,160.92,242.26,160.93,243Z" style="fill:#37474f"></path><path d="M219.21,262.15,206.4,255.2s5.25-2.93,5.25-11.61c0,0,2.54,6.23.38,11.3l21.34,14L227,266.58Z" style="fill:#37474f"></path></g><path d="M258.25,143.58c-2.11-2.47-8.42-4.13-11.58-3.41a2,2,0,0,0-.89,2.86c1.18,2.48,2.29,2.93,2.42,5.57a37.59,37.59,0,0,1,.1,4c0,.33-.54,1.94-.49,2.07a17.43,17.43,0,0,0-1.68-3.62,2.3,2.3,0,0,0-3.09-.87c-.44.3.33,1.34.6,3.46.34,2.7.2,4.61,1.27,7.33a4.66,4.66,0,0,1,.07,3.21c-1.75,5-7.25,12.52-11.76,19.48-4.29-2.52-9.69-7.69-17.47-11-3.43-4.13-7.8-9.29-19.43-6.64l5.33,19.26c8.4,6,14,8.91,30.23,14.7,3.79,1.36,6.74,2.73,8.55,2.14,2.45-.8,4.16-4.09,5.54-6.84a122.28,122.28,0,0,0,6.75-15.76c3.43-9.44,8.19-20.36,7.84-28.66C260.43,147.57,260.35,146,258.25,143.58Z" style="fill:#b16668"></path><path d="M211,189.45a22.77,22.77,0,0,0-3-9.13,76.53,76.53,0,0,1,1.61,10c.56.33,1.12.64,1.68.94C211.15,190.71,211.07,190.11,211,189.45Z" style="fill:#9a4a4d"></path><path d="M231.9,182.8a13.92,13.92,0,0,0-1.52,7.49,22.42,22.42,0,0,1,2.84-6.66C232.78,183.37,232.36,183.11,231.9,182.8Z" style="fill:#9a4a4d"></path><path d="M240.34,140.07a2.93,2.93,0,0,0-3,.28,9.26,9.26,0,0,0-4.18,7.24,3,3,0,0,0,1.18,2.68c.25.15,1.89,1,2.12,1.17a2.93,2.93,0,0,0,3-.29,9.22,9.22,0,0,0,4.18-7.23,3,3,0,0,0-1.2-2.69Z" style="fill:#455a64"></path><path d="M235.29,148.74c0,2.67,1.87,3.75,4.18,2.41a9.22,9.22,0,0,0,4.18-7.23c0-2.67-1.87-3.75-4.18-2.42A9.24,9.24,0,0,0,235.29,148.74Z" style="fill:#37474f"></path><path d="M265.9,150.81l-24.08-8.75h0a1.22,1.22,0,0,0-.49-.1,2.85,2.85,0,0,0-1.35.43,8.24,8.24,0,0,0-3.66,6.35c0,.49.09,1.53.79,1.85l21.53,12.87Z" style="fill:#2C9456"></path><path d="M265.9,150.81l-24.08-8.75h0a1.22,1.22,0,0,0-.49-.1,2.85,2.85,0,0,0-1.35.43,8.24,8.24,0,0,0-3.66,6.35c0,.49.09,1.53.79,1.85l21.53,12.87Z" style="opacity:0.5"></path><path d="M263.72,147.84c-1.13-.65-2.69-.56-4.42.44A13.8,13.8,0,0,0,253,159.11c0,2,.68,3.34,1.77,4,.37.22,2.83,1.55,3.18,1.75,1.13.66,2.69.57,4.42-.43a13.8,13.8,0,0,0,6.26-10.83c0-2-.69-3.36-1.79-4C266.51,149.37,264.07,148.05,263.72,147.84Z" style="fill:#455a64"></path><path d="M256.15,160.83c0,4,2.81,5.61,6.26,3.61a13.8,13.8,0,0,0,6.26-10.83c0-4-2.8-5.61-6.26-3.62A13.86,13.86,0,0,0,256.15,160.83Z" style="fill:#37474f"></path><path d="M259.62,163.76c-1.74,0-1.93-2-1.93-2.93a12.34,12.34,0,0,1,5.49-9.5,4.19,4.19,0,0,1,2-.65c1.73,0,1.92,2,1.92,2.93a12.32,12.32,0,0,1-5.49,9.5,4.24,4.24,0,0,1-2,.65Z" style="fill:#263238"></path><path d="M265.07,151.55a5.61,5.61,0,0,0-.06-.85,4.44,4.44,0,0,0-1.83.63,12.34,12.34,0,0,0-5.49,9.5,5.91,5.91,0,0,0,.07.86,4.44,4.44,0,0,0,1.83-.63A12.34,12.34,0,0,0,265.07,151.55Z" style="fill:#2C9456"></path><path d="M265.07,151.55a5.61,5.61,0,0,0-.06-.85,4.44,4.44,0,0,0-1.83.63,12.34,12.34,0,0,0-5.49,9.5,5.91,5.91,0,0,0,.07.86,4.44,4.44,0,0,0,1.83-.63A12.34,12.34,0,0,0,265.07,151.55Z" style="opacity:0.30000000000000004"></path><path d="M261.57,153.26c1.18-1.42,2.69-1.9,2.93-1.37s-.5,5.65-5.46,8.67a17.33,17.33,0,0,0,4-5.23C263.78,153.62,263.09,152.23,261.57,153.26Z" style="fill:#e0e0e0"></path><path d="M229.91,146.09a2.91,2.91,0,0,0-2.95.29,9.22,9.22,0,0,0-4.18,7.23,3,3,0,0,0,1.18,2.68c.25.15,1.89,1,2.12,1.17a3,3,0,0,0,3-.28,9.26,9.26,0,0,0,4.18-7.24,3,3,0,0,0-1.2-2.69Z" style="fill:#455a64"></path><path d="M224.86,154.76c0,2.67,1.87,3.75,4.18,2.42a9.26,9.26,0,0,0,4.18-7.24c0-2.67-1.87-3.75-4.18-2.42A9.26,9.26,0,0,0,224.86,154.76Z" style="fill:#37474f"></path><path d="M251.3,159.24l-19.81-11.11-.06,0,0,0h0a1.14,1.14,0,0,0-.48-.1,2.85,2.85,0,0,0-1.36.43,8.27,8.27,0,0,0-3.66,6.35,2.34,2.34,0,0,0,.59,1.74L244,171.89Z" style="fill:#2C9456"></path><path d="M251.3,159.24l-19.81-11.11-.06,0,0,0h0a1.14,1.14,0,0,0-.48-.1,2.85,2.85,0,0,0-1.36.43,8.27,8.27,0,0,0-3.66,6.35,2.34,2.34,0,0,0,.59,1.74L244,171.89Z" style="opacity:0.5"></path><path d="M251.05,158.87a3.78,3.78,0,0,1-.79-2.52A9.83,9.83,0,0,1,252,151.2L243.64,156a3.54,3.54,0,0,1,1.24-.38l6.42,3.6Z" style="fill:#263238"></path><path d="M249.12,156.27c-1.13-.65-2.7-.56-4.42.44a13.8,13.8,0,0,0-6.26,10.83c0,2,.67,3.34,1.77,4,.36.22,2.83,1.55,3.18,1.75,1.13.66,2.69.57,4.42-.43A13.83,13.83,0,0,0,254.07,162c0-2-.69-3.36-1.8-4C251.91,157.8,249.47,156.48,249.12,156.27Z" style="fill:#455a64"></path><path d="M241.55,169.26c0,4,2.8,5.61,6.26,3.61A13.83,13.83,0,0,0,254.07,162c0-4-2.81-5.61-6.26-3.62A13.83,13.83,0,0,0,241.55,169.26Z" style="fill:#37474f"></path><path d="M245,172.19c-1.73,0-1.92-2.05-1.92-2.93a12.31,12.31,0,0,1,5.49-9.5,4.13,4.13,0,0,1,2-.65c1.74,0,1.93,2,1.93,2.93a12.35,12.35,0,0,1-5.49,9.5,4.3,4.3,0,0,1-2,.65Z" style="fill:#263238"></path><path d="M250.47,160a5.61,5.61,0,0,0-.06-.85,4.39,4.39,0,0,0-1.83.63,12.31,12.31,0,0,0-5.49,9.5,7.47,7.47,0,0,0,.06.86,4.43,4.43,0,0,0,1.84-.63A12.34,12.34,0,0,0,250.47,160Z" style="fill:#2C9456"></path><path d="M250.47,160a5.61,5.61,0,0,0-.06-.85,4.39,4.39,0,0,0-1.83.63,12.31,12.31,0,0,0-5.49,9.5,7.47,7.47,0,0,0,.06.86,4.43,4.43,0,0,0,1.84-.63A12.34,12.34,0,0,0,250.47,160Z" style="opacity:0.30000000000000004"></path><path d="M247,161.69c1.17-1.42,2.69-1.9,2.93-1.37s-.51,5.65-5.46,8.67a17.33,17.33,0,0,0,4-5.23C249.18,162.05,248.48,160.66,247,161.69Z" style="fill:#e0e0e0"></path><polygon points="243.64 146.33 251.98 151.2 243.64 156.01 235.25 151.17 243.64 146.33" style="fill:#37474f"></polygon><path d="M163.43,125.39a7.47,7.47,0,0,1,5.32-2.19c.37,0,.36,2.17.65,2.39a2.94,2.94,0,0,1,.67.82,6.45,6.45,0,0,1,.31.58c.78,1.66.51,3.26.74,5,.19,1.47.39,2.93.58,4.4.25,1.87.5,3.75.74,5.62l1.16-.16.81,8,.42,6.65s-2.33.74-2.39.74c-1.7-.23-3-.85-4.68-2.81-2.62-3-1.41-8.33-.51-9.72a6.54,6.54,0,0,1-2.5-.94,5,5,0,0,1-2-3.78,7.69,7.69,0,0,1,1.07-4.22,1.09,1.09,0,0,0,.2-.78,1.05,1.05,0,0,0-.25-.37,7,7,0,0,1-1.87-3.88A7.66,7.66,0,0,1,163.43,125.39Z" style="fill:#263238"></path><path d="M205.5,122.47a.46.46,0,0,1,.28,0,.53.53,0,0,1,.29.2,8.08,8.08,0,0,1,2,4.62,7.36,7.36,0,0,1-.56,3.8,5.09,5.09,0,0,1-2.73,2.65,2.08,2.08,0,0,1-1.12.16,2.32,2.32,0,0,1-1.12-.65,11.07,11.07,0,0,1-1.45-1.74,5.33,5.33,0,0,1-1.28-3.67,1.2,1.2,0,0,1,.23-.61,1.74,1.74,0,0,1,.45-.36,23.7,23.7,0,0,0,2-1.63c.59-.46,1.16-1,1.71-1.45S204.86,122.72,205.5,122.47Z" style="fill:#263238"></path><path d="M173.88,143.17c-.83.55-2.12-1-3.22-2.1a4.46,4.46,0,0,0-6.79,1.83c-1.6,3.77.94,7.37,3.14,9.18s5.22.27,5.22.27l.58,13,.14,3.17a26.49,26.49,0,0,0,14.22,6.3c8.33.79,7.29-5.33,4.43-8.57l-.09-2.14-.15-3.6a40.05,40.05,0,0,0,5.39,0c3.38-.34,5.44-1.31,6.8-7,1.3-5.43,1.77-11.15.27-23.47-1.57-12.9-17.84-11.7-25.72-6.27S173.88,143.17,173.88,143.17Z" style="fill:#b16668"></path><path d="M194.46,129.91a5.79,5.79,0,0,1-5.34-2.66,5.74,5.74,0,0,1-2.76,2.3,8.2,8.2,0,0,1-3.59.2,13.77,13.77,0,0,0-3.26-.27,3.16,3.16,0,0,0-2.42,1.37,12.48,12.48,0,0,0-.74,3.67c-.59,3.73-1,10.09-2.41,10.09-1.69,0-2.17-2.62-3.28-3.54a2.89,2.89,0,0,1-.59-1.78,20.73,20.73,0,0,1-.08-3.86,11.25,11.25,0,0,0-.61-3.46c-.43-1.5-.21-3.88-.77-5.34-1-2.77-1.4-6.4.52-8.65s5-3.41,7.71-2.27a6.56,6.56,0,0,1,4.51-4.66c2.42-.81,6.39-.2,7.35,2.67a6.86,6.86,0,0,0,.48-1,5,5,0,0,1,.6-1.09,6,6,0,0,1,1.87-1.64,8.15,8.15,0,0,1,4.26-.94,7,7,0,0,1,1.37.16,7.38,7.38,0,0,1,4.11,2.53,6.28,6.28,0,0,1,1,2,8.83,8.83,0,0,1,.27,2.27,5.4,5.4,0,0,1,5.32,3.62c.7,2.12-.07,5-2.11,6a7.31,7.31,0,0,1-3.34.8c-.29,0-3.26-.39-3.16-.78a5.76,5.76,0,0,1-4.62,4.16Z" style="fill:#263238"></path><path d="M191.36,160.5s-8.67-1.26-11.41-2.58a8.85,8.85,0,0,1-3.86-3.52,12.09,12.09,0,0,0,2.29,4.24c2.06,2.43,13.06,3.9,13.06,3.9Z" style="fill:#9a4a4d"></path><path d="M189.22,140.25a1.56,1.56,0,0,1-1.47,1.66,1.6,1.6,0,1,1,1.47-1.66Z" style="fill:#263238"></path><path d="M187.67,134.8l-3.21,1.95a2,2,0,0,1,.66-2.65A1.82,1.82,0,0,1,187.67,134.8Z" style="fill:#263238"></path><path d="M188.72,150.38l3.95,1.3a2.05,2.05,0,0,1-2.59,1.4A2.19,2.19,0,0,1,188.72,150.38Z" style="fill:#9a4a4d"></path><path d="M202.37,135.47l-3.1-2.18a1.81,1.81,0,0,1,2.59-.51A2,2,0,0,1,202.37,135.47Z" style="fill:#263238"></path><path d="M201.62,139.08a1.54,1.54,0,1,1-3.08.12,1.56,1.56,0,0,1,1.47-1.66A1.59,1.59,0,0,1,201.62,139.08Z" style="fill:#263238"></path><polygon points="193.74 138.46 194.62 147.69 199.38 145.84 193.74 138.46" style="fill:#9a4a4d"></polygon><path d="M177.86,164.87l-19.77,10.07s-4.48,6-2.45,20.12c1.59,11,3.48,13,4.35,21a157.25,157.25,0,0,1,.94,24.76c7.54,4.7,42.82,5,47.6-11.46.55-18.91.07-16,.14-28.67,2-3.27.85-12.9.36-15.32-1.82-9.14-4.12-18.28-11.78-19.33Z" style="fill:#b16668"></path><path d="M181.45,179.54c-2.91-1.53-11.26-1.3-14.53-1.35s-3.19,1.17,2.25,1.59c5,.39,9.56.1,12.3,1.6,2.46,1.35,3.47,2.51,3.68,1.67S183.17,180.44,181.45,179.54Z" style="opacity:0.1"></path><path d="M192.6,177.64c-.66.88-1.93,4.19-1.21,4.4s1.2-2.24,3.09-4.23,5-4.39,5.88-5.27,1.63-2.7-1.5-.21C196,174.64,193.38,176.6,192.6,177.64Z" style="opacity:0.1"></path><path d="M158.83,208.16l-.2.57h0A48,48,0,0,1,160,216a148.3,148.3,0,0,1,1,15.22h0l.2-1.93c.57-6.27,1-15,.26-20.69l1-11Z" style="fill:#9a4a4d"></path><path d="M193,232.66a3.71,3.71,0,0,1-1,1.7,8.67,8.67,0,0,1-3.29,1.79c-.4.13-2.87.62-2.72,1.09a.2.2,0,0,0,.08.12.63.63,0,0,0,.33.12,11.35,11.35,0,0,0,5.8-1.38c.58-.27,1.15-.57,1.75-.79a5.1,5.1,0,0,1,1.22-.32,7.24,7.24,0,0,1,1.14,0c1.65.07,5-.44,6-2.48a.7.7,0,0,0,.09-.5.41.41,0,0,0-.51-.2,2.61,2.61,0,0,0-.61.29c-1.63.93-5.16,2.11-5.24-.44a20.7,20.7,0,0,1,.06-3.77c.05-.35.42-.61.74-.77,1.14-.56,2.35-.74,3.51-1.24a1.87,1.87,0,0,0,.64-.4.81.81,0,0,0,.28-.67s0-.1-.06-.12a.23.23,0,0,0-.18,0c-1.09.32-2.18.59-3.28.81a4,4,0,0,1-1.54.09c-.84-.17-1.29-1.08-1.47-1.89-.22-1-.54-2.74.35-3.8a2.9,2.9,0,0,1,1.45-.78,12.27,12.27,0,0,0,2.8-1.08,1.76,1.76,0,0,0,.5-.4.61.61,0,0,0,.13-.56,28.26,28.26,0,0,1-3.66.74,2,2,0,0,1-.89,0c-.81-.24-1.14-1.83-1.29-2.65-.2-1.14-.22-2.29-.49-3.5-.05-.23-.23-.47-.48-.41s-.44.53-.45.86l-.09,3.2a7.69,7.69,0,0,1-.21,2,4.29,4.29,0,0,1-3.1,2.7,13.54,13.54,0,0,1-2.95.66c-.18,0-.26.12-.26.22a.27.27,0,0,0,.21.26,5.14,5.14,0,0,0,2.34.12c.78-.12,1.54-.32,2.32-.45a1.89,1.89,0,0,1,1.18.09,2,2,0,0,1,.78,1.53,7.4,7.4,0,0,1,.05,2.3,3.63,3.63,0,0,1-1.48,2.33,7.43,7.43,0,0,1-2.42,1.08c-.86.25-1.73.43-2.57.73-.18.06-.4.21-.33.39s.16.15.27.18a9.44,9.44,0,0,0,3.12-.24,4.92,4.92,0,0,1,2.61.2c.87.44.86,1.37.91,2.22A3.6,3.6,0,0,1,193,232.66Z" style="opacity:0.1"></path><path d="M173.25,210c2.66,1.44,6.54,1.23,8.83.74a20.54,20.54,0,0,0,7.18-3.31,17.79,17.79,0,0,1,2.17-1.3c1.85-.87,3.21-.35,4.93-.28a17.62,17.62,0,0,0,7.92-1.62,5.67,5.67,0,0,0,3.17-2.8,13.63,13.63,0,0,1-9.83,2.73,7.59,7.59,0,0,1-2.73-.64,3,3,0,0,1-1.41-1.92c-.23-.77-.46-1.79-.61-2.61-.42-2.27-1.54-5.65-2.32-4.51a.7.7,0,0,0-.09.42c0,2,1.12,5.46.55,7.86s-2.88,3.74-5.38,4.84a24.2,24.2,0,0,1-8.25,2.12C174.44,209.94,171.54,209.11,173.25,210Z" style="opacity:0.1"></path><path d="M182.23,241.79c-2.39-.61-11.68-9.61-13.91-11.85-1.86-1.88-5.22-5.14-7.72-7.69a164.18,164.18,0,0,1,.33,18.54C165,243.34,183.75,242.18,182.23,241.79Z" style="opacity:0.15"></path><path d="M172.7,163l.25,4.35c1.38,6.16,6.1,23.85,18.67,31.78,5.63-18.83,1.56-30.36,0-33.48l-.14-2.47s3.21,2.09,4.22,12.06a53.56,53.56,0,0,1-3.59,25.37c-8.94-3.88-14.44-14.38-17.24-21.42-1.89-4.72-3.23-8.68-3.5-11A7.45,7.45,0,0,1,172.7,163Z" style="fill:#37474f"></path><path d="M197.25,205.07c0,.15,0,.3,0,.44l-1.09,6.8-3.21,1.23.86-5.39.22-1.4a6.59,6.59,0,0,0-2.14-5.57,2.07,2.07,0,0,0-2-.53l3.22-1.23h0a2.13,2.13,0,0,1,2,.54A6.68,6.68,0,0,1,197.25,205.07Z" style="fill:#2C9456"></path><path d="M197.25,205.07c0,.15,0,.3,0,.44l-1.09,6.8-3.21,1.23.86-5.39.22-1.4a6.59,6.59,0,0,0-2.14-5.57,2.07,2.07,0,0,0-2-.53l3.22-1.23h0a2.13,2.13,0,0,1,2,.54A6.68,6.68,0,0,1,197.25,205.07Z" style="opacity:0.15"></path><path d="M191.86,201.18c-1.48-1.2-2.92-.64-3.22,1.23a6.59,6.59,0,0,0,2.14,5.57,2.57,2.57,0,0,0,1.41.61l-.5,3.15a1.41,1.41,0,0,0,.45,1.18l.77.62,1.08-6.79A6.61,6.61,0,0,0,191.86,201.18Z" style="fill:#2C9456"></path><path d="M191.86,201.18c-1.48-1.2-2.92-.64-3.22,1.23a6.59,6.59,0,0,0,2.14,5.57,2.57,2.57,0,0,0,1.41.61l-.5,3.15a1.41,1.41,0,0,0,.45,1.18l.77.62,1.08-6.79A6.61,6.61,0,0,0,191.86,201.18Z" style="opacity:0.30000000000000004"></path><polygon points="196.61 206.88 194.42 207.72 194.61 206.56 196.8 205.73 196.61 206.88" style="fill:#37474f"></polygon><polygon points="194.42 207.72 196.61 206.88 196.32 206.64 194.48 207.35 194.42 207.72" style="fill:#263238"></polygon><polygon points="196.32 206.64 196.44 205.86 196.8 205.73 196.61 206.88 196.32 206.64"></polygon></g><path d="M180.41,290.7a2.33,2.33,0,0,0-1.06-1.84.76.76,0,0,0-.76-.07h0l-3.91,2.26a2.14,2.14,0,0,1-3.21-1.85V249.82h-3V289.2a5.08,5.08,0,0,0,2.57,4.45,5.13,5.13,0,0,0,5.14,0l3.91-2.26h0A.74.74,0,0,0,180.41,290.7Z" style="fill:#37474f"></path><path d="M161.75,278a2.36,2.36,0,0,0-1.06-1.84.74.74,0,0,0-.75-.07h0L156,278.37a2.14,2.14,0,0,1-3.2-1.85V239.16h-3v37.36a5.14,5.14,0,0,0,5.14,5.14,5,5,0,0,0,2.56-.7l3.92-2.26h0A.73.73,0,0,0,161.75,278Z" style="fill:#37474f"></path><path d="M200.78,262.21a3,3,0,0,0-1.84-2.42l-56.8-30.68a3.93,3.93,0,0,0-3.49,0L134,231.85a1.23,1.23,0,0,0-.73,1c0,.37,0,4.35,0,4.73a1.28,1.28,0,0,0,.7,1l52.94,32.67a9.2,9.2,0,0,0,8.58.13l3.53-2a3,3,0,0,0,1.77-2.42Z" style="fill:#2C9456"></path><path d="M191,267.69v4.69a8.53,8.53,0,0,1-4.06-1.11l-53-32.68a1.27,1.27,0,0,1-.69-1c0-.37,0-4.17,0-4.71a1.27,1.27,0,0,0,.69,1l53,32.68A8.34,8.34,0,0,0,191,267.69Z" style="opacity:0.15"></path><path d="M200.78,262.23v4.7a3,3,0,0,1-1.77,2.43l-3.53,2a8.63,8.63,0,0,1-4.52,1v-4.69a8.61,8.61,0,0,0,4.52-1l3.53-2A3,3,0,0,0,200.78,262.23Z" style="opacity:0.07"></path><g id="freepik--Arm--inject-742"><path d="M187.57,259.63c-4.43-.81-8.34-3.37-11.89-6a79.78,79.78,0,0,0-10.29-6.73c-4.86-2.56-20.14-11.22-24.71-14-6.56-4-6.08-7.87-5.21-12.47,1.37-7.18,2.92-10.38,4.16-15.28,2.49-9.84,3.84-10.61,4.45-15.35.65-5,3.15-10,6.21-12.61,4.27-3.7,11.79-4.44,13.69-5.16,9.22,10.07,3.93,22.26-1.55,25.59l-7.87,22.24c3.28,3.39,7.24,6.89,10.78,10,2.4,2.06,12.16,10.76,14.55,11.37,1.52.39,4,.3,5.51.63,1.78.37,3.41,1.37,5.23,1.52.59,0,1.07.16,1.76.21s1.45.5,1,1.31a4.07,4.07,0,0,1-2,1.55,12,12,0,0,1-5.1.32,22.16,22.16,0,0,0,6,3.1c2.25.76,4.6,1.27,6.9,1.86a3.21,3.21,0,0,1,1,.4,1.08,1.08,0,0,1,.53.92c0,.59-.63.95-1.13,1.27a13,13,0,0,0-2.41,2.28,12.06,12.06,0,0,1-2.43,2.25C192.74,260,189.79,260,187.57,259.63Z" style="fill:#b16668"></path><path d="M179,240.77c-2.79-.5-7.87,5.53-7.22,10.23a12.39,12.39,0,0,1-4-2.55s-.52-2.31,2.53-6.69,5.67-3.24,5.67-3.24Z" style="fill:#2C9456"></path><path d="M179,240.77c-2.79-.5-7.87,5.53-7.22,10.23a12.39,12.39,0,0,1-4-2.55s-.52-2.31,2.53-6.69,5.67-3.24,5.67-3.24Z" style="opacity:0.30000000000000004"></path><path d="M154.56,219.85c-2.76-2.29-8.66-2.09-10.87-1.32a8.79,8.79,0,0,1,6.29-1.95c3.93.26,5.3,1.16,5.3,1.16Z" style="fill:#9a4a4d"></path></g><g id="freepik--Inflatable--inject-742"><path id="freepik--shadow--inject-742" d="M199.91,360.61,198,340a81.92,81.92,0,0,0-15.3-29.11L175.31,312h0l7.43-1.07c-.43-.53-.88-1.05-1.32-1.57l-7.33,1.06-12.43-16.15a24.37,24.37,0,0,0-14.82-.88l-11.31,50a83.82,83.82,0,0,0,9.17,15.73l7.05-31.21a25,25,0,0,1-.21-3,15.91,15.91,0,0,1,1.26-6.58,16.12,16.12,0,0,1,6.31,2.21,25.22,25.22,0,0,1,3.47,2.42l7.45-.81,16.29,20.6-.57-6.21,3.68,40.32A23.78,23.78,0,0,0,199.91,360.61ZM154.67,315l8.65-1.25-1.25-1.58-7,1h0l1.73-7.66,6.51,8.23Zm27.47,5.89,2.16-.23-.63-6.92.94,10.36Z" style="opacity:0.15"></path><path d="M126.89,320.71c0,21.81,15.33,48.35,34.22,59.26,17.38,10,36.64-1.1,36.64-21.15,0-21.82-15.31-48.36-34.21-59.26C146.17,289.53,126.9,300.65,126.89,320.71Zm29.63,3.08c9.25,5.34,16.73,18.31,16.73,29a16.09,16.09,0,0,1-1.24,6.58,16,16,0,0,1-6.33-2.21c-9.23-5.34-16.71-18.31-16.73-29a16,16,0,0,1,1.26-6.58A16.12,16.12,0,0,1,156.52,323.79Z" style="fill:#fafafa"></path><path d="M139.79,333.45c0,10.67,7.5,23.64,16.73,29,7,4,13,2.54,15.49-3.08a16,16,0,0,1-6.33-2.21c-9.23-5.34-16.71-18.31-16.73-29a16,16,0,0,1,1.26-6.58C144.1,320.93,139.8,325.38,139.79,333.45Z" style="fill:#e0e0e0"></path><path d="M196.21,346.15a10.76,10.76,0,0,1-3.31,2.58c-6.31,3.19-17.42,1.62-20.1-.73v.05a26.65,26.65,0,0,1,.46,4.72,18.79,18.79,0,0,1-.41,4c5.14,11.92,16.53,17,21.52,15.43a26.69,26.69,0,0,0,3.39-13.36A56.22,56.22,0,0,0,196.21,346.15Z" style="fill:#2C9456"></path><path d="M161.11,380a27.72,27.72,0,0,0,10,3.52c-7.16-4.18-9.28-13.77-9.53-17.38s1-8.73,3.18-9.5l0-.05a29.62,29.62,0,0,1-5.13-4.23c-2.08.19-5.62,1.17-9.4,5.05a15.3,15.3,0,0,0-4.08,10A60.64,60.64,0,0,0,161.11,380Z" style="fill:#2C9456"></path><path d="M164.81,356.61l0-.05a29.62,29.62,0,0,1-5.13-4.23c-2.08.19-5.61,1.17-9.4,5.05a28.61,28.61,0,0,0,6.28,5.05,17.44,17.44,0,0,0,5.09,2C161.76,361.07,163,357.27,164.81,356.61Z" style="opacity:0.15"></path><path d="M149,329.26l0,0c-3.49,1.93-8.76-.15-11.31-2.23-4.68-3.83-9-9-8.31-17.86a27.37,27.37,0,0,0-2.47,11.56,61,61,0,0,0,3.54,19.51,18.1,18.1,0,0,0,11.41.72,13,13,0,0,0,8.13-5.63A29,29,0,0,1,149,329.26Z" style="fill:#2C9456"></path><path d="M149,329.24c-2.5,1.38-5.91.71-8.58-.55a17.73,17.73,0,0,0-.61,4.76,29.08,29.08,0,0,0,1.16,7.67l.89-.18a13,13,0,0,0,8.13-5.63h0a29,29,0,0,1-1-6.05Z" style="opacity:0.15"></path><path d="M163.54,299.56a26.91,26.91,0,0,0-11.6-3.68c-1.82,1.28-4.23,4.05-5.12,9.91-1.43,9.38,5.61,16.23,5.61,16.23v0a18.29,18.29,0,0,1,4.09,1.75,27.62,27.62,0,0,1,3.22,2.22h0s-1.55-6.07,4.17-12.46c4.52-5.05,9.07-5,12.08-4.1A58.07,58.07,0,0,0,163.54,299.56Z" style="fill:#2C9456"></path></g></g></g><g id="freepik--Shells--inject-742"><g id="freepik--shells--inject-742"><g id="freepik--Shell--inject-742"><path id="freepik--shadow--inject-742" d="M423.11,292.51a.42.42,0,0,0,.25.27c.3.13,1,0,2-.46a32.16,32.16,0,0,0,1.17,5.41,5.12,5.12,0,0,0,1.1,2,2.5,2.5,0,0,0,2,.75,3.59,3.59,0,0,0,2.33-1.53c.51.1,1.59.06,2.73-1.49a3.43,3.43,0,0,0,.5-3.26,3.33,3.33,0,0,0-.25-.58,3.42,3.42,0,0,0,.18-3.08c-.09-.24-.19-.48-.31-.73a2.42,2.42,0,0,0-1.51-1.2c-1.73-.55-4.51,0-6.44.93a6.91,6.91,0,0,0-.29-1.25,2,2,0,0,0-.69-1.05.57.57,0,0,0-.6,0c-.51.29-.56,1.68-.51,2.85a8.34,8.34,0,0,0-1.63,2.17A.46.46,0,0,0,423.11,292.51Z" style="fill:#e0e0e0"></path><g id="freepik--shell--inject-742"><path d="M426,290.65s.73,6.29,2.22,7.69,3.05.34,3.93-.93c0,0,1.21.58,2.58-1.29a3.17,3.17,0,0,0,.11-3.65s1.18-1.19,0-3.63c-1-2-5.49-1.2-7.92.12,0,0-.17-2.08-.88-2.54s-.54,2.65-.54,2.65a10.43,10.43,0,0,0-1.66,2.11C423.69,291.7,426,290.65,426,290.65Z" style="fill:#2C9456"></path><path d="M426,290.65s.73,6.29,2.22,7.69,3.05.34,3.93-.93c0,0,1.21.58,2.58-1.29a3.17,3.17,0,0,0,.11-3.65s1.18-1.19,0-3.63c-1-2-5.49-1.2-7.92.12,0,0-.17-2.08-.88-2.54s-.54,2.65-.54,2.65a10.43,10.43,0,0,0-1.66,2.11C423.69,291.7,426,290.65,426,290.65Z" style="fill:#fafafa;opacity:0.8"></path><path d="M427.78,296.17c1,2.14,2.17,2.65,3,2.55a2,2,0,0,1-2.53-.38c-1.49-1.4-2.22-7.69-2.22-7.69a13,13,0,0,1-1.39.54,7,7,0,0,0,1.61-1A24.23,24.23,0,0,0,427.78,296.17Z" style="opacity:0.1"></path><path d="M432.13,297.41s-.36-2.43-3.27-5a10,10,0,0,1,3.14,3.06c1.4,2.1,2.71.69,2.71.69C433.34,298,432.13,297.41,432.13,297.41Z" style="opacity:0.1"></path><path d="M429.05,289.67c3.62.2,5.16,1.62,5.6,1.15.65-.68.15-2,.15-2,1.2,2.44,0,3.63,0,3.63A10,10,0,0,0,429.05,289.67Z" style="opacity:0.1"></path></g></g><g id="freepik--shell--inject-742"><path id="freepik--shadow--inject-742" d="M401.78,308.28a.79.79,0,0,0,.62.07c.51-.15,1.19-1.06,2-2.72a53,53,0,0,0,7.34,5.74,8.4,8.4,0,0,0,3.59,1.41,4.11,4.11,0,0,0,3.37-1.17,6,6,0,0,0,1.36-4.47c.76-.42,2.12-1.64,1.92-4.87a5.75,5.75,0,0,0-2.86-4.75,6.27,6.27,0,0,0-.94-.47,5.73,5.73,0,0,0-3.08-4.17,12,12,0,0,0-1.19-.61,4,4,0,0,0-3.24.07c-2.83,1.16-5.81,4.88-7.32,8.13a12.08,12.08,0,0,0-1.71-1.29,3.36,3.36,0,0,0-2-.62,1,1,0,0,0-.81.6c-.34.93,1.08,2.77,2.41,4.23-.07,1.12-.19,3.75.22,4.56A.8.8,0,0,0,401.78,308.28Z" style="fill:#e0e0e0"></path><g id="freepik--shell--inject-742"><path d="M404.37,303.29s7.7,7.35,11.14,7.55,4.3-2.84,4.07-5.43c0,0,2.19-.54,1.94-4.44a5.34,5.34,0,0,0-3.78-4.83s.24-2.81-3.93-4.66c-3.47-1.55-8.38,4.36-10.1,8.67,0,0-2.46-2.5-3.87-2.33s2.15,4,2.15,4-.27,3.71.14,4.51S404.37,303.29,404.37,303.29Z" style="fill:#2C9456"></path><path d="M404.37,303.29s7.7,7.35,11.14,7.55,4.3-2.84,4.07-5.43c0,0,2.19-.54,1.94-4.44a5.34,5.34,0,0,0-3.78-4.83s.24-2.81-3.93-4.66c-3.47-1.55-8.38,4.36-10.1,8.67,0,0-2.46-2.5-3.87-2.33s2.15,4,2.15,4-.27,3.71.14,4.51S404.37,303.29,404.37,303.29Z" style="fill:#fafafa;opacity:0.8"></path><path d="M412.63,308.49c3.6,1.7,5.65,1.08,6.56.13a3.44,3.44,0,0,1-3.68,2.22c-3.44-.2-11.14-7.55-11.14-7.55s-.62,1.28-1.21,2.21a12.11,12.11,0,0,0,1-3A40.76,40.76,0,0,0,412.63,308.49Z" style="opacity:0.1"></path><path d="M419.58,305.41s-3.07-2.75-9.65-3a17.09,17.09,0,0,1,7.36.58c4,1.2,4.23-2,4.23-2C421.77,304.87,419.58,305.41,419.58,305.41Z" style="opacity:0.1"></path><path d="M407.28,298.74c4.89-3.65,8.4-3.46,8.47-4.54.1-1.59-1.94-2.72-1.94-2.72,4.17,1.85,3.93,4.66,3.93,4.66C412.35,295.34,407.28,298.74,407.28,298.74Z" style="opacity:0.1"></path></g></g></g></g></svg>