<svg xmlns="http://www.w3.org/2000/svg" viewBox="0 0 500 500"><g id="freepik--Lights--inject-763"><g id="freepik--lights--inject-763"><path d="M471.7,361l-26-295.49-5.64-22.61-20.52-.35L390,65.21l-4.66-23.3-5.64-22.6L359.16,19,250.07,155.14,141,19l-20.54.36-5.8,23.78L110,67.31,80.61,42.59l-20.54.35L54.44,65.55,28.61,359.83l0,.49-.06.72v0c-2.34,34,19.23,68.45,64.74,94.41,86.57,49.38,226.93,49.38,313.5,0,45.52-26,67.09-60.4,64.75-94.41Z" style="fill:#2C9456;opacity:0.15"></path><polygon points="442.05 32.23 444.69 30.7 444.69 41.06 442.05 42.58 442.05 32.23" style="fill:#263238"></polygon><polygon points="442.05 32.23 444.69 30.7 444.69 41.06 442.05 42.58 442.05 32.23" style="opacity:0.1"></polygon><polygon points="430.94 45.04 433.75 56.52 423.23 61.89 418.29 44.94 430.94 45.04" style="fill:#455a64"></polygon><polygon points="436.51 58.73 426.44 65.39 426.32 66.21 442.07 69.81 444.23 59.04 436.51 58.73" style="fill:#2C9456"></polygon><polygon points="436.63 57.92 426.44 65.39 442.19 68.99 444.23 59.04 436.63 57.92" style="fill:#455a64"></polygon><path d="M449.77,37.81a12.6,12.6,0,0,1,5.71,9.89,4,4,0,0,1-1.65,3.67l-6.75,3.89c-1,.6-2.45.52-4-.39A12.63,12.63,0,0,1,437.35,45,4,4,0,0,1,439,41.31l6.74-3.9A4,4,0,0,1,449.77,37.81Z" style="fill:#263238"></path><path d="M445.76,39a14.81,14.81,0,0,1,6.69,11.59c0,2.12-.75,3.6-1.94,4.3l-7.91,4.56c-1.21.7-2.87.61-4.71-.46A14.79,14.79,0,0,1,431.2,47.4c0-2.12.75-3.6,1.95-4.3l7.91-4.56C442.26,37.85,443.92,37.94,445.76,39Z" style="fill:#455a64"></path><path d="M437.89,43.54a14.78,14.78,0,0,1,6.7,11.59c0,4.27-3,6-6.7,3.87a14.83,14.83,0,0,1-6.69-11.6C431.2,43.14,434.2,41.41,437.89,43.54Z" style="fill:#e0e0e0"></path><path d="M437.89,44.67a12.62,12.62,0,0,1,5.72,9.9c0,3.64-2.56,5.12-5.72,3.3a12.65,12.65,0,0,1-5.71-9.9C432.18,44.32,434.74,42.84,437.89,44.67Z" style="fill:#fff"></path><polygon points="444.87 46.56 439.81 47.88 444.96 65.72 445.69 65.55 446.9 56.12 444.87 46.56" style="fill:#2C9456"></polygon><polygon points="444.87 46.56 440.54 47.72 445.69 65.55 447.63 55.95 444.87 46.56" style="fill:#263238"></polygon><polygon points="439.95 43.69 435.12 44.75 419.41 43.33 419.52 42.59 432.44 42.57 440.06 42.94 439.95 43.69" style="fill:#2C9456"></polygon><polygon points="440.06 42.94 435.23 44.01 419.52 42.59 432.55 41.83 440.06 42.94" style="fill:#263238"></polygon><polygon points="452.6 50.55 455.23 49.03 455.23 36.79 444.69 30.7 442.05 32.23 452.6 38.31 452.6 50.55" style="fill:#263238"></polygon><path d="M453.91,49.79a3,3,0,0,0,1.32-2.38V36.79L444.69,30.7l-2.64,1.52,10.55,6.09V48.93C452.6,49.83,453.19,50.21,453.91,49.79Z" style="opacity:0.05"></path><path d="M453.91,48.74a1.58,1.58,0,0,0,.73-1.26c0-.46-.32-.65-.73-.42a1.62,1.62,0,0,0-.73,1.26C453.18,48.79,453.51,49,453.91,48.74Z" style="fill:#fff"></path><polygon points="381.68 8.59 384.32 7.06 384.32 17.42 381.68 18.94 381.68 8.59" style="fill:#263238"></polygon><polygon points="381.68 8.59 384.32 7.06 384.32 17.42 381.68 18.94 381.68 8.59" style="opacity:0.1"></polygon><polygon points="370.57 21.4 373.38 32.88 362.86 38.25 357.92 21.3 370.57 21.4" style="fill:#455a64"></polygon><polygon points="376.14 35.09 366.07 41.75 365.95 42.57 381.7 46.16 383.86 35.4 376.14 35.09" style="fill:#2C9456"></polygon><polygon points="376.27 34.28 366.07 41.75 381.82 45.35 383.86 35.4 376.27 34.28" style="fill:#455a64"></polygon><path d="M389.4,14.17a12.62,12.62,0,0,1,5.72,9.89,4,4,0,0,1-1.66,3.67l-6.75,3.89c-1,.6-2.44.52-4-.39A12.63,12.63,0,0,1,377,21.34a4,4,0,0,1,1.67-3.67l6.74-3.9A4,4,0,0,1,389.4,14.17Z" style="fill:#263238"></path><path d="M385.39,15.36A14.83,14.83,0,0,1,392.08,27c0,2.12-.74,3.6-1.94,4.3l-7.91,4.57c-1.21.69-2.86.6-4.7-.46a14.81,14.81,0,0,1-6.7-11.6c0-2.12.75-3.6,1.95-4.3l7.91-4.56C381.89,14.21,383.55,14.3,385.39,15.36Z" style="fill:#455a64"></path><path d="M377.53,19.9a14.79,14.79,0,0,1,6.69,11.59c0,4.27-3,6-6.69,3.87a14.81,14.81,0,0,1-6.7-11.6C370.83,19.5,373.83,17.77,377.53,19.9Z" style="fill:#e0e0e0"></path><path d="M377.53,21a12.63,12.63,0,0,1,5.71,9.9c0,3.64-2.56,5.12-5.71,3.3a12.63,12.63,0,0,1-5.72-9.9C371.81,20.68,374.37,19.2,377.53,21Z" style="fill:#fff"></path><polygon points="384.5 22.92 379.44 24.24 384.59 42.08 385.32 41.91 386.53 32.48 384.5 22.92" style="fill:#2C9456"></polygon><polygon points="384.5 22.92 380.17 24.08 385.32 41.91 387.26 32.31 384.5 22.92" style="fill:#263238"></polygon><polygon points="379.58 20.05 374.75 21.11 359.04 19.69 359.15 18.95 372.07 18.93 379.69 19.3 379.58 20.05" style="fill:#2C9456"></polygon><polygon points="379.69 19.3 374.86 20.37 359.15 18.95 372.18 18.19 379.69 19.3" style="fill:#263238"></polygon><polygon points="392.23 26.91 394.86 25.39 394.86 13.15 384.32 7.06 381.68 8.59 392.23 14.67 392.23 26.91" style="fill:#263238"></polygon><path d="M393.55,26.15a3,3,0,0,0,1.31-2.38V13.15L384.32,7.06l-2.64,1.53,10.55,6.08V25.29C392.23,26.19,392.82,26.57,393.55,26.15Z" style="opacity:0.05"></path><path d="M393.55,25.11a1.64,1.64,0,0,0,.73-1.27c0-.46-.33-.65-.73-.42a1.59,1.59,0,0,0-.73,1.26C392.82,25.15,393.14,25.34,393.55,25.11Z" style="fill:#fff"></path><polygon points="58.08 32.23 55.44 30.7 55.44 41.06 58.08 42.58 58.08 32.23" style="fill:#263238"></polygon><polygon points="58.08 32.23 55.44 30.7 55.44 41.06 58.08 42.58 58.08 32.23" style="opacity:0.1"></polygon><polygon points="69.19 45.04 66.38 56.52 76.91 61.89 81.84 44.94 69.19 45.04" style="fill:#455a64"></polygon><polygon points="63.62 58.73 73.69 65.39 73.81 66.21 58.06 69.81 55.9 59.04 63.62 58.73" style="fill:#2C9456"></polygon><polygon points="63.5 57.92 73.69 65.39 57.94 68.99 55.9 59.04 63.5 57.92" style="fill:#455a64"></polygon><path d="M50.36,37.81a12.6,12.6,0,0,0-5.71,9.89,4,4,0,0,0,1.65,3.67l6.75,3.89c1,.6,2.45.52,4-.39A12.63,12.63,0,0,0,62.78,45a4,4,0,0,0-1.67-3.67l-6.74-3.9A4,4,0,0,0,50.36,37.81Z" style="fill:#263238"></path><path d="M54.37,39a14.81,14.81,0,0,0-6.69,11.59c0,2.12.75,3.6,1.94,4.3l7.91,4.56c1.21.7,2.87.61,4.71-.46A14.79,14.79,0,0,0,68.93,47.4c0-2.12-.75-3.6-2-4.3l-7.91-4.56C57.87,37.85,56.21,37.94,54.37,39Z" style="fill:#455a64"></path><path d="M62.24,43.54a14.78,14.78,0,0,0-6.7,11.59c0,4.27,3,6,6.7,3.87a14.83,14.83,0,0,0,6.69-11.6C68.93,43.14,65.93,41.41,62.24,43.54Z" style="fill:#e0e0e0"></path><path d="M62.24,44.67a12.62,12.62,0,0,0-5.72,9.9c0,3.64,2.56,5.12,5.72,3.3A12.65,12.65,0,0,0,68,48C68,44.32,65.39,42.84,62.24,44.67Z" style="fill:#fff"></path><polygon points="55.26 46.56 60.33 47.88 55.17 65.72 54.44 65.55 53.23 56.12 55.26 46.56" style="fill:#2C9456"></polygon><polygon points="55.26 46.56 59.59 47.72 54.44 65.55 52.5 55.95 55.26 46.56" style="fill:#263238"></polygon><polygon points="60.18 43.69 65.01 44.75 80.72 43.33 80.61 42.59 67.69 42.57 60.07 42.94 60.18 43.69" style="fill:#2C9456"></polygon><polygon points="60.07 42.94 64.9 44.01 80.61 42.59 67.58 41.83 60.07 42.94" style="fill:#263238"></polygon><polygon points="47.53 50.55 44.9 49.03 44.9 36.79 55.44 30.7 58.08 32.23 47.53 38.31 47.53 50.55" style="fill:#263238"></polygon><path d="M46.22,49.79a3,3,0,0,1-1.32-2.38V36.79L55.44,30.7l2.64,1.52L47.53,38.31V48.93C47.53,49.83,46.94,50.21,46.22,49.79Z" style="opacity:0.05"></path><path d="M46.22,48.74a1.58,1.58,0,0,1-.73-1.26c0-.46.32-.65.73-.42A1.62,1.62,0,0,1,47,48.32C47,48.79,46.62,49,46.22,48.74Z" style="fill:#fff"></path><polygon points="118.45 8.59 115.81 7.06 115.81 17.42 118.45 18.94 118.45 8.59" style="fill:#263238"></polygon><polygon points="118.45 8.59 115.81 7.06 115.81 17.42 118.45 18.94 118.45 8.59" style="opacity:0.1"></polygon><polygon points="129.56 21.4 126.75 32.88 137.27 38.25 142.21 21.3 129.56 21.4" style="fill:#455a64"></polygon><polygon points="123.98 35.09 134.06 41.75 134.18 42.57 118.43 46.16 116.27 35.4 123.98 35.09" style="fill:#2C9456"></polygon><polygon points="123.86 34.28 134.06 41.75 118.31 45.35 116.27 35.4 123.86 34.28" style="fill:#455a64"></polygon><path d="M110.73,14.17A12.62,12.62,0,0,0,105,24.06a4,4,0,0,0,1.66,3.67l6.75,3.89c1,.6,2.44.52,4-.39a12.63,12.63,0,0,0,5.71-9.89,4,4,0,0,0-1.67-3.67l-6.74-3.9A4,4,0,0,0,110.73,14.17Z" style="fill:#263238"></path><path d="M114.74,15.36A14.83,14.83,0,0,0,108.05,27c0,2.12.74,3.6,1.94,4.3l7.91,4.57c1.21.69,2.86.6,4.7-.46a14.81,14.81,0,0,0,6.7-11.6c0-2.12-.75-3.6-2-4.3l-7.91-4.56C118.24,14.21,116.58,14.3,114.74,15.36Z" style="fill:#455a64"></path><path d="M122.6,19.9a14.79,14.79,0,0,0-6.69,11.59c0,4.27,3,6,6.69,3.87a14.81,14.81,0,0,0,6.7-11.6C129.3,19.5,126.3,17.77,122.6,19.9Z" style="fill:#e0e0e0"></path><path d="M122.6,21a12.63,12.63,0,0,0-5.71,9.9c0,3.64,2.56,5.12,5.71,3.3a12.63,12.63,0,0,0,5.72-9.9C128.32,20.68,125.76,19.2,122.6,21Z" style="fill:#fff"></path><polygon points="115.63 22.92 120.69 24.24 115.54 42.08 114.81 41.91 113.6 32.48 115.63 22.92" style="fill:#2C9456"></polygon><polygon points="115.63 22.92 119.96 24.08 114.81 41.91 112.87 32.31 115.63 22.92" style="fill:#263238"></polygon><polygon points="120.55 20.05 125.38 21.11 141.09 19.69 140.98 18.95 128.06 18.93 120.44 19.3 120.55 20.05" style="fill:#2C9456"></polygon><polygon points="120.44 19.3 125.27 20.37 140.98 18.95 127.95 18.19 120.44 19.3" style="fill:#263238"></polygon><polygon points="107.9 26.91 105.27 25.39 105.27 13.15 115.81 7.06 118.45 8.59 107.9 14.67 107.9 26.91" style="fill:#263238"></polygon><path d="M106.58,26.15a3,3,0,0,1-1.31-2.38V13.15l10.54-6.09,2.64,1.53L107.9,14.67V25.29C107.9,26.19,107.31,26.57,106.58,26.15Z" style="opacity:0.05"></path><path d="M106.58,25.11a1.64,1.64,0,0,1-.73-1.27c0-.46.33-.65.73-.42a1.59,1.59,0,0,1,.73,1.26C107.31,25.15,107,25.34,106.58,25.11Z" style="fill:#fff"></path></g></g><g id="freepik--Floor--inject-763"><ellipse id="freepik--floor--inject-763" cx="250.02" cy="366.07" rx="221.68" ry="126.45" style="fill:#fafafa"></ellipse></g><g id="freepik--Shadows--inject-763"><polygon id="freepik--Shadow--inject-763" points="361.2 439.01 198.31 344.96 281.65 296.85 444.54 390.89 361.2 439.01" style="fill:#e0e0e0"></polygon><ellipse id="freepik--shadow--inject-763" cx="104.82" cy="387.29" rx="58.59" ry="33.83" style="fill:#e0e0e0"></ellipse></g><g id="freepik--magic-box--inject-763"><g id="freepik--Boxes--inject-763"><polygon points="376.71 417.75 283.93 364.43 283.93 284.83 376.7 338.39 376.71 417.75" style="fill:#2C9456"></polygon><polygon points="376.71 417.75 283.93 364.43 283.93 284.83 376.7 338.39 376.71 417.75" style="fill:#fff;opacity:0.55"></polygon><polygon points="294.86 302.21 298.26 308.87 302.7 309.8 300.84 315.15 303.23 322.52 298.68 319.17 295.72 322.8 294.77 315.38 290.55 310.25 294.5 309.01 294.86 302.21" style="fill:#fff"></polygon><polygon points="313.8 332.76 314.68 345.15 321.54 354.72 314.47 355.6 313.12 366.6 307.87 354.76 300.18 351.98 304 343.78 300.6 331.07 308.21 337.84 313.8 332.76" style="fill:#fff"></polygon><path d="M380.14,336.41l-99.65-57.53v87.29l99.65,57.53Zm-96.21,28v-79.6l92.78,53.56v79.36Z" style="fill:#455a64"></path><polygon points="280.49 278.88 280.67 300.7 280.79 322.52 280.9 366.17 280.69 365.82 330.5 394.62 355.34 409.12 380.14 423.7 355.12 409.51 330.14 395.24 280.29 366.51 280.09 366.4 280.09 366.17 280.2 322.52 280.32 300.7 280.49 278.88" style="fill:#263238"></polygon><polygon points="431.69 310.62 431.69 389.98 383.58 417.75 383.58 338.39 431.69 310.62" style="fill:#2C9456"></polygon><polygon points="431.69 310.62 431.69 389.98 383.58 417.75 383.58 338.39 431.69 310.62" style="opacity:0.15"></polygon><path d="M435.12,304.67l-55,31.74V423.7l55-31.74ZM431.69,390l-48.11,27.78V338.39l48.11-27.77Z" style="fill:#37474f"></path><path d="M380.14,423.7l13.66-8.09,13.69-8,13.7-8,13.73-8-.2.35c-.05-14.55,0-29.1,0-43.65l.13-21.82.23-21.82.23,21.82.13,21.82c0,14.55.1,29.1,0,43.65v.23l-.2.11-13.76,7.91-13.78,7.87L394,415.91Z" style="fill:#263238"></path><polygon points="407.63 332.2 390.45 374.1 407.63 395.93 424.92 354.33 407.63 332.2" style="fill:#2C9456"></polygon><polygon points="407.63 332.2 390.45 374.1 407.63 395.93 424.92 354.33 407.63 332.2" style="fill:#fff;opacity:0.5"></polygon><polygon points="428.25 304.67 380.15 332.45 287.37 278.87 335.47 251.1 428.25 304.67" style="fill:#2C9456"></polygon><polygon points="428.25 304.67 380.15 332.45 287.37 278.87 335.47 251.1 428.25 304.67" style="opacity:0.25"></polygon><g style="opacity:0.30000000000000004"><polygon points="368.12 321.53 402.48 317.56 409.35 297.72 374.9 301.64 368.12 321.53" style="fill:#2C9456"></polygon><polygon points="337.19 303.67 371.55 299.71 378.42 279.87 343.98 283.79 337.19 303.67" style="fill:#2C9456"></polygon><polygon points="306.26 285.82 340.63 281.85 347.5 262.01 313.05 265.93 306.26 285.82" style="fill:#2C9456"></polygon></g><g style="opacity:0.1"><polygon points="368.12 321.53 402.48 317.56 409.35 297.72 374.9 301.64 368.12 321.53" style="fill:#fff"></polygon><polygon points="337.19 303.67 371.55 299.71 378.42 279.87 343.98 283.79 337.19 303.67" style="fill:#fff"></polygon><polygon points="306.26 285.82 340.63 281.85 347.5 262.01 313.05 265.93 306.26 285.82" style="fill:#fff"></polygon></g><path d="M335.47,247.13l-55,31.75,99.65,57.53,55-31.74Zm-48.1,31.75,48.1-27.78,92.78,53.57-48.11,27.77Z" style="fill:#263238"></path><path d="M341.9,350.1C348,353.64,353,362.24,353,369.31s-5,9.94-11.09,6.4-11.09-12.13-11.09-19.2S335.78,346.57,341.9,350.1Z" style="fill:#455a64"></path><polygon points="314.86 203.49 314.86 294.75 222.08 241.18 222.08 149.92 314.86 203.49" style="fill:#2C9456"></polygon><polygon points="314.86 203.49 314.86 294.75 222.08 241.18 222.08 149.92 314.86 203.49" style="fill:#fff;opacity:0.55"></polygon><path d="M305.54,249.66c-1.87,6.27-6.56,9.41-12.69,7.46-9.09-2.88-17.9-15.88-19.68-29s4.17-21.47,13.26-18.58a18.24,18.24,0,0,1,5.46,2.94c-5.46.05-8.73,6.09-7.54,14.92,1.38,10.23,8.24,20.36,15.32,22.61A7.39,7.39,0,0,0,305.54,249.66Z" style="fill:#fff"></path><path d="M318.29,201.51,218.64,144v99.2l99.65,57.53Zm-96.21,39.67V149.92l92.78,53.57v91.26Z" style="fill:#455a64"></path><path d="M218.64,144q.21,24.79.31,49.6l.1,49.6-.2-.36,49.79,28.83,24.85,14.49,24.8,14.57-25-14.2-25-14.27-49.86-28.71-.21-.12v-.23l.11-49.6Q218.41,168.77,218.64,144Z" style="fill:#263238"></path><polygon points="369.83 175.71 369.83 266.97 321.73 294.75 321.73 203.49 369.83 175.71" style="fill:#2C9456"></polygon><polygon points="369.83 175.71 369.83 266.97 321.73 294.75 321.73 203.49 369.83 175.71" style="opacity:0.35000000000000003"></polygon><path d="M373.27,169.76l-55,31.75V300.7l55-31.74ZM369.83,267l-48.1,27.78V203.49l48.1-27.78Z" style="fill:#263238"></path><polygon points="345.78 205.23 328.6 247.13 345.78 268.96 363.07 227.36 345.78 205.23" style="fill:#2C9456"></polygon><polygon points="345.78 205.23 328.6 247.13 345.78 268.96 363.07 227.36 345.78 205.23" style="fill:#fff;opacity:0.30000000000000004"></polygon><polygon points="366.4 169.77 318.29 197.54 225.51 143.97 273.62 116.2 366.4 169.77" style="fill:#2C9456"></polygon><path d="M273.62,112.23l-55,31.74,99.65,57.54,55-31.75ZM225.51,144l48.11-27.77,92.78,53.56-48.11,27.78Z" style="fill:#37474f"></path><polygon points="306.01 186.48 340.37 182.51 347.24 162.67 312.8 166.59 306.01 186.48" style="fill:#fff;opacity:0.30000000000000004"></polygon><polygon points="275.08 168.62 309.44 164.66 316.32 144.82 281.87 148.74 275.08 168.62" style="fill:#fff;opacity:0.30000000000000004"></polygon><polygon points="244.16 150.77 278.52 146.8 285.39 126.96 250.95 130.88 244.16 150.77" style="fill:#fff;opacity:0.30000000000000004"></polygon><path d="M251.82,195.16c6.36,3.67,11.51,12.6,11.51,20s-5.16,10.32-11.51,6.65-11.52-12.6-11.52-19.95S245.46,191.49,251.82,195.16Z" style="fill:#455a64"></path><polygon points="376.7 151.91 376.7 231.26 283.93 177.7 283.93 98.34 376.7 151.91" style="fill:#2C9456"></polygon><polygon points="376.7 151.91 376.7 231.26 283.93 177.7 283.93 98.34 376.7 151.91" style="fill:#fff;opacity:0.55"></polygon><path d="M380.14,149.92,280.49,92.39v87.29l99.65,57.54ZM283.93,177.7V98.34l92.78,53.57v79.35Z" style="fill:#455a64"></path><polygon points="431.69 124.14 431.69 203.49 383.58 231.26 383.58 151.91 431.69 124.14" style="fill:#2C9456"></polygon><polygon points="431.69 124.14 431.69 203.49 383.58 231.26 383.58 151.91 431.69 124.14" style="opacity:0.15"></polygon><path d="M435.12,118.18l-55,31.74v87.3l55-31.75Zm-3.43,85.31-48.11,27.77V151.91l48.1-27.78Z" style="fill:#263238"></path><polygon points="407.63 145.72 390.45 187.62 407.63 209.44 424.92 167.84 407.63 145.72" style="fill:#2C9456"></polygon><polygon points="407.63 145.72 390.45 187.62 407.63 209.44 424.92 167.84 407.63 145.72" style="fill:#fff;opacity:0.5"></polygon><polygon points="428.25 118.18 380.15 145.95 287.37 92.39 335.47 64.62 428.25 118.18" style="fill:#2C9456"></polygon><path d="M335.47,60.65l-55,31.74,99.65,57.53,55-31.74Zm-48.1,31.74,48.1-27.77,92.78,53.56L380.14,146Z" style="fill:#37474f"></path><polygon points="368.12 135.04 402.48 131.08 409.35 111.24 374.9 115.16 368.12 135.04" style="fill:#fff;opacity:0.30000000000000004"></polygon><polygon points="337.19 117.19 371.55 113.22 378.42 93.38 343.98 97.3 337.19 117.19" style="fill:#fff;opacity:0.30000000000000004"></polygon><polygon points="306.26 99.33 340.63 95.37 347.5 75.53 313.05 79.45 306.26 99.33" style="fill:#fff;opacity:0.30000000000000004"></polygon><path d="M280.49,179.68c3.24,1.67,6.43,3.42,9.62,5.18s6.33,3.58,9.49,5.37,6.29,3.66,9.4,5.54,6.23,3.76,9.29,5.74c-3.24-1.67-6.43-3.42-9.61-5.18s-6.33-3.58-9.5-5.37-6.28-3.66-9.4-5.54S283.56,181.65,280.49,179.68Z" style="fill:#263238"></path><path d="M356.24,172.13c6.36,3.67,11.52,12.6,11.52,20s-5.16,10.32-11.52,6.65-11.51-12.61-11.51-19.95S349.88,168.46,356.24,172.13Z" style="fill:#455a64"></path><path d="M315.51,127.59c11.75,6.79,21.27,23.28,21.27,36.85s-9.52,19.06-21.27,12.28-21.27-23.28-21.27-36.85S303.76,120.81,315.51,127.59Z" style="fill:#455a64"></path></g><g id="freepik--Character--inject-763"><path d="M351,360.8c-1.12,3.44-3.4,6.81-3.43,10.21.78,3.23.73,3.32-.37,6.36-6.47,15.71-2.83,28.9-25.19,23.33-2.72-.71-.4-3.73.91-5.19a34.78,34.78,0,0,0,3.62-5.17c.1-.15.17-.3.27-.44h0a45.42,45.42,0,0,0,2.3-4.35h0a27.43,27.43,0,0,0,1.88-5h0c.35-1.34.68-2.7,1-4.15.67-3,1.19-6.28,1.71-9.61.83-5.6,1.65-11.4,2.36-17.17h0l.12-1C342.76,348.23,348.41,355.16,351,360.8Z" style="fill:#c8856a"></path><path d="M350.22,359.25c-.14-.19-.29-.37-.43-.55a30.9,30.9,0,0,0-2.18-2.53l.68,0c-.18-.25-.37-.5-.56-.74-.28,0-.56,0-.83.05-.46-.45-.92-.89-1.4-1.32a34.9,34.9,0,0,0-3.12-2.44l1.31-.38c-.25-.19-.5-.37-.76-.54-.47.1-.95.22-1.42.36-.25-.16-.51-.34-.77-.48a9.77,9.77,0,0,0-4.61-1.59c0,.11,0,.23,0,.35a.43.43,0,0,0,0,.11.31.31,0,0,0,0,.1h0a17.13,17.13,0,0,1,4.43,1.83,26.23,26.23,0,0,0-3.39,1.39c-.54.26-1,.57-1.56.87-.05.37-.1.72-.15,1.07a1.4,1.4,0,0,1,.17-.09c1.18.71,2.42,1.33,3.58,2.11l.13.08-.36.11a26.94,26.94,0,0,0-4.05,1.73c-.06.47-.12.91-.19,1.36l0,0c1.3.88,2.59,1.76,3.88,2.67A30.11,30.11,0,0,0,334,365.1c-.08.52-.16,1-.22,1.47.23-.15.47-.33.72-.48a18.14,18.14,0,0,1,3.1,1.92c-.8.38-1.59.8-2.35,1.24s-1.42.86-2.11,1.32c-.07.45-.15.86-.22,1.26.21-.14.4-.29.6-.43,1,.57,2,1.15,3,1.76l-.61.35c-1,.64-2,1.34-3,2.09-.24-.09-.47-.17-.7-.27h0c-.06.25-.1.48-.16.7h0l.22.1a2.67,2.67,0,0,1-.3.26h0c-.11.48-.21.92-.3,1.33.46-.41.93-.82,1.42-1.2.79.4,1.54.83,2.28,1.29a15.81,15.81,0,0,0-4.16,1.77c-.07.27-.13.53-.2.78a.84.84,0,0,1,0,.17h0a10.74,10.74,0,0,1,2.13-1.12,28.72,28.72,0,0,1,3.18-1,24.06,24.06,0,0,1,2.57,2.05c.6.57,1.18,1.16,1.72,1.78a21.65,21.65,0,0,0-3.69-.11,24.83,24.83,0,0,0-3.49.49,16.93,16.93,0,0,0-2.68-1.21h0a1.49,1.49,0,0,1-.07.25.24.24,0,0,0,0,.12l-.05.12h0a20,20,0,0,1,1.94.9,25.32,25.32,0,0,0-2.57.77c-.06.16-.13.34-.21.51a1.23,1.23,0,0,1-.12.26c0,.09-.08.18-.11.27h0c1.41-.41,2.81-.8,4.26-1.09a19.53,19.53,0,0,1,3.57,2.79c.3.31.58.64.87,1a37.61,37.61,0,0,0-4.78.19l-.68.08-.24-.18a13.47,13.47,0,0,0-3.43-1.83h0c-.08.19-.17.37-.27.56h0c.94.53,1.9,1,2.81,1.6a28.83,28.83,0,0,0-4.12.91h0l-.74,1.27h0a45,45,0,0,1,6.12-1.31,21.64,21.64,0,0,1,2.71,2.35c.05,0,.09.11.14.15a36.19,36.19,0,0,0-4.39.47l-.44.09a10.59,10.59,0,0,0-4.14-1.74h0l-.19.33h0a15.21,15.21,0,0,1,3.54,1.57,30.85,30.85,0,0,0-4.86,1.46c-.32.14-.63.29-.95.42-.34.48-.7.93-1,1.36a34,34,0,0,1,8.08-2.42A15,15,0,0,1,332.9,394c.37.4.73.81,1.06,1.24-.39,0-.79.06-1.18.11-.61.07-1.21.17-1.81.3h0a24.08,24.08,0,0,0-7.42,2.83c-.11.06-.17.41,0,.33a33.53,33.53,0,0,1,8.74-2.45h0l.33-.06c.66-.08,1.31-.13,2-.17a19.63,19.63,0,0,1,1.2,1.95,25.27,25.27,0,0,1,1.22,2.58c.13.35.44-.14.34-.38a22.94,22.94,0,0,0-1-2.14l0-.05a19.52,19.52,0,0,0-1.16-2c.71,0,1.43,0,2.15,0,.37,0,.75,0,1.12.07l.61.06.35,0c.13.27.24.58.38.88a5.08,5.08,0,0,0,.4.73h0a5,5,0,0,1,.26-.52,5,5,0,0,0-.26-.7,2,2,0,0,0-.14-.3c.1,0,.21,0,.31.06l.48.08c.12-.31.25-.62.37-1l-.35-.06a11.55,11.55,0,0,0-1.2-.17l-.17,0a4.92,4.92,0,0,0-.24-.45c-.21-.37-.42-.74-.64-1.11s-.69-1-1.05-1.45c.87,0,1.72.13,2.58.24l.65.1.8.13.11.27h0a3.78,3.78,0,0,0,.22.5c.18-.57.36-1.16.55-1.79a3.93,3.93,0,0,1-.44-.1l-.35-.07c-.12-.26-.24-.52-.38-.78h0c-.18-.36-.38-.71-.6-1.06h0c-.25-.39-.5-.77-.77-1.14l.9.12c.29,0,.57.08.86.12l1,.15c.21.05.43.08.65.12.12-.36.22-.69.33-1-.25-.06-.49-.12-.74-.16a6.8,6.8,0,0,0-1-.19,9.28,9.28,0,0,0-.92-.15c-.65-.08-1.31-.15-2-.17a19.93,19.93,0,0,0-1.46-1.58,21.29,21.29,0,0,0-2.91-2.36c.64-.1,1.29-.19,2-.24a19.52,19.52,0,0,1,4.64.24l.29,0c.12.15.25.3.36.45s.25.35.36.52a19.62,19.62,0,0,1,1.05,1.77c.2.36.4.71.59,1.07.11-.33.21-.66.32-1-.19-.41-.41-.83-.63-1.24s-.53-.87-.82-1.3c.35.1.7.21,1,.33a3.37,3.37,0,0,1,.34.1c.2.08.43.19.65.3l.35-1a5.72,5.72,0,0,0-1.09-.42,13.6,13.6,0,0,0-1.67-.42l-.45-.09a.2.2,0,0,0-.1,0c-.16-.19-.31-.38-.47-.56h0c-.65-.74-1.29-1.42-2-2.05a25.22,25.22,0,0,0-2-1.67c.13,0,.27-.06.38-.1a20.07,20.07,0,0,1,4.16-.45c.07.09.15.16.22.24.24.26.48.54.71.81.43.49.83,1,1.21,1.53.17.22.33.46.49.71.29.42.56.85.82,1.29l.1.2c0-.09.06-.18.1-.28a1.52,1.52,0,0,1,.09-.28c0-.08,0-.15.07-.22-.32-.52-.64-1-1-1.54a4.81,4.81,0,0,0-.27-.41q-.69-.94-1.44-1.83l-.15-.19h.2a9.61,9.61,0,0,1,2.12.45,12.74,12.74,0,0,1,1.51.59l.31-.91a7,7,0,0,0-1.58-.64,10.39,10.39,0,0,0-2.1-.39c-.27,0-.54,0-.81,0H342c-.31-.32-.61-.67-.94-1a32.15,32.15,0,0,0-3-2.5l.33-.18c1.08-.57,2.19-1.09,3.32-1.56l.18.18c.74.7,1.45,1.42,2.13,2.17a5.11,5.11,0,0,1,.39.42c.35.38.69.76,1,1.16l.35.43c.35.45.69.93,1,1.4.1.14.2.27.29.41a2.15,2.15,0,0,1,.1-.27,1.24,1.24,0,0,0,0-.16c.06-.14.1-.28.15-.42-.46-.6-1-1.19-1.42-1.75l-.05-.06c-.37-.44-.75-.89-1.14-1.31l-.34-.38c-.66-.72-1.34-1.41-2-2.08a41.3,41.3,0,0,1,4.21-1.36c.32.38.65.76,1,1.15a1.11,1.11,0,0,1,0-.28,3.12,3.12,0,0,1,.08-.87l-.18-.2.22,0,0-.1c0-.12.06-.24.1-.36a.24.24,0,0,1,0-.08l-.78.12a.69.69,0,0,1-.11-.13c-.79-.88-1.62-1.71-2.48-2.54a46.44,46.44,0,0,1,4.62-.89c.12-.29.25-.59.37-.89h-.11l-1.17-1.29c-.6-.66-1.24-1.31-1.9-1.93a4.18,4.18,0,0,0,.41-.09,39,39,0,0,1,4.15-.38.37.37,0,0,1,.06.1c.06-.11.1-.23.15-.34C350.74,360.28,350.49,359.76,350.22,359.25Zm-11.87,35.08c.18.27.32.56.49.84l-1.37-.06a28.11,28.11,0,0,0-2.9.05,16.35,16.35,0,0,0-1.53-1.8,10.64,10.64,0,0,0-.94-.84,29,29,0,0,1,4.65-.32A19.73,19.73,0,0,1,338.35,394.33Zm.82-5.9a13.87,13.87,0,0,1,.91,1.26,7.4,7.4,0,0,1,.5.86c.15.27.29.53.41.8l-.54-.07a26.74,26.74,0,0,0-3.8-.22c-.27-.3-.51-.61-.79-.89a19.94,19.94,0,0,0-1.87-1.69,33.67,33.67,0,0,1,4.71-.09Zm-3-34.12A33.59,33.59,0,0,1,341.4,352a34.06,34.06,0,0,1,4.38,3.39l.13.14h-.12a28.68,28.68,0,0,0-5.66,1.06l-.67-.43A31.48,31.48,0,0,0,336.19,354.31Zm-.94,5.45a25,25,0,0,1,3.91-1.7l1.23-.4c1.19.84,2.36,1.7,3.47,2.65l.62.56a30.93,30.93,0,0,0-5,1.46h0A29.41,29.41,0,0,0,335.25,359.76Zm-.21,6a31.52,31.52,0,0,1,4.49-2.28c1.08.79,2.14,1.62,3.15,2.51a37.06,37.06,0,0,0-4.49,1.76l-.32-.25A20.68,20.68,0,0,0,335,365.72Zm5.7,10.65a4,4,0,0,1,.35.36,21.59,21.59,0,0,0-3.43.52l-1.14.27a22.6,22.6,0,0,0-2.7-1.54c.87-.65,1.76-1.28,2.69-1.86l.77-.45A23.22,23.22,0,0,1,340.74,376.37Zm-3-3.94-.49.26a19,19,0,0,0-3.16-1.71c.52-.33,1.07-.66,1.62-1s1.41-.78,2.13-1.14l.49-.22c.92.71,1.81,1.45,2.67,2.23A32.3,32.3,0,0,0,337.78,372.43Zm8.32-3.09a27.58,27.58,0,0,0-4.36,1.28c-.86-.8-1.77-1.55-2.7-2.27a36.73,36.73,0,0,1,4.48-1.61C344.41,367.57,345.28,368.44,346.1,369.34Zm1.71-5.2c.2.21.37.44.56.65a25.78,25.78,0,0,0-4.82.92c-.19-.18-.37-.36-.56-.52-.81-.72-1.66-1.43-2.52-2.1a33,33,0,0,1,4.89-1.41C346.2,362.47,347,363.28,347.81,364.14Zm-1.72-3.56c-.25,0-.49.09-.74.13-.46-.43-.93-.86-1.41-1.27-.85-.72-1.74-1.4-2.65-2a32.22,32.22,0,0,1,5.39-1.12,33.2,33.2,0,0,1,2.9,3.15c.2.26.39.51.58.78A30,30,0,0,0,346.09,360.58Z" style="opacity:0.2"></path><path d="M346.83,371.41c-2.66,1-5,5.15-5.46,10.46s0,13-5,16.24c1.56.13,4.07.56,5.49-5.81S346.83,371.41,346.83,371.41Z" style="opacity:0.2"></path><path d="M351.34,382.62c-.34,2.42-2.07,3.68-2.84,6.28a47.26,47.26,0,0,0-1.78,9.1c-.38,3.77-.43,4.31-.43,4.31l-1.17-.12s.56-5.44.79-7.83c.3-3.08.44-5.72-1.16-5.14C344.75,389.22,345.69,382.05,351.34,382.62Z" style="fill:#263238"></path><path d="M317,404.41c-.12.77.32,1.95,2.57,2.51a28.17,28.17,0,0,0,12.38-.11c5.69-1.41,7.59-2.92,8.54-4.73a14.16,14.16,0,0,0,1.37-5.69A17.17,17.17,0,0,1,331,403.66,42,42,0,0,1,317,404.41Z" style="fill:#263238"></path><path d="M347.55,371c.59,2.05,2.88,5.08,3.8,7.08a5.78,5.78,0,0,1,.39,3.08,3.77,3.77,0,0,1-1.3,2.6,33.79,33.79,0,0,0-4.08,3.58c-1.34,1.56-3.06,2.84-4.48,9-.73,3.17-.77,5.91-5.38,8.08-2.22,1-5.87,2.52-13.26,2.18-6-.28-7.47-2.23-5.49-4.77,2.7-3.47,3.49-4.15,5.15-6.37,0,0,1.68-1.2,5.81-.59,3.62.54,5.92,3.8,8.12,3,3.38-1.17,5.11-7.1,5.57-15.61C342.92,372.69,347.55,371,347.55,371Z" style="fill:#2C9456"></path><path d="M347,188c2.1,4.47,5.45,8.54,9.24,10.73a14,14,0,0,0,1.94.91l3.07-13.08-7.05-4Z" style="fill:#af6152"></path><path d="M352.26,184.76c1.84-1.63,2.27-3.38,4.94-4.69s4.28-1.15,7.11-2.38,5.09-1.81,7.12-1,1.63,2,0,2.85-4.36,2-6.3,3.24-3.79,1.9-3.94,4.24a105.34,105.34,0,0,0,.13,11.18c.26,4,.84,7.2.52,7.61s-2,.49-2.92-1.77-1.75-10.36-1.75-10.36-1.11,5.51-1.66,9.32-.86,6.72-1,7.53-2.83,0-3.09-2.9.72-10.45.72-10.45-2.13,2.77-3.74,5.21-3.86,5.76-4.5,6.57-2.27-.8-1.72-3.06,3.86-7.71,3.86-7.71-3.79,3.49-4.44,3.82-2.52-.09-1.71-2.58c.54-1.67,1.69-2.68,4.75-5.77s3.11-4.45,4.09-5.89C350,185.87,350.92,185.94,352.26,184.76Z" style="fill:#c8856a"></path><path d="M345.14,205.94c-1,1.65-1.78,3.09-2.39,2.84.39.42.86.53,1.14.17.64-.81,2.89-4.14,4.5-6.57s3.74-5.21,3.74-5.21l.33-2.51s-1.12,1.44-2.69,3.85C348.43,200.57,346.6,203.54,345.14,205.94Z" style="fill:#af6152"></path><path d="M360.49,186.53c-3.85,2-6.64.26-7.19-1.1C353.62,188,357.28,189.45,360.49,186.53Z" style="fill:#af6152"></path><path d="M339.71,200.88a1.29,1.29,0,0,0,1.79,0c.76-.56,2.65-2.43,3.51-3.3s3.81-3.94,3.81-3.94L346,198.18s-3.79,3.49-4.44,3.82A1.39,1.39,0,0,1,339.71,200.88Z" style="fill:#af6152"></path><path d="M263.33,215.11c0,5.18-2.57,8.19-6.32,8.22-3.61-2.69-7.69-5.76-9.18-7s-2.82-2.3-4.31-3.49c-1.67-1.34-3.37-2.67-5-3.8-3.06-2.14-11.18-7-12.66-8.09s-.29-2,1.41-2c2,0,7.81,3.18,7.91,3s-1.35-1.42-2.47-2.23c-1.65-1.18-2.1-1.61-4.33-3.06-1.55-1-4.15-2.64-4.44-3.41-.13-.34.51-1.11.9-1.26,1.61-.65,3.46.56,6.62,2.38,3.46,2,6,3.84,6.11,3.47a36.48,36.48,0,0,0-3.85-3.88c-4.36-4-6.25-5-7.31-6.18s-.41-2.6,1.52-2.13,3.16,1.5,6.81,4.21,6.19,5.34,6.42,5.13-2.85-2.88-5.76-6.1-4.13-4.76-3.78-5.36c.61-1.06,2.24-.85,4.58,1.16,2,1.68,6.94,6.54,9.32,9l1,1.08c1.39,1.4,2.43,1.66,2.9-.62,0,0,0,0,0-.06.44-2.25-.22-3.61,1.63-5.94s4.19-2.58,3.68-.66a25.26,25.26,0,0,0,.05,9.67,2.17,2.17,0,0,1,0,.25c.65,3.6.4,5.83,1.37,8.07.75,1.73,2.34,3.12,6.76,6.35A17.77,17.77,0,0,1,263.33,215.11Z" style="fill:#c8856a"></path><path d="M247.34,197.06c-.68,4,.15,8.81,2.23,11.23C246.33,206,244.47,200.84,247.34,197.06Z" style="fill:#af6152"></path><path d="M234.74,203.7a11.4,11.4,0,0,1,8.4-9.67A15.86,15.86,0,0,0,234.74,203.7Z" style="fill:#af6152"></path><path d="M336.78,164.44c0,4.67-1.13,8.38-3.08,11h0c-.31.54-6.35-12.27-6.35-12.27s-27.57-9.85-29.7-13.19a15.79,15.79,0,0,1-1.36-13.27c1.68-4.15,6.53-7.25,9.84-6.94,0,0,3.69-2.37,10.18-1.65C327.68,135.13,336.78,151.19,336.78,164.44Z" style="fill:#263238"></path><path d="M310.52,165.56a6.16,6.16,0,0,0-5,2.53,38.8,38.8,0,0,0,9.2,8.16,6.18,6.18,0,0,0-4.22-10.69Z" style="fill:#263238"></path><path d="M336,157.45a8.47,8.47,0,0,1-2,4.76,4.91,4.91,0,0,1-6.7.92l6.35,12.27c-3.73,4.93-10.48,5.77-18.19,1.32a33,33,0,0,1-3.8-2.58l-.36-2a16.86,16.86,0,0,1-1.75.23,12,12,0,0,1-6-.85c-3.2-1.43-6.06-4.52-6.06-16.32v-.35a64,64,0,0,1,.41-7.7c.17-1.34.47-2.65.75-4,3.18-9.93,9.16-5.66,10.9-2.31,3.63-3,5.92-3.14,9-2s5.09,3.83,5.32,7.73c0,0,.13,4.27.18,5.17.1,2.18.87,3.17,3.07,3.07,1.89-5.15,5.55-4.43,7.67-1.92l0,0A6.12,6.12,0,0,1,336,157.45Z" style="fill:#c8856a"></path><path d="M332,160.84a1.41,1.41,0,1,1-1.41-1.41A1.41,1.41,0,0,1,332,160.84Z" style="fill:#fafafa"></path><path d="M312.71,152c.12-1.63.72-2.28,2.11-2.27a1.81,1.81,0,0,1,1.6,2.87C315.55,151,314.18,150.46,312.71,152Z" style="fill:#455a64"></path><path d="M316.42,152.58c-.14.89-.67-.51-1.7-.74s-2.17.8-2-.09a1.75,1.75,0,0,1,2.2-1.17A1.7,1.7,0,0,1,316.42,152.58Z" style="fill:#263238"></path><path d="M316.41,151.91c.45.38,1.1.47,1.38,0a1,1,0,0,1-1.53.74Z" style="fill:#263238"></path><path d="M304.31,151.07c0-1.64-.53-2.33-1.92-2.43a1.8,1.8,0,0,0-1.82,2.72C301.56,149.89,303,149.43,304.31,151.07Z" style="fill:#455a64"></path><path d="M300.57,151.36c.06.91.71-.45,1.75-.59s2.1,1,2,.07a1.74,1.74,0,0,0-2.1-1.34A1.69,1.69,0,0,0,300.57,151.36Z" style="fill:#263238"></path><path d="M300.63,150.7c-.47.35-1.13.38-1.37-.11a1,1,0,0,0,1.46.86Z" style="fill:#263238"></path><path d="M313.21,161.36l-5.46,1.44a2.76,2.76,0,0,0,3.39,2.1A3,3,0,0,0,313.21,161.36Z" style="fill:#9a4a4d"></path><path d="M313.1,163.08a2.37,2.37,0,0,0-3.47,1.78,2.67,2.67,0,0,0,1.51,0A2.86,2.86,0,0,0,313.1,163.08Z" style="fill:#f28f8f"></path><path d="M300.09,146.81l3.58-.68a1.75,1.75,0,0,0-2.06-1.48A1.92,1.92,0,0,0,300.09,146.81Z" style="fill:#263238"></path><path d="M313.52,147.3l3.38,1.36a1.75,1.75,0,0,0-.94-2.36A1.91,1.91,0,0,0,313.52,147.3Z" style="fill:#263238"></path><polygon points="308.26 149 307.27 159.43 302.44 157.86 308.26 149" style="fill:#af6152"></polygon><path d="M311.34,172.11c9.71-1.68,11.89-4.28,13.35-7.26,0,0-.27,4.31-3.81,6.38-3.71,2.16-9.18,2.82-9.18,2.82Z" style="fill:#af6152"></path><path d="M327.35,163.13a24.79,24.79,0,0,1-1.07,3.49c-1.37,3.15-4.91,6.5-5.71,8.8-1.75,5.06.13,9.75,2.57,11.32-1.58-3.42-1.81-8.89,1.49-12.31,0,.51,0,1,.06,1.6a13.26,13.26,0,0,0,.75,3.59c6-.19,10.29-4.59,11.17-12.19C333.15,167.26,329.36,166.27,327.35,163.13Z" style="fill:#263238"></path></g></g><g id="freepik--character--inject-763"><g id="freepik--Chartacter--inject-763"><g id="freepik--Bottom--inject-763"><polygon points="122.21 380.25 126.9 378.63 125.46 375.44 122.53 378.03 122.21 380.25"></polygon><path d="M117.62,371.74s-.27,3-.33,4,3.92,4,4.92,4.53l.32-2.22a17.27,17.27,0,0,1,2.24,3.67c.74,1.38,1.68,4,3.78,5.79,3.13,2.69,8.07,4.14,13.15,4.45s8-.85,9.48-1.92a3.36,3.36,0,0,0,1.64-3.64C152.49,385.08,117.62,371.74,117.62,371.74Z" style="fill:#263238"></path><path d="M131.47,361.76l.11-1.75c.93,0,1,2.54,2.29,4.81a45.15,45.15,0,0,0,6.91,9.32c5,4.83,9.55,7.9,11.79,10.07,3,2.9-2.52,7.26-10.8,6.58-4.1-.34-11.36-2.6-13.35-5.08s-3.15-6.31-4.75-8.12-5.08-3.68-6-5.85c-.53-1.19-.17-3.93.23-6.26.37-2.14.51-5.42,1.72-5.12l.05,1.1c.47,1,1.58,2.53,4.88,3.18C126.15,365,131.09,365.23,131.47,361.76Z" style="fill:#37474f"></path><path d="M127.16,364.79c1.59-.09,3.31-.57,4-2,0,0,0,0,0-.05a4,4,0,0,0,1,3.41c1.43,1.77,10.48,14.24,10.48,14.24s-8.45-10.31-10.07-12.26c-2.4-2.87-3.18-3.22-5.44-3.35Z" style="opacity:0.15"></path><path d="M129.15,368.09a.52.52,0,0,1-.58.43.51.51,0,0,1-.43-.57.5.5,0,0,1,.57-.43A.51.51,0,0,1,129.15,368.09Z" style="opacity:0.15"></path><path d="M131.52,370.85a.5.5,0,1,1-.43-.57A.51.51,0,0,1,131.52,370.85Z" style="opacity:0.15"></path><path d="M133.9,373.62a.51.51,0,1,1-1-.14.51.51,0,0,1,.57-.43A.51.51,0,0,1,133.9,373.62Z" style="opacity:0.15"></path><path d="M136.27,376.39a.49.49,0,0,1-.57.43.5.5,0,1,1,.57-.43Z" style="opacity:0.15"></path><path d="M138.65,379.16a.51.51,0,0,1-.57.43.5.5,0,1,1,.14-1A.5.5,0,0,1,138.65,379.16Z" style="opacity:0.15"></path><path d="M128.62,368.22a.22.22,0,0,1-.13-.06.21.21,0,0,1,0-.29,8.35,8.35,0,0,1,5.79-2.12h0a.2.2,0,0,1,.18.22.21.21,0,0,1-.22.19,8,8,0,0,0-5.48,2A.18.18,0,0,1,128.62,368.22Z" style="fill:#263238"></path><path d="M131,371a.31.31,0,0,1-.13-.06.2.2,0,0,1,0-.29,8.35,8.35,0,0,1,5.79-2.12h0a.2.2,0,1,1,0,.4,8,8,0,0,0-5.48,2A.24.24,0,0,1,131,371Z" style="fill:#263238"></path><path d="M133.37,373.76a.21.21,0,0,1-.12-.07.2.2,0,0,1,0-.29,8.39,8.39,0,0,1,5.79-2.12h0a.21.21,0,0,1,.18.23.2.2,0,0,1-.22.18,8.13,8.13,0,0,0-5.48,2A.23.23,0,0,1,133.37,373.76Z" style="fill:#263238"></path><path d="M135.75,376.52a.18.18,0,0,1-.13-.06.21.21,0,0,1,0-.29,8.35,8.35,0,0,1,5.79-2.12h0a.2.2,0,0,1,.18.22.21.21,0,0,1-.22.19,8.11,8.11,0,0,0-5.48,2A.19.19,0,0,1,135.75,376.52Z" style="fill:#263238"></path><path d="M138.13,379.29a.2.2,0,0,1-.13-.06.2.2,0,0,1,0-.29,8.29,8.29,0,0,1,5.79-2.12h0a.21.21,0,0,1,0,.41,8,8,0,0,0-5.47,2A.2.2,0,0,1,138.13,379.29Z" style="fill:#263238"></path><path d="M76.49,393.68c-.83,4-1.86,6.54-3.63,8.68s-4.52,2.34-7.19,1.38a10.45,10.45,0,0,1-6.7-7.32c-.61-2.79.25-5.93,1.43-9.56Z" style="fill:#263238"></path><path d="M69.42,362.72c-1.13-.08-2.27,5.26-3.73,10.55-1.56,5.68-3.82,8.65-5,12.46-1.61,5.28-1.6,7.77-.19,11.33s8.25,8.06,12.27,3.87c3.27-3.42,4-7.64,4.59-13.08A136.07,136.07,0,0,1,79.2,374c.83-4,1.7-7.91.79-8.51-.16.59-.35,1.33-.52,1.91s-.57,2.62-1.2,2.54a8.06,8.06,0,0,1,.22-1.53,1.84,1.84,0,0,0-.11-1.35,2.07,2.07,0,0,0-1.16-.74,30.78,30.78,0,0,0-3.26-1,15.86,15.86,0,0,0-1.67-.32,8.6,8.6,0,0,0-2.06-.29,1,1,0,0,0-.69.45,1.88,1.88,0,0,0-.15.61,4.41,4.41,0,0,1-.31,1.09c-.07.16-.21.34-.36.27s-.15-.22-.13-.35c.09-.65.24-1.12.39-1.87.07-.35.2-.82.25-1.17S69.35,363.06,69.42,362.72Z" style="fill:#37474f"></path><path d="M64.62,387.69a.39.39,0,0,0,.29.48.4.4,0,0,0,.48-.29.41.41,0,0,0-.29-.48A.4.4,0,0,0,64.62,387.69Z" style="opacity:0.15"></path><path d="M65.56,384a.39.39,0,0,0,.28.48.41.41,0,0,0,.49-.29.4.4,0,0,0-.29-.48A.39.39,0,0,0,65.56,384Z" style="opacity:0.15"></path><path d="M66.44,380.53a.4.4,0,0,0,.29.48.39.39,0,0,0,.48-.28.4.4,0,0,0-.77-.2Z" style="opacity:0.15"></path><path d="M67.31,377.11a.41.41,0,0,0,.29.48.39.39,0,0,0,.48-.29.39.39,0,0,0-.28-.48A.41.41,0,0,0,67.31,377.11Z" style="opacity:0.15"></path><path d="M75.21,379a.41.41,0,0,0,.29.49.4.4,0,1,0,.19-.77A.39.39,0,0,0,75.21,379Z" style="opacity:0.15"></path><path d="M74.33,382.41a.41.41,0,0,0,.29.49.4.4,0,0,0,.48-.29.4.4,0,0,0-.77-.2Z" style="opacity:0.15"></path><path d="M73.45,385.89a.39.39,0,0,0,.28.48.4.4,0,1,0-.28-.48Z" style="opacity:0.15"></path><path d="M72.51,389.57a.4.4,0,1,0,.48-.28A.39.39,0,0,0,72.51,389.57Z" style="opacity:0.15"></path><polygon points="68.95 390.84 75.88 365.21 74.44 364.96 68.95 390.84" style="opacity:0.15"></polygon><path d="M65,388H65a14.3,14.3,0,0,1,7.77,1.82.21.21,0,0,0,.28-.05.2.2,0,0,0-.06-.28,14.48,14.48,0,0,0-8-1.89.2.2,0,0,0,0,.39Z" style="fill:#263238"></path><path d="M65.89,384.3H66c2.12-.64,5.89.56,7.72,1.83a.2.2,0,0,0,.28-.05.19.19,0,0,0,0-.28c-1.91-1.32-5.84-2.56-8.07-1.89a.21.21,0,0,0-.13.25A.22.22,0,0,0,65.89,384.3Z" style="fill:#263238"></path><path d="M66.78,380.83h.1c2.12-.63,5.9.57,7.73,1.83a.2.2,0,0,0,.28,0,.21.21,0,0,0,0-.28c-1.91-1.32-5.84-2.56-8.07-1.88a.2.2,0,0,0-.14.25A.23.23,0,0,0,66.78,380.83Z" style="fill:#263238"></path><path d="M67.65,377.4a.2.2,0,0,0,.11,0c2.11-.64,5.89.57,7.72,1.83a.2.2,0,1,0,.23-.33c-1.91-1.32-5.84-2.56-8.07-1.89a.19.19,0,0,0-.13.25A.2.2,0,0,0,67.65,377.4Z" style="fill:#263238"></path><path d="M85.06,227.09C81.22,262,75.88,305,75.88,305c-.33,2.66-3.47,10.47-5.11,21.33-2.07,13.75-4.43,44.35-4.43,44.35A15.12,15.12,0,0,0,80,373.31s14.49-39.41,18.56-55.4c3.58-14.07,12.43-42,12.43-42L114.14,305s-.85,10-.77,16.95c.1,8.13,4.66,41.15,4.66,41.15a12.33,12.33,0,0,0,15.4.35s3.1-50.07,3.63-59.83c1-19.14,2-52.73,2.09-77.48C139.15,226.12,86,227.41,85.06,227.09Z" style="fill:#263238"></path><path d="M111,275.93l3.18-24.84s9.22.45,14.22-3.77c0,0-2.1,5.8-11.49,6.2l-3.62,22.54.88,28.92Z"></path></g><g id="freepik--Top--inject-763"><path d="M169.87,179.75c6.82-8.07,8.79-10.32,9.19-12.77s-.44-4.59-.66-8.38a25.39,25.39,0,0,0-2.3-9.34c-1-1.73,1.33-2.08,3.71-.26s2,3.3,3,5.39,2,1.58,3-.11,5.69-10.11,7.46-12.62,3.46-2.45,4.31-1.58c.48.49-.4,2-2.43,5.8s-4.34,7.15-4.06,7.3,2.42-3.43,5-7c2.36-3.29,3.79-5,5.51-5.23,2-.3,2.42,1.12,2,1.68a88.16,88.16,0,0,0-5.56,7.75,35.11,35.11,0,0,0-2.76,4.68c.23.32,2.14-2.26,5-5,2.6-2.53,4.16-3.73,6.14-3.23.4.1,1,.52,1,.87-.1.82-2.29,2.67-3.54,4-1.81,1.94-2,2-3.32,3.58-.89,1.05-2,2.44-1.87,2.63s4.91-3.78,6.82-4.23c1.65-.39,3,.23,1.86,1.61s-7.82,8.08-10.26,10.89-5,6.35-7.21,9.29-12.15,15-12.15,15Z" style="fill:#b16668"></path><path d="M185.37,158c2.22,2.26,1.52,6.9.1,9.74C188.05,164.72,189.06,160.92,185.37,158Z" style="fill:#9a4a4d"></path><path d="M133.73,180.89,128.18,153c7.78.68,11.18,2.43,17.19,9.9,3.36,4.17,10.91,13.23,17.95,21.45l14.43-15.16s7.06,4.11,9.39,10.38c0,0-15.67,22.21-19.63,25.88-3.61,3.36-6.39,5.43-12.95-.15S135.57,183.24,133.73,180.89Z" style="fill:#263238"></path><path d="M163.32,184.34c-3.21,2.94-6.07,8.07-6.1,11.8-.57-5.79,1.19-9.9,4.76-13.36Z"></path><path d="M80.83,160.07s-2.27,1.85.42,15.24c2.1,10.5,4.51,23.84,4.68,28.42.27,7-.11,28.5-.11,28.5,16.2,8.23,47.68,6.05,53.53-5.3,0,0-1.39-45.07-3.29-57.05-1.45-9.16-4.55-14.23-7.88-16.89l-9.61-1.64-15.4-.58Z" style="fill:#263238"></path><path d="M97.19,153.26s12.72,23.86,23.7,37.1c4.51-15.12-.47-33.75-2.32-39,0,0,6.09.8,9.61,1.64,5.14,4,9,4.28,10.1,42.12.14,4.82.55,11.55.75,15,.72,12.86,1.54,19.65,1.54,19.65-1.75,6-4.11,8.86-11.07,11.83l-6.59-8.2-6.19,11.43c-11.73,1.52-27.87-2.79-33.35-12l2.15-29.13L77.17,162l7.17-3.36Z" style="fill:#2C9456"></path><path d="M90.12,217.39l-.8,2.92c6.94,4.74,12.58,5.67,20.17,6l.31-2.91C102.21,223.07,97.06,222.13,90.12,217.39Z" style="opacity:0.25"></path><path d="M139.46,217a28.35,28.35,0,0,1-8.62,4.17l.5,2.88a28,28,0,0,0,8.36-3.69C139.62,219.33,139.54,218.2,139.46,217Z" style="opacity:0.25"></path><path d="M120.89,190.36c-.39,1.79-1.18,3.48-1.3,5.28a27.19,27.19,0,0,0,.18,5.4c.31,3.64.54,7.28.82,10.93s.43,7.29.59,10.94l.22,5.47a9.92,9.92,0,0,0,.25,2.68,6.15,6.15,0,0,0,1.26,2.38,5.84,5.84,0,0,1-1.51-2.3,11.24,11.24,0,0,1-.47-2.73l-.49-5.46c-.31-3.64-.54-7.28-.81-10.92s-.43-7.28-.59-10.93a27.66,27.66,0,0,1,.08-5.53A31.63,31.63,0,0,1,120.89,190.36Z" style="opacity:0.25"></path><g id="freepik--Head--inject-763"><path d="M96.07,111.12a6.21,6.21,0,0,0-4.49,4.46c-1,2.92.24,8.16,1.79,14.47s2.52,9,3.43,10.74A4.85,4.85,0,0,0,99.59,143l-.18-7.48-.27-5.21s3.35-4.57,3.72-8.31c.48-4.82-.53-6.79-.53-6.79Z" style="fill:#263238"></path><path d="M96.07,111.12c.74-4.2,6.54-9.38,15-8.83s12.65,2.89,15.58,7.8.9,8.59.9,8.59l-25.31-.16Z" style="fill:#263238"></path><path d="M93,137.61c2.77,1.78,5.24-1.06,5.24-1.06L99.33,152s-.27,3,4.47,5.6c6.71,3.71,11.15,10.62,14,14.59,2.18-6.65,2.4-16.49-1.89-21.53l-.1-3.52a29.22,29.22,0,0,0,5.42,0c3.43-.53,5.59-3.26,6.62-7,1.65-6,1.34-16.39-1.75-27-4.54-3.45-15.73-3-23.81,2.13.39,6.83-1.51,9.86-1.5,12.34a6.41,6.41,0,0,1-1.48,1.92c-1.26,1.09-2.28-1.73-3.33-2.83s-4.5-2.6-6.22,1S90.59,136.08,93,137.61Z" style="fill:#b16668"></path><path d="M111.52,120.93,108,123.1a2.16,2.16,0,0,1,.69-2.92A2,2,0,0,1,111.52,120.93Z" style="fill:#263238"></path><path d="M125.63,121l-4-1.17a2,2,0,0,1,2.51-1.45A2.18,2.18,0,0,1,125.63,121Z" style="fill:#263238"></path><path d="M109.74,125.16a1.68,1.68,0,1,0,1.62-1.74A1.68,1.68,0,0,0,109.74,125.16Z" style="fill:#263238"></path><path d="M121.58,124.33a1.68,1.68,0,1,0,1.62-1.74A1.53,1.53,0,0,0,121.58,124.33Z" style="fill:#263238"></path><polygon points="116.14 122.01 117.51 132.72 123.17 130.64 116.14 122.01" style="fill:#9a4a4d"></polygon><path d="M100.72,126.7c.71,7.3,3.26,7.69,5.88,8,3.48.4,5.09-1.55,11.25-1.86,3.74-.18,5,.87,7.14,1.64,1.6.57,3.23.4,3.4-1.13a52.9,52.9,0,0,0,0-9.5,69.14,69.14,0,0,1,.75,13.29c-.34,3.47-1.09,6.74-2.92,8.45-2.52,2.36-8.06,3-15,1.79s-9.64-3.34-10.59-5.73c-3.08-7.77-2.21-11.56-3.18-13S100.72,126.7,100.72,126.7Z" style="fill:#263238"></path><path d="M117.12,135.06c-3.52.11-4.64.8-4.69,3.22-.07,3.46.16,4.62,1.48,4.73,1.57.13,2.71.17,2.72-.81a3.92,3.92,0,0,0-.34-2.2c-.58-.63-.39-.74,1.16-.78s1.54.23,1.1.73-.23,1.55-.19,2.23.22,1,2.43.7c1.93-.28,1.52-1.82,1.34-4.78C122,136.1,121.11,135,117.12,135.06Z" style="fill:#b16668"></path><path d="M114.87,136.06l4.72.41a2.33,2.33,0,0,1-2.51,2.23A2.49,2.49,0,0,1,114.87,136.06Z" style="fill:#9a4a4d"></path><path d="M115.52,136.74a2.7,2.7,0,0,0-.57.08,2.46,2.46,0,0,0,2.13,1.88,2.4,2.4,0,0,0,.76-.07A2.17,2.17,0,0,0,115.52,136.74Z" style="fill:#f28f8f"></path><path d="M117.83,172.16c-1.45-1.65-8.11-7.18-10.16-6.15s-2.91,3.31-3.28,3.73c-1.31,1.52-5.35-5-7.52-8.43a45.29,45.29,0,0,1-3.13-6.63,12.08,12.08,0,0,0,2.89-2.9c1.07-1.63,1.21-3.19,2.44-3.33l.26,3.52s.85,1.73,4.43,4S115.1,166.77,117.83,172.16Z" style="fill:#37474f"></path><path d="M117.83,172.16c1.9-4.19,3.5-8.85,5.41-8.38s3.7,3.37,3.71,2.35-4.23-9.62-5.64-11.77c-2-3-4.17-5.87-5.44-6l.1,3.17a20.12,20.12,0,0,1,2.41,7.6A54.69,54.69,0,0,1,117.83,172.16Z" style="fill:#37474f"></path></g><path d="M84.34,158.61c-9.16,3.27-14.22,5.61-16.76,12.54s-6.4,23.81-8.46,34c-1.76,8.74-2.38,16.59-.11,20.26l18.07-8.53,7.6-27.63S91.07,167.14,84.34,158.61Z" style="fill:#263238"></path><path d="M78.2,203.54c-1.46,2.22-3.22,3.15-7,5.14-3.57,1.86-7.73,3.65-9.76,7.7.48-3.69,2.41-5.58,6.85-8.32s11-6,11-6Z"></path><path d="M78.2,203.54c-1.46,2.22-3.22,3.15-7,5.14-3.57,1.86-7.73,3.65-9.76,7.7-1.79,3.57-3.77,6.56-2.38,9,1,1.71,6.09,2.59,10.91,2.07s7.92-4.66,12.64-8.32c4-3.14,6.15-5.12,6.15-5.12Z" style="fill:#263238"></path><path d="M84.81,206.59c-1.87-1.54-2.34-3.25-5-4.44s-4.24-1-7.06-2.11-5.06-1.6-7-.75-1.53,2,.08,2.8,4.35,1.82,6.3,3,3.79,1.74,4,4a106,106,0,0,1,.24,11c-.13,3.9-.59,7.1-.26,7.49s2,.41,2.81-1.84,1.37-10.23,1.37-10.23,1.27,5.38,1.94,9.1,1.06,6.58,1.25,7.37,2.78-.08,2.94-2.95-1.21-11.21-1.21-11.21l4.24,5.94c1.66,2.34,3.74,5.55,4.4,6.32s2.2-.86,1.58-3.07-4-7.44-4-7.44,3.84,3.31,4.49,3.61,2.47-.17,1.59-2.59c-.58-1.62-1.74-2.58-4.85-5.51s-3.21-4.27-4.22-5.65C87.05,207.6,86.16,207.71,84.81,206.59Z" style="fill:#b16668"></path><path d="M78,208.56c2.9,1,5.51-.55,5.82-1.28C83.81,209.22,80.09,210.71,78,208.56Z" style="fill:#9a4a4d"></path><path d="M97.67,222a1.29,1.29,0,0,1-1.77,0,46.4,46.4,0,0,1-3.55-3.12c-.87-.82-3.87-3.74-3.87-3.74l2.89,4.37s3.84,3.31,4.49,3.61A1.37,1.37,0,0,0,97.67,222Z" style="fill:#9a4a4d"></path></g></g></g><g id="freepik--Hat--inject-763"><g id="freepik--hat--inject-763"><path d="M191.19,463.67c12.19,7,32.12,6.94,44.5-.21s12.54-18.65.35-25.68-32.12-6.94-44.5.21S179,456.64,191.19,463.67Z" style="fill:#e0e0e0"></path><path d="M227.3,438.7c-7.44-4.29-19.6-4.24-27.15.13-3.82,2.2-5.71,5.07-5.71,7.93,0,.49,0,2.39,0,2.86,0,2.83,1.8,5.64,5.5,7.78,7.44,4.29,19.6,4.23,27.16-.13,3.82-2.21,5.72-5.1,5.7-8,0-.48,0-2.43,0-2.93C232.78,443.58,231,440.81,227.3,438.7Z" style="fill:#263238"></path><path d="M199.93,454.49c7.44,4.3,19.6,4.24,27.16-.13s7.64-11.37.21-15.66-19.6-4.24-27.15.13S192.5,450.2,199.93,454.49Z" style="fill:#37474f"></path><path d="M215.87,447a1.07,1.07,0,0,1-.63.94,3.52,3.52,0,0,1-3.16,0,1.23,1.23,0,0,1-.72-.93h0V378.2l4.45.06Z" style="fill:#37474f"></path><path d="M213.36,448.32a3.09,3.09,0,0,1-1.28-.37,1.23,1.23,0,0,1-.72-.93h0V378.2l2,0Z" style="fill:#263238"></path><path d="M215.18,379.15a3.49,3.49,0,0,1-3.16,0c-.87-.51-.89-1.32,0-1.82a3.46,3.46,0,0,1,3.15,0C216,377.84,216,378.66,215.18,379.15Z" style="fill:#263238"></path><g id="freepik--hat--inject-763"><path d="M189,387.14c-13.48-7.79-13.48-20.41,0-28.19s35.34-7.79,48.83,0,13.48,20.4,0,28.19S202.5,394.92,189,387.14Z" style="fill:#263238"></path><path d="M189,386c-13.48-7.78-13.48-20.4,0-28.19s35.34-7.78,48.83,0,13.48,20.41,0,28.19S202.5,393.75,189,386Z" style="fill:#37474f"></path><path d="M189,357.77a47.7,47.7,0,0,1,20.8-5.89,56.23,56.23,0,0,1,21.54,2.71,35.8,35.8,0,0,1,9.66,5.06,18,18,0,0,1,6.53,8.62,12.87,12.87,0,0,1,.4,5.45c-.08.45-.22.89-.32,1.34l-.17.66-.27.63-.54,1.27-.72,1.17a22.47,22.47,0,0,1-8.08,7.17,22.35,22.35,0,0,0,7.87-7.31l.7-1.15.52-1.24.26-.63.16-.65c.1-.43.22-.87.31-1.31a12.35,12.35,0,0,0-.44-5.3,17.66,17.66,0,0,0-6.46-8.39,35.48,35.48,0,0,0-9.58-4.92,57,57,0,0,0-32.06-1.19A41.67,41.67,0,0,0,189,357.77Z" style="fill:#263238"></path><path d="M237.27,368.65l3.1-37.37H186.49l3.1,37.38h0l0,.55h0c.24,3.33,2.53,6.63,6.94,9.17,9.31,5.38,24.4,5.38,33.71,0,4.41-2.54,6.7-5.84,6.94-9.17h0l0-.51Z" style="fill:#263238"></path><path d="M194.35,341.31c-10.55-6.09-10.54-16,0-22s27.63-6.09,38.17,0,10.54,16,0,22S204.89,347.39,194.35,341.31Z" style="fill:#37474f"></path><path d="M230.83,369.2c-9.61,5.37-25.18,5.37-34.79,0-4.55-2.55-6.91-5.84-7.16-9.17l.76,9.19c.24,3.33,2.53,6.63,6.94,9.17,9.31,5.38,24.4,5.38,33.71,0,4.41-2.54,6.7-5.84,6.94-9.17L238,360C237.74,363.36,235.37,366.65,230.83,369.2Z" style="fill:#2C9456"></path><path d="M235.39,374c-5.56,5.48-16.88,8.1-26.77,5.87a22,22,0,0,1-15-12.25c-3-2.26-4.58-4.91-4.78-7.59l.76,9.19c.24,3.33,2.53,6.63,6.94,9.17,9.31,5.38,24.4,5.38,33.71,0A16.18,16.18,0,0,0,235.39,374Z" style="opacity:0.15"></path></g></g></g><g id="freepik--Sparkles--inject-763"><g id="freepik--Shine--inject-763"><path d="M237,82.76a.32.32,0,0,1-.31-.29l-.78-8.67a1.55,1.55,0,0,0-1.37-1.39l-6.79-.75a.31.31,0,0,1,0-.62l6.79-.75a1.55,1.55,0,0,0,1.37-1.39l.78-8.67a.31.31,0,0,1,.62,0l.78,8.67a1.55,1.55,0,0,0,1.36,1.39l6.8.75a.31.31,0,0,1,0,.62l-6.8.75a1.55,1.55,0,0,0-1.36,1.39l-.78,8.67A.32.32,0,0,1,237,82.76Zm-6.37-11.41,4,.44a2.17,2.17,0,0,1,1.92,2L237,79l.47-5.21a2.17,2.17,0,0,1,1.92-2l4-.44-4-.44a2.16,2.16,0,0,1-1.92-2L237,63.74,236.49,69h0a2.16,2.16,0,0,1-1.92,2Zm5.59-2.42h0Z" style="fill:#2C9456"></path><g style="opacity:0.5"><path d="M252.93,90.4a.32.32,0,0,1-.32-.29l-.53-5.9a1,1,0,0,0-.84-.85l-4.62-.52a.31.31,0,0,1-.28-.31.31.31,0,0,1,.28-.31l4.62-.51a1,1,0,0,0,.84-.85l.53-5.91a.32.32,0,0,1,.63,0l.53,5.91a1,1,0,0,0,.84.85l4.62.51a.31.31,0,0,1,.28.31.31.31,0,0,1-.28.31l-4.62.52a1,1,0,0,0-.84.85l-.53,5.9A.31.31,0,0,1,252.93,90.4Zm-3.43-7.87,1.81.2a1.6,1.6,0,0,1,1.4,1.43l.22,2.44.22-2.44a1.58,1.58,0,0,1,1.39-1.43l1.81-.2-1.81-.2a1.57,1.57,0,0,1-1.39-1.42l-.22-2.44-.22,2.44h0a1.59,1.59,0,0,1-1.4,1.42Zm2.89-1.65h0Z" style="fill:#2C9456"></path></g></g><g id="freepik--shine--inject-763"><path d="M32.33,261.49h0a.27.27,0,0,1-.26-.24l-.66-7.34a1.3,1.3,0,0,0-1.15-1.17l-5.75-.64a.27.27,0,0,1-.24-.26.28.28,0,0,1,.24-.27l5.75-.63a1.31,1.31,0,0,0,1.15-1.18h0l.66-7.33a.27.27,0,0,1,.53,0l.66,7.33a1.3,1.3,0,0,0,1.15,1.18l5.75.63a.28.28,0,0,1,.24.27.27.27,0,0,1-.24.26l-5.75.64a1.29,1.29,0,0,0-1.15,1.17l-.66,7.34A.27.27,0,0,1,32.33,261.49ZM27,251.84l3.37.37a1.84,1.84,0,0,1,1.62,1.66l.39,4.4.4-4.41a1.84,1.84,0,0,1,1.62-1.65l3.37-.37-3.37-.37a1.85,1.85,0,0,1-1.62-1.66l-.4-4.41-.39,4.41a1.85,1.85,0,0,1-1.62,1.66Z" style="fill:#2C9456"></path><g style="opacity:0.5"><path d="M45.84,268a.26.26,0,0,1-.26-.24l-.45-5a.8.8,0,0,0-.71-.72l-3.91-.44a.26.26,0,0,1-.24-.26.25.25,0,0,1,.24-.26l3.91-.44a.8.8,0,0,0,.71-.72l.45-5a.26.26,0,0,1,.26-.24.27.27,0,0,1,.27.24l.45,5a.79.79,0,0,0,.71.72l3.91.44a.25.25,0,0,1,.23.26.26.26,0,0,1-.23.26l-3.91.44a.79.79,0,0,0-.71.72l-.45,5A.27.27,0,0,1,45.84,268ZM43,261.3l1.53.17a1.34,1.34,0,0,1,1.18,1.2l.18,2.07.19-2.07a1.32,1.32,0,0,1,1.18-1.2l1.53-.17-1.53-.17a1.33,1.33,0,0,1-1.18-1.2l-.19-2.07-.18,2.07h0a1.35,1.35,0,0,1-1.18,1.2Zm2.44-1.4h0Z" style="fill:#2C9456"></path></g></g><g id="freepik--shine--inject-763"><path d="M54.07,145a.27.27,0,0,1-.27-.24l-.67-7.44A1.33,1.33,0,0,0,52,136.13l-5.82-.64a.27.27,0,0,1,0-.54l5.82-.64a1.33,1.33,0,0,0,1.17-1.19l.67-7.44a.26.26,0,0,1,.27-.24.25.25,0,0,1,.26.24l.67,7.44a1.33,1.33,0,0,0,1.17,1.19L62,135a.27.27,0,0,1,0,.54l-5.83.64A1.33,1.33,0,0,0,55,137.32l-.67,7.44A.26.26,0,0,1,54.07,145Zm-5.46-9.78,3.41.38a1.85,1.85,0,0,1,1.64,1.67l.41,4.47.4-4.47a1.85,1.85,0,0,1,1.64-1.67l3.41-.38-3.41-.38a1.85,1.85,0,0,1-1.64-1.67h0l-.4-4.47-.41,4.47A1.85,1.85,0,0,1,52,134.84Z" style="fill:#2C9456"></path><g style="opacity:0.5"><path d="M40.38,151.55h0a.26.26,0,0,1-.27-.24l-.46-5.06a.81.81,0,0,0-.72-.74l-4-.44a.25.25,0,0,1-.24-.26.27.27,0,0,1,.24-.27l4-.44a.8.8,0,0,0,.72-.73l.46-5.06a.27.27,0,0,1,.53,0l.46,5.06a.81.81,0,0,0,.72.73l4,.44a.27.27,0,0,1,.24.27.25.25,0,0,1-.24.26l-4,.44a.82.82,0,0,0-.72.74l-.46,5.06A.26.26,0,0,1,40.38,151.55Zm-2.94-6.74L39,145a1.35,1.35,0,0,1,1.2,1.22l.19,2.09.18-2.09a1.35,1.35,0,0,1,1.2-1.22l1.55-.17-1.55-.17a1.36,1.36,0,0,1-1.2-1.22h0l-.18-2.1-.19,2.1a1.36,1.36,0,0,1-1.2,1.22Z" style="fill:#2C9456"></path></g></g><g id="freepik--shine--inject-763"><path d="M292.26,47.81a.25.25,0,0,1-.26-.23l-.65-7.15a1.26,1.26,0,0,0-1.12-1.15l-5.61-.62a.26.26,0,0,1-.22-.26.24.24,0,0,1,.22-.25l5.61-.62a1.27,1.27,0,0,0,1.12-1.15l.65-7.15a.26.26,0,0,1,.51,0l.65,7.15h0a1.28,1.28,0,0,0,1.12,1.15l5.61.62a.25.25,0,0,1,.23.25.27.27,0,0,1-.23.26l-5.61.62a1.27,1.27,0,0,0-1.12,1.15l-.65,7.15A.25.25,0,0,1,292.26,47.81ZM287,38.4l3.29.36a1.81,1.81,0,0,1,1.58,1.62l.39,4.3.38-4.3a1.81,1.81,0,0,1,1.59-1.62l3.28-.36L294.23,38a1.79,1.79,0,0,1-1.59-1.61l-.38-4.3-.39,4.3A1.79,1.79,0,0,1,290.29,38Z" style="fill:#2C9456"></path><g style="opacity:0.5"><path d="M279.29,50.22a.21.21,0,0,1-.21-.19l-.36-4a.66.66,0,0,0-.57-.58L275,45.13a.21.21,0,0,1,0-.42l3.12-.35a.64.64,0,0,0,.57-.57l.36-4a.22.22,0,0,1,.21-.2h0a.22.22,0,0,1,.21.2l.36,4a.62.62,0,0,0,.56.57l3.12.35a.21.21,0,0,1,0,.42l-3.12.34a.64.64,0,0,0-.56.58l-.36,4A.21.21,0,0,1,279.29,50.22ZM277,44.92l1.22.13a1.07,1.07,0,0,1,.94,1l.15,1.65.15-1.65a1.06,1.06,0,0,1,.94-1l1.22-.13-1.22-.14a1.06,1.06,0,0,1-.94-1h0l-.15-1.64-.15,1.64a1.06,1.06,0,0,1-.94,1Z" style="fill:#2C9456"></path></g></g><g id="freepik--shine--inject-763"><g style="opacity:0.5"><path d="M193.89,214.57a.17.17,0,0,1-.16-.15l-.27-2.95A.48.48,0,0,0,193,211l-2.31-.25a.16.16,0,0,1,0-.32l2.31-.25a.48.48,0,0,0,.42-.43l.27-3a.16.16,0,0,1,.16-.14.15.15,0,0,1,.15.14l.27,3a.49.49,0,0,0,.42.43l2.31.25a.16.16,0,0,1,0,.32l-2.31.25a.49.49,0,0,0-.42.43l-.27,2.95A.15.15,0,0,1,193.89,214.57Zm-1.72-3.94.91.1a.8.8,0,0,1,.7.71l.11,1.22.11-1.22a.78.78,0,0,1,.69-.71l.91-.1-.91-.1a.78.78,0,0,1-.69-.71h0l-.11-1.23-.11,1.23a.8.8,0,0,1-.7.71Z" style="fill:#2C9456"></path></g><path d="M186.65,225.79h0a.23.23,0,0,1-.22-.2l-.45-5a.85.85,0,0,0-.75-.77l-3.9-.43a.21.21,0,0,1-.19-.21.22.22,0,0,1,.19-.22l3.9-.43a.85.85,0,0,0,.75-.77l.45-5a.22.22,0,0,1,.44,0l.44,5a.87.87,0,0,0,.75.77L192,219a.22.22,0,0,1,.19.22.21.21,0,0,1-.19.21l-3.91.43a.87.87,0,0,0-.75.77l-.44,5A.23.23,0,0,1,186.65,225.79Zm-3.32-6.59,1.95.21a1.31,1.31,0,0,1,1.14,1.16l.23,2.58.23-2.58a1.3,1.3,0,0,1,1.14-1.16l1.94-.21L188,219a1.29,1.29,0,0,1-1.14-1.16l-.23-2.57-.23,2.57a1.3,1.3,0,0,1-1.14,1.16Z" style="fill:#2C9456"></path></g><g id="freepik--shine--inject-763"><path d="M185.08,126a.18.18,0,0,1-.18-.16l-.45-5a.88.88,0,0,0-.78-.8l-3.93-.44a.18.18,0,0,1-.16-.18.18.18,0,0,1,.16-.18l3.93-.43a.88.88,0,0,0,.78-.8l.45-5a.18.18,0,0,1,.18-.17.19.19,0,0,1,.19.17l.45,5h0a.88.88,0,0,0,.78.8l3.93.43a.18.18,0,0,1,.16.18.18.18,0,0,1-.16.18l-3.93.44a.87.87,0,0,0-.78.8l-.45,5A.19.19,0,0,1,185.08,126Zm-3.67-6.59,2.3.26a1.25,1.25,0,0,1,1.1,1.13l.27,3,.28-3a1.25,1.25,0,0,1,1.1-1.13l2.3-.26-2.3-.25a1.26,1.26,0,0,1-1.1-1.13h0l-.28-3-.27,3a1.26,1.26,0,0,1-1.1,1.13Z" style="fill:#2C9456"></path><g style="opacity:0.5"><path d="M175.86,130.46a.18.18,0,0,1-.18-.16l-.31-3.41a.55.55,0,0,0-.48-.5l-2.68-.29a.18.18,0,0,1-.16-.18.18.18,0,0,1,.16-.18l2.68-.3a.55.55,0,0,0,.48-.49l.31-3.42a.18.18,0,0,1,.18-.16h0a.18.18,0,0,1,.18.16l.31,3.42a.54.54,0,0,0,.48.49l2.67.3a.17.17,0,0,1,.16.18.18.18,0,0,1-.16.18l-2.67.29a.54.54,0,0,0-.48.5L176,130.3A.18.18,0,0,1,175.86,130.46Zm-2-4.54,1.05.11a.91.91,0,0,1,.8.82l.13,1.41.13-1.41a.9.9,0,0,1,.8-.82l1.05-.11-1.05-.12a.9.9,0,0,1-.8-.82h0l-.13-1.41-.13,1.41a.91.91,0,0,1-.8.82Z" style="fill:#2C9456"></path></g></g><g id="freepik--shine--inject-763"><path d="M451.85,166.33a.25.25,0,0,1-.25-.23L451,159a1.26,1.26,0,0,0-1.11-1.14l-5.53-.61a.25.25,0,0,1,0-.5l5.53-.62A1.25,1.25,0,0,0,451,155l.64-7.06a.25.25,0,0,1,.5,0l.64,7.06a1.25,1.25,0,0,0,1.11,1.13l5.53.62a.25.25,0,0,1,0,.5l-5.53.61a1.26,1.26,0,0,0-1.11,1.14l-.64,7.06A.25.25,0,0,1,451.85,166.33ZM446.67,157l3.24.36a1.77,1.77,0,0,1,1.56,1.59l.38,4.24.38-4.24a1.78,1.78,0,0,1,1.56-1.59L457,157l-3.25-.36a1.78,1.78,0,0,1-1.56-1.59l-.38-4.25-.38,4.25a1.77,1.77,0,0,1-1.56,1.59Z" style="fill:#2C9456"></path><g style="opacity:0.5"><path d="M464.86,172.55a.25.25,0,0,1-.26-.23l-.43-4.81a.77.77,0,0,0-.68-.69l-3.77-.42a.25.25,0,0,1-.23-.25.27.27,0,0,1,.23-.26l3.77-.41a.78.78,0,0,0,.68-.7l.43-4.81a.25.25,0,0,1,.26-.23h0a.25.25,0,0,1,.25.23l.43,4.81a.79.79,0,0,0,.69.7l3.76.41a.27.27,0,0,1,.23.26.25.25,0,0,1-.23.25l-3.76.42a.78.78,0,0,0-.69.69l-.43,4.81A.25.25,0,0,1,464.86,172.55Zm-2.79-6.4,1.47.16a1.3,1.3,0,0,1,1.14,1.16l.18,2,.17-2a1.3,1.3,0,0,1,1.14-1.16l1.47-.16-1.47-.17a1.29,1.29,0,0,1-1.14-1.15l-.17-2-.18,2h0a1.29,1.29,0,0,1-1.14,1.15Zm2.35-1.35h0Z" style="fill:#2C9456"></path></g></g><g id="freepik--shine--inject-763"><path d="M432.46,250.34a.28.28,0,0,1-.29-.26l-.73-8.08a1.42,1.42,0,0,0-1.27-1.29l-6.33-.71a.28.28,0,0,1-.26-.29.3.3,0,0,1,.26-.29l6.33-.7a1.42,1.42,0,0,0,1.27-1.29h0l.73-8.08a.29.29,0,0,1,.58,0l.73,8.08a1.42,1.42,0,0,0,1.27,1.29l6.33.7a.3.3,0,0,1,.26.29.28.28,0,0,1-.26.29l-6.33.71a1.42,1.42,0,0,0-1.27,1.29l-.73,8.08A.28.28,0,0,1,432.46,250.34Zm-5.93-10.63,3.71.41A2,2,0,0,1,432,242l.44,4.85.44-4.85a2,2,0,0,1,1.78-1.83l3.71-.41-3.71-.4a2,2,0,0,1-1.78-1.83l-.44-4.85-.44,4.85a2,2,0,0,1-1.78,1.83Z" style="fill:#2C9456"></path><g style="opacity:0.5"><path d="M445.31,257.92h0a.28.28,0,0,1-.29-.26l-.5-5.5a.87.87,0,0,0-.78-.8l-4.31-.48a.28.28,0,0,1-.26-.29.29.29,0,0,1,.26-.29l4.31-.48a.87.87,0,0,0,.78-.79l.5-5.5a.29.29,0,0,1,.58,0l.5,5.5a.87.87,0,0,0,.78.79l4.31.48a.29.29,0,0,1,.26.29.28.28,0,0,1-.26.29l-4.31.48a.87.87,0,0,0-.78.8l-.5,5.5A.28.28,0,0,1,445.31,257.92Zm-3.19-7.33,1.69.19a1.47,1.47,0,0,1,1.3,1.32l.2,2.28.21-2.28a1.45,1.45,0,0,1,1.3-1.32l1.68-.19-1.68-.19a1.46,1.46,0,0,1-1.3-1.32l-.21-2.28-.2,2.28h0a1.47,1.47,0,0,1-1.3,1.32Zm2.7-1.54Z" style="fill:#2C9456"></path></g><g style="opacity:0.5"><path d="M425.77,265.55a.28.28,0,0,1-.29-.26l-.5-5.5a.87.87,0,0,0-.78-.8l-4.31-.48a.29.29,0,0,1,0-.58l4.31-.48a.87.87,0,0,0,.78-.79l.5-5.5a.29.29,0,0,1,.29-.27h0a.29.29,0,0,1,.29.27l.5,5.5a.87.87,0,0,0,.78.79l4.31.48a.29.29,0,0,1,0,.58l-4.31.48a.87.87,0,0,0-.78.8l-.5,5.5A.28.28,0,0,1,425.77,265.55Zm-3.19-7.33,1.69.19a1.47,1.47,0,0,1,1.3,1.32l.2,2.28.21-2.28a1.45,1.45,0,0,1,1.3-1.32l1.68-.19-1.68-.19a1.45,1.45,0,0,1-1.3-1.32l-.21-2.28-.2,2.28h0a1.47,1.47,0,0,1-1.3,1.32Zm2.69-1.54h0Z" style="fill:#2C9456"></path></g></g><g id="freepik--shine--inject-763"><path d="M137.69,80.63a.24.24,0,0,1-.24-.23l-.62-6.79a1.2,1.2,0,0,0-1.06-1.09l-5.33-.59a.25.25,0,0,1-.22-.24.26.26,0,0,1,.22-.25l5.33-.59a1.2,1.2,0,0,0,1.06-1.09l.62-6.79a.23.23,0,0,1,.24-.22.25.25,0,0,1,.25.22l.61,6.79a1.2,1.2,0,0,0,1.07,1.09l5.32.59a.25.25,0,0,1,.22.25.24.24,0,0,1-.22.24l-5.32.59a1.2,1.2,0,0,0-1.07,1.09l-.61,6.79A.26.26,0,0,1,137.69,80.63Zm-5-8.94,3.12.34a1.69,1.69,0,0,1,1.5,1.53l.37,4.09.37-4.09a1.69,1.69,0,0,1,1.5-1.53l3.12-.34-3.12-.35a1.69,1.69,0,0,1-1.5-1.53h0l-.37-4.09-.37,4.09a1.69,1.69,0,0,1-1.5,1.53Z" style="fill:#2C9456"></path><g style="opacity:0.5"><path d="M126.88,86.23a.24.24,0,0,1-.24-.22l-.42-4.63a.75.75,0,0,0-.66-.67l-3.62-.4a.24.24,0,0,1-.22-.24.25.25,0,0,1,.22-.25l3.62-.4a.75.75,0,0,0,.66-.67l.42-4.62a.25.25,0,0,1,.24-.23.26.26,0,0,1,.25.23l.41,4.62h0a.75.75,0,0,0,.66.67l3.63.4a.25.25,0,0,1,.21.25.24.24,0,0,1-.21.24l-3.63.4a.75.75,0,0,0-.66.67L127.13,86A.25.25,0,0,1,126.88,86.23Zm-2.68-6.16,1.42.16a1.23,1.23,0,0,1,1.09,1.11l.17,1.92.17-1.92a1.24,1.24,0,0,1,1.1-1.11l1.42-.16-1.42-.16a1.24,1.24,0,0,1-1.1-1.11l-.17-1.92-.17,1.92a1.23,1.23,0,0,1-1.09,1.11Z" style="fill:#2C9456"></path></g><g style="opacity:0.5"><path d="M145,94.94a.24.24,0,0,1-.24-.22l-.42-4.63a.74.74,0,0,0-.65-.67L140,89a.25.25,0,0,1-.22-.24.26.26,0,0,1,.22-.25l3.63-.4a.74.74,0,0,0,.65-.67l.42-4.62a.25.25,0,0,1,.49,0l.42,4.62h0a.74.74,0,0,0,.65.67l3.63.4a.26.26,0,0,1,.22.25.25.25,0,0,1-.22.24l-3.63.4a.74.74,0,0,0-.65.67l-.42,4.63A.24.24,0,0,1,145,94.94Zm-2.68-6.16,1.42.15a1.24,1.24,0,0,1,1.09,1.12L145,92l.18-1.92a1.24,1.24,0,0,1,1.09-1.12l1.42-.15-1.42-.16a1.23,1.23,0,0,1-1.09-1.11L145,85.59l-.17,1.92a1.23,1.23,0,0,1-1.09,1.11Z" style="fill:#2C9456"></path></g></g><g id="freepik--shine--inject-763" style="opacity:0.5"><path d="M198.37,46.87a.25.25,0,0,1-.26-.24l-.45-5a.82.82,0,0,0-.72-.73L193,40.46a.27.27,0,0,1-.23-.27.25.25,0,0,1,.23-.26l3.93-.44a.82.82,0,0,0,.72-.73l.45-5a.25.25,0,0,1,.26-.24.26.26,0,0,1,.27.24l.45,5a.8.8,0,0,0,.71.73l3.93.44a.25.25,0,0,1,.24.26.27.27,0,0,1-.24.27l-3.93.43a.8.8,0,0,0-.71.73l-.45,5A.26.26,0,0,1,198.37,46.87Zm-2.91-6.68,1.54.17a1.33,1.33,0,0,1,1.18,1.21l.19,2.08.19-2.08a1.34,1.34,0,0,1,1.18-1.21l1.54-.17L199.74,40a1.34,1.34,0,0,1-1.18-1.21h0l-.19-2.07-.19,2.07A1.33,1.33,0,0,1,197,40Z" style="fill:#2C9456"></path></g></g></svg>