<svg xmlns="http://www.w3.org/2000/svg" xmlns:xlink="http://www.w3.org/1999/xlink" viewBox="0 0 500 500"><defs><clipPath id="freepik--clip-path--inject-768"><path d="M326.45,106.06c0-1.42.94-2.85,2.81-3.93a15,15,0,0,1,13.6,0c1.88,1.08,2.82,2.51,2.82,3.93h0v2.37h0c0,1.42-.94,2.84-2.82,3.92a15,15,0,0,1-13.6,0c-1.87-1.08-2.81-2.5-2.81-3.92h0v-2.37Z" style="fill:none"></path></clipPath></defs><g id="freepik--Floor--inject-768"><path id="freepik--floor--inject-768" d="M75.66,446.55c-96.29-55.59-96.29-145.72,0-201.31s252.4-55.59,348.68,0,96.29,145.72,0,201.31S172,502.14,75.66,446.55Z" style="fill:#f5f5f5"></path></g><g id="freepik--Shadows--inject-768"><polygon id="freepik--Shadow--inject-768" points="278.43 470.79 359.67 423.88 120 285.51 38.76 332.42 278.43 470.79" style="fill:#e0e0e0"></polygon><path id="freepik--shadow--inject-768" d="M353.31,313.47l63.89-36.8a1,1,0,0,0,0-1.9l-125-72.49a3.63,3.63,0,0,0-3.29,0L225,239.07a1,1,0,0,0,0,1.9l125,72.5A3.66,3.66,0,0,0,353.31,313.47Z" style="fill:#e0e0e0"></path><polygon id="freepik--shadow--inject-768" points="389.4 309.93 453.09 346.7 487.87 326.59 424.18 289.82 389.4 309.93" style="fill:#e0e0e0"></polygon></g><g id="freepik--Window--inject-768"><g id="freepik--window--inject-768"><polygon points="49.26 191.78 51.99 193.41 153.95 134.27 151.22 132.64 49.26 191.78" style="fill:#fafafa"></polygon><polygon points="151.22 132.64 51.99 190.2 51.99 106 151.22 48.46 151.22 132.64" style="fill:#fff"></polygon><polygon points="101.68 74.31 101.68 161.71 106.83 158.74 106.83 71.34 101.68 74.31" style="fill:#f0f0f0"></polygon><polygon points="99.11 72.82 101.68 74.31 101.68 161.71 99.11 160.22 99.11 72.82" style="fill:#e0e0e0"></polygon><path d="M159.1,38,46.85,103v99.29L159.1,137.23ZM154,134.27,52,193.41V106L154,46.86Z" style="fill:#f0f0f0"></path><polygon points="153.95 134.27 151.22 132.64 151.22 48.46 153.95 46.86 153.95 134.27" style="fill:#e0e0e0"></polygon><polygon points="159.1 37.95 156.33 36.37 44.08 101.45 46.84 103.03 159.1 37.95" style="fill:#fafafa"></polygon><polygon points="44.08 101.45 46.84 103.03 46.85 202.32 44.08 200.73 44.08 101.45" style="fill:#e0e0e0"></polygon><polygon points="101.68 77.27 106.81 74.31 106.81 77.28 101.68 80.24 101.68 77.27" style="fill:#e0e0e0"></polygon><polygon points="101.68 80.24 99.11 78.76 101.68 77.27 101.68 80.24" style="opacity:0.15"></polygon></g></g><g id="freepik--Shelves--inject-768"><g id="freepik--Shelf--inject-768"><g id="freepik--shelf--inject-768"><polygon points="337.93 58.86 391.52 89.8 372.03 101.05 318.44 70.11 337.93 58.86" style="fill:#455a64"></polygon><polygon points="318.44 70.11 318.44 72.92 372.03 103.86 372.03 101.05 318.44 70.11" style="fill:#263238"></polygon><polygon points="391.52 89.8 372.03 101.05 372.03 103.86 391.52 92.61 391.52 89.8" style="fill:#37474f"></polygon></g><path id="freepik--shadow--inject-768" d="M329.21,66c-3.78,2.19-3.78,5.73,0,7.91a15.11,15.11,0,0,0,13.7,0c3.79-2.18,3.79-5.72,0-7.91A15.17,15.17,0,0,0,329.21,66Z" style="fill:#37474f"></path><path id="freepik--shadow--inject-768" d="M355.58,86.62l-8.32-4.81a1.1,1.1,0,0,1,0-2.08l5.7-3.29a4,4,0,0,1,3.59,0l8.33,4.81a1.09,1.09,0,0,1,0,2.07l-5.7,3.3A4,4,0,0,1,355.58,86.62Z" style="fill:#37474f"></path><path id="freepik--shadow--inject-768" d="M372.54,96.4l-8.33-4.81a1.09,1.09,0,0,1,0-2.07l5.7-3.29a3.94,3.94,0,0,1,3.6,0l8.33,4.8a1.1,1.1,0,0,1,0,2.08l-5.71,3.29A4,4,0,0,1,372.54,96.4Z" style="fill:#37474f"></path><g id="freepik--Pot--inject-768"><path d="M342.09,70.44c3.29-3.37,5.23-11.76,2-14.43H327.75c-3.21,2.67-1.28,11.06,2,14.42l.09.1.12.11a2.55,2.55,0,0,0,.3.26l.07.06.25.19a5.08,5.08,0,0,0,.43.27,10.8,10.8,0,0,0,9.81,0h0a4.94,4.94,0,0,0,.42-.27l.24-.18.09-.07.29-.26a1.59,1.59,0,0,0,.13-.13Z" style="fill:#ebebeb"></path><path d="M329.17,54.94c-3.73,2.15-3.73,5.64,0,7.8a15,15,0,0,0,13.51,0c3.73-2.16,3.73-5.65,0-7.8A14.89,14.89,0,0,0,329.17,54.94Z" style="fill:#fafafa"></path><path d="M331.82,56.47c-2.27,1.31-2.27,3.43,0,4.74a9.09,9.09,0,0,0,8.22,0c2.27-1.31,2.27-3.43,0-4.74A9,9,0,0,0,331.82,56.47Z" style="fill:#ebebeb"></path><path d="M340,58.72a9.09,9.09,0,0,0-8.22,0A3.77,3.77,0,0,0,330.46,60a3.7,3.7,0,0,0,1.36,1.25,9.09,9.09,0,0,0,8.22,0A3.7,3.7,0,0,0,341.4,60,3.77,3.77,0,0,0,340,58.72Z" style="fill:#e0e0e0"></path><path d="M332.32,60a18.67,18.67,0,0,1-3-4c-1.37-2.43-1.62-5.68-.91-6.08s3.6,2.84,3.6,2.84a17.45,17.45,0,0,1-.31-4.14c.12-2.16.65-4.13,1.27-4.53s2,2.34,2.6,4.31,1,3.6,1,3.6a30.29,30.29,0,0,1,1.06-4.55c.72-2.05,1.38-2.51,1.89-2.31s.84,1.16,1,3.9a26.27,26.27,0,0,1-.12,3.91s1-1.12,2.15-2.21,1.78-1.36,2.13-1.13.45,2.09-1.47,5.56A19.27,19.27,0,0,1,339.53,60S336.87,61.68,332.32,60Z" style="fill:#2C9456"></path><path d="M332.32,60a18.67,18.67,0,0,1-3-4c-1.37-2.43-1.62-5.68-.91-6.08s3.6,2.84,3.6,2.84a17.45,17.45,0,0,1-.31-4.14c.12-2.16.65-4.13,1.27-4.53s2,2.34,2.6,4.31,1,3.6,1,3.6a30.29,30.29,0,0,1,1.06-4.55c.72-2.05,1.38-2.51,1.89-2.31s.84,1.16,1,3.9a26.27,26.27,0,0,1-.12,3.91s1-1.12,2.15-2.21,1.78-1.36,2.13-1.13.45,2.09-1.47,5.56A19.27,19.27,0,0,1,339.53,60S336.87,61.68,332.32,60Z" style="opacity:0.2"></path></g><g id="freepik--Soap--inject-768"><path d="M359.7,57.54,357.09,56a2.28,2.28,0,0,0-2.27-.23c-.58.34-4.4,2.52-5,2.88a2.25,2.25,0,0,0-.91,2.06v18.8a1.75,1.75,0,0,0,.8,1.39l7.42,4.28a.57.57,0,0,0,.57.06l4.95-2.86a.55.55,0,0,0,.24-.52V63.1A7.09,7.09,0,0,0,359.7,57.54Z" style="fill:#2C9456"></path><path d="M359.7,57.54,357.09,56a2.28,2.28,0,0,0-2.27-.23c-.58.34-4.4,2.52-5,2.88a2.25,2.25,0,0,0-.91,2.06V69.2l13.66-7.89A7.1,7.1,0,0,0,359.7,57.54Z" style="fill:#fff;opacity:0.7000000000000001"></path><path d="M348.93,79.55a1.75,1.75,0,0,0,.8,1.39l7.42,4.28a.57.57,0,0,0,.57.06l4.95-2.86a.55.55,0,0,0,.24-.52V63.1a5.78,5.78,0,0,0-.32-1.79L348.93,69.2Z" style="fill:#fff;opacity:0.6000000000000001"></path><path d="M357.15,85.22a.57.57,0,0,0,.57.06.56.56,0,0,0,.23-.52V66a7.08,7.08,0,0,0-3.2-5.55l-2.62-1.51a2.2,2.2,0,0,0-2.29-.2,2.25,2.25,0,0,0-.91,2.06v18.8a1.75,1.75,0,0,0,.8,1.39Z" style="fill:#2C9456"></path><path d="M357.15,85.22a.57.57,0,0,0,.57.06.56.56,0,0,0,.23-.52V66a7.08,7.08,0,0,0-3.2-5.55l-2.62-1.51a2.2,2.2,0,0,0-2.29-.2,2.25,2.25,0,0,0-.91,2.06v18.8a1.75,1.75,0,0,0,.8,1.39Z" style="fill:#fff;opacity:0.8"></path><path d="M358.16,55.52v2.75a1.05,1.05,0,0,1-.63.87,3.35,3.35,0,0,1-3,0,1.05,1.05,0,0,1-.63-.87V55.52Z" style="fill:#37474f"></path><path d="M357.53,56.4a3.35,3.35,0,0,1-3,0,.93.93,0,0,1,0-1.75,3.35,3.35,0,0,1,3,0A.92.92,0,0,1,357.53,56.4Z" style="fill:#455a64"></path><path d="M356.66,51.13v4.42a.32.32,0,0,1-.19.26,1,1,0,0,1-.9,0,.31.31,0,0,1-.18-.26V51.13Z" style="fill:#37474f"></path><path d="M356.66,53h-.11a10.48,10.48,0,0,0-1.16.15v-2h1.27Z" style="fill:#263238"></path><path d="M352.16,52.74l.44-.32a2.68,2.68,0,0,0,1.09-1.62,1.21,1.21,0,0,1,.84-.79,3.75,3.75,0,0,1,2.53.08c1.33.53,1.58,1.53.65,2.07a2.76,2.76,0,0,1-1.16.31,8,8,0,0,0-2.78.63l-.54.26A1.07,1.07,0,0,1,352.16,52.74Z" style="fill:#455a64"></path></g><g id="freepik--soap--inject-768"><path d="M376.7,67.33l-2.61-1.5a2.25,2.25,0,0,0-2.27-.22c-.58.33-4.4,2.52-5,2.87a2.27,2.27,0,0,0-.91,2.06V89.35a1.79,1.79,0,0,0,.8,1.39L374.16,95a.53.53,0,0,0,.56,0l5-2.85a.59.59,0,0,0,.23-.52V72.89A7.1,7.1,0,0,0,376.7,67.33Z" style="fill:#2C9456"></path><path d="M376.7,67.33l-2.61-1.5a2.25,2.25,0,0,0-2.27-.22c-.58.33-4.4,2.52-5,2.87a2.27,2.27,0,0,0-.91,2.06V79l13.67-7.89A7.14,7.14,0,0,0,376.7,67.33Z" style="fill:#fff;opacity:0.7000000000000001"></path><path d="M365.93,89.35a1.79,1.79,0,0,0,.8,1.39L374.16,95a.53.53,0,0,0,.56,0l5-2.85a.59.59,0,0,0,.23-.52V72.89a5.7,5.7,0,0,0-.31-1.78L365.93,79Z" style="fill:#fff;opacity:0.6000000000000001"></path><path d="M374.16,95a.53.53,0,0,0,.56,0,.55.55,0,0,0,.24-.52V75.75a7.09,7.09,0,0,0-3.21-5.56l-2.61-1.5a2.25,2.25,0,0,0-2.3-.21,2.27,2.27,0,0,0-.91,2.06V89.35a1.79,1.79,0,0,0,.8,1.39Z" style="fill:#2C9456"></path><path d="M374.16,95a.53.53,0,0,0,.56,0,.55.55,0,0,0,.24-.52V75.75a7.09,7.09,0,0,0-3.21-5.56l-2.61-1.5a2.25,2.25,0,0,0-2.3-.21,2.27,2.27,0,0,0-.91,2.06V89.35a1.79,1.79,0,0,0,.8,1.39Z" style="fill:#fff;opacity:0.8"></path><path d="M375.16,65.32v2.74a1.07,1.07,0,0,1-.63.88,3.35,3.35,0,0,1-3,0,1.07,1.07,0,0,1-.62-.88V65.32Z" style="fill:#37474f"></path><path d="M374.53,66.19a3.35,3.35,0,0,1-3,0,.92.92,0,0,1,0-1.74,3.35,3.35,0,0,1,3,0A.92.92,0,0,1,374.53,66.19Z" style="fill:#455a64"></path><path d="M373.66,60.92v4.43a.33.33,0,0,1-.19.26,1,1,0,0,1-.9,0,.33.33,0,0,1-.18-.26V60.92Z" style="fill:#37474f"></path><path d="M373.66,62.81h-.1a10.36,10.36,0,0,0-1.17.15v-2h1.27Z" style="fill:#263238"></path><path d="M369.16,62.53l.44-.31a2.59,2.59,0,0,0,1.09-1.63,1.2,1.2,0,0,1,.84-.78,3.71,3.71,0,0,1,2.54.07c1.32.54,1.58,1.53.64,2.07a2.62,2.62,0,0,1-1.15.32,7.58,7.58,0,0,0-2.79.63l-.54.25A1.06,1.06,0,0,1,369.16,62.53Z" style="fill:#455a64"></path></g></g><g id="freepik--shelf--inject-768"><g id="freepik--shelf--inject-768"><polygon points="337.93 106.68 391.52 137.62 372.03 148.87 318.44 117.93 337.93 106.68" style="fill:#455a64"></polygon><polygon points="318.44 117.93 318.44 120.75 372.03 151.69 372.03 148.87 318.44 117.93" style="fill:#263238"></polygon><polygon points="391.52 137.62 372.03 148.87 372.03 151.69 391.52 140.43 391.52 137.62" style="fill:#37474f"></polygon></g><path id="freepik--shadow--inject-768" d="M347.53,123.9c-4.11,2.37-4.11,6.22,0,8.6a16.5,16.5,0,0,0,14.9,0c4.11-2.38,4.11-6.23,0-8.6A16.44,16.44,0,0,0,347.53,123.9Z" style="fill:#37474f"></path><path id="freepik--shadow--inject-768" d="M366.48,136.31c-3.47,2-3.47,5.25,0,7.25a13.9,13.9,0,0,0,12.56,0c3.47-2,3.47-5.25,0-7.25A13.9,13.9,0,0,0,366.48,136.31Z" style="fill:#37474f"></path><path id="freepik--shadow--inject-768" d="M328.69,113.92c-4.12,2.37-4.12,6.22,0,8.6a16.48,16.48,0,0,0,14.89,0c4.12-2.38,4.12-6.23,0-8.6A16.42,16.42,0,0,0,328.69,113.92Z" style="fill:#37474f"></path><g id="freepik--Jar--inject-768"><path d="M327,108.3c0-1.33.88-2.67,2.65-3.7a14.19,14.19,0,0,1,12.82,0c1.77,1,2.66,2.37,2.66,3.7h0V117h0c0,1.34-.89,2.68-2.66,3.71a14.19,14.19,0,0,1-12.82,0c-1.77-1-2.65-2.37-2.65-3.71h0Z" style="fill:#2C9456"></path><path d="M327,108.3c0-1.33.88-2.67,2.65-3.7a14.19,14.19,0,0,1,12.82,0c1.77,1,2.66,2.37,2.66,3.7h0V117h0c0,1.34-.89,2.68-2.66,3.71a14.19,14.19,0,0,1-12.82,0c-1.77-1-2.65-2.37-2.65-3.71h0Z" style="fill:#fff;opacity:0.5"></path><path d="M330.48,104.18v16.95a8,8,0,0,1-.83-.41,7.07,7.07,0,0,1-1.44-1.1V105.7a7.07,7.07,0,0,1,1.44-1.1C329.92,104.45,330.19,104.31,330.48,104.18Z" style="fill:#fff;opacity:0.4"></path><path d="M332.86,121.91a13.23,13.23,0,0,1-1.31-.36V103.77a13.23,13.23,0,0,1,1.31-.36Z" style="fill:#fff;opacity:0.4"></path><path d="M327.15,107.34a6.55,6.55,0,0,1,2.11-1.83,15.2,15.2,0,0,1,12.79-.42v-.71c.14.07.29.14.42.22,1.77,1,2.66,2.37,2.66,3.7v3.55h0V117c0,1.34-.89,2.68-2.66,3.71a14.19,14.19,0,0,1-12.82,0,6.7,6.7,0,0,1-1.61-1.27c1.68,1.58,5.88,2.44,9,1.83s5-2.6,5-4v-3.48a15.23,15.23,0,0,1-12.79-.42,6.24,6.24,0,0,1-2.26-2.09v-3A3.2,3.2,0,0,1,327.15,107.34Z" style="fill:#2C9456;opacity:0.2"></path><path d="M343.6,117.66V105.39a3.9,3.9,0,0,1,1.53,2.91V117c0,1.34-.89,2.68-2.66,3.71A11.5,11.5,0,0,1,339,122C342.44,121,343.6,118.7,343.6,117.66Z" style="opacity:0.1"></path><path d="M342,120.3a14.72,14.72,0,0,1-11.78,0c-3.25-1.63-3.25-4.28,0-5.92a14.8,14.8,0,0,1,11.78,0C345.2,116,345.2,118.67,342,120.3Z" style="fill:#2C9456;opacity:0.30000000000000004"></path><path d="M326.45,106.06c0-1.42.94-2.85,2.81-3.93a15,15,0,0,1,13.6,0c1.88,1.08,2.82,2.51,2.82,3.93h0v2.37h0c0,1.42-.94,2.84-2.82,3.92a15,15,0,0,1-13.6,0c-1.87-1.08-2.81-2.5-2.81-3.92h0v-2.37Z" style="fill:#e0e0e0"></path><g style="clip-path:url(#freepik--clip-path--inject-768)"><g style="opacity:0.2"><rect x="326.22" y="105.66" width="0.46" height="4.74"></rect><rect x="327.28" y="107.45" width="0.46" height="4.77"></rect><rect x="328.88" y="108.68" width="0.46" height="4.81"></rect><rect x="330.71" y="109.45" width="0.46" height="4.84"></rect><rect x="332.73" y="109.96" width="0.46" height="4.88"></rect><rect x="334.86" y="110.22" width="0.46" height="4.92"></rect><rect x="337.02" y="110.21" width="0.46" height="4.95"></rect><rect x="339.13" y="109.93" width="0.46" height="4.99"></rect><rect x="341.11" y="109.36" width="0.46" height="5.02"></rect><rect x="342.9" y="108.48" width="0.46" height="5.06"></rect><rect x="344.33" y="107.25" width="0.46" height="5.1"></rect><rect x="345.45" y="105.27" width="0.46" height="5.13"></rect></g><path d="M333.76,113.81c4.76,0,7.27-1.52,8-2.78.58-1,.68-.84.68-2.59,0,0,.54-4,.44-4s1.14-.27,2.06-.47a3.66,3.66,0,0,1,.71,2.1h0v2.37h0c0,1.42-.94,2.84-2.82,3.92A14.76,14.76,0,0,1,333.76,113.81Z" style="opacity:0.1"></path></g><path d="M342.86,110a15,15,0,0,1-13.6,0c-3.75-2.17-3.75-5.68,0-7.85a15,15,0,0,1,13.6,0C346.62,104.3,346.62,107.81,342.86,110Z" style="fill:#ebebeb"></path><path d="M328.75,109.65c-3.23-2.18-3.06-5.46.51-7.52a13.83,13.83,0,0,1,6.62-1.62,10.87,10.87,0,0,1,3.51,1.2c3.24,1.85,3.24,5.56,0,7.41A13.28,13.28,0,0,1,328.75,109.65Z" style="fill:#f5f5f5"></path><path d="M344.94,108.19s-3.12,3.15-9.17,3-8.46-3.46-8.77-4.48a3.78,3.78,0,0,1,.81-3.49,4,4,0,0,0-1.36,2.86v2.37c0,.36-.19,1.6,1.76,3.2a4.73,4.73,0,0,1-1.14-2.55v-1s2.14,3.58,8.7,3.58S344.61,108.72,344.94,108.19Z" style="fill:#fff"></path></g><g id="freepik--jar--inject-768"><path d="M367,120.09a8.57,8.57,0,0,1,1.1-.53,1.87,1.87,0,0,0,1.2-1.73v-2.12h6.9v2.12a1.87,1.87,0,0,0,1.2,1.73,7.46,7.46,0,0,1,1.1.53c1.59.92,2.38,2.12,2.38,3.32v15.93c0,1.2-.79,2.4-2.38,3.32a12.73,12.73,0,0,1-11.5,0c-1.59-.92-2.38-2.12-2.38-3.32V123.41C364.63,122.21,365.42,121,367,120.09Z" style="fill:#2C9456"></path><path d="M367,120.09a8.57,8.57,0,0,1,1.1-.53,1.87,1.87,0,0,0,1.2-1.73v-2.12h6.9v2.12a1.87,1.87,0,0,0,1.2,1.73,7.46,7.46,0,0,1,1.1.53c1.59.92,2.38,2.12,2.38,3.32v15.93c0,1.2-.79,2.4-2.38,3.32a12.73,12.73,0,0,1-11.5,0c-1.59-.92-2.38-2.12-2.38-3.32V123.41C364.63,122.21,365.42,121,367,120.09Z" style="opacity:0.2"></path><path d="M378,142.4c2.91-1.66,2.91-4.36,0-6a11.71,11.71,0,0,0-10.51,0c-2.91,1.66-2.91,4.36,0,6A11.71,11.71,0,0,0,378,142.4Z" style="opacity:0.2"></path><path d="M368.65,117.94a8.91,8.91,0,0,1,5.53-.88v-1.35h2v2.12a1.87,1.87,0,0,0,1.2,1.73,7.46,7.46,0,0,1,1.1.53l0,0a4,4,0,0,1,2.34,3.3v15.93c0,1.2-.79,2.4-2.38,3.32a12.75,12.75,0,0,1-8.44,1.11c6.6.45,8.2-2.35,8.2-4.38V123.9a2.37,2.37,0,0,0-.6-1.81,4.7,4.7,0,0,1-.81.59,9.13,9.13,0,0,1-8.21,0C366.38,121.37,366.38,119.25,368.65,117.94Z" style="opacity:0.15"></path><path d="M367,120.09a8.57,8.57,0,0,1,1.1-.53,1.87,1.87,0,0,0,1.2-1.73v-2.12h.76v2.83a2.12,2.12,0,0,1-1.21,1.63c-.65.35-2.72,1.25-3.22,2.23s-.32,2.79-.32,5v11.24a5.11,5.11,0,0,0,3.25,4.74,8.82,8.82,0,0,1-1.56-.7c-1.59-.91-2.38-2.07-2.38-3.33V123.41C364.63,122.21,365.42,121,367,120.09Z" style="fill:#fff;opacity:0.4"></path><path d="M367,118.68v.6a2.91,2.91,0,0,0,1.7,2.38,9.07,9.07,0,0,0,8.21,0,3.85,3.85,0,0,0,1.28-1.11,2.19,2.19,0,0,0,.42-1.26v-.62a1.31,1.31,0,0,0-.05-.39,3.08,3.08,0,0,0-1.65-2l-.08,0a9.12,9.12,0,0,0-8.13,0,3.12,3.12,0,0,0-1.65,2A1.44,1.44,0,0,0,367,118.68Z" style="fill:#37474f"></path><path d="M372.28,122v-2.14c0-.85-.21.3,1.27.3,1.29,0,2.43-3,3.23-3.93l.08,0a3.08,3.08,0,0,1,1.65,2,1.31,1.31,0,0,1,.05.39v.62a2.19,2.19,0,0,1-.42,1.26,3.85,3.85,0,0,1-1.28,1.11,9.07,9.07,0,0,1-8.21,0C370.25,122.29,372.28,122.82,372.28,122Z" style="fill:#263238"></path><path d="M376.86,121c2.27-1.31,2.27-3.43,0-4.74a9.07,9.07,0,0,0-8.21,0c-2.26,1.31-2.26,3.43,0,4.74A9.07,9.07,0,0,0,376.86,121Z" style="fill:#2C9456"></path><path d="M367,116.67v1.2a1.37,1.37,0,0,0,.05.4,3.13,3.13,0,0,0,1.65,2,8.09,8.09,0,0,0,3.63,1,8.71,8.71,0,0,0,4.58-1,4,4,0,0,0,1.28-1.11,2.16,2.16,0,0,0,.37-.86,1.37,1.37,0,0,0,.05-.4v-1.22a2.88,2.88,0,0,0-1.7-2.38l-.31-.16a9.15,9.15,0,0,0-7.9.16A2.92,2.92,0,0,0,367,116.67Z" style="fill:#37474f"></path><path d="M376.86,119c2.27-1.31,2.27-3.43,0-4.74a9.07,9.07,0,0,0-8.21,0c-2.26,1.31-2.26,3.43,0,4.74A9.07,9.07,0,0,0,376.86,119Z" style="fill:#455a64"></path><path d="M378.14,119.14a4,4,0,0,1-1.28,1.11,8.71,8.71,0,0,1-4.58,1h0c0-.43-.25-.75,1.27-1,1.26-.24,3.13-.77,4-2.15a2.93,2.93,0,0,0-1-3.91l.31.16a2.88,2.88,0,0,1,1.7,2.38v1.22a1.37,1.37,0,0,1-.05.4A2.16,2.16,0,0,1,378.14,119.14Z" style="fill:#263238"></path></g><g id="freepik--pot--inject-768"><path d="M348.73,128.65c-3.32-3.39-5.27-11.85-2-14.54h16.48c3.24,2.69,1.29,11.15-2,14.54l-.09.09-.11.12-.3.26a.27.27,0,0,0-.08.07l-.25.18a4.46,4.46,0,0,1-.43.28,10.93,10.93,0,0,1-9.9,0h0a4,4,0,0,1-.43-.28l-.23-.17-.1-.08a2.43,2.43,0,0,1-.29-.26l-.13-.13A.3.3,0,0,1,348.73,128.65Z" style="fill:#ebebeb"></path><path d="M361.75,113c3.76,2.17,3.76,5.69,0,7.86a15,15,0,0,1-13.62,0c-3.76-2.17-3.76-5.69,0-7.86A15.06,15.06,0,0,1,361.75,113Z" style="fill:#fafafa"></path><path d="M359.08,114.57c2.29,1.32,2.29,3.46,0,4.78a9.09,9.09,0,0,1-8.28,0c-2.29-1.32-2.29-3.46,0-4.78A9.15,9.15,0,0,1,359.08,114.57Z" style="fill:#ebebeb"></path><path d="M350.8,116.84a9.15,9.15,0,0,1,8.28,0,3.76,3.76,0,0,1,1.37,1.26,3.66,3.66,0,0,1-1.37,1.25,9.09,9.09,0,0,1-8.28,0,3.78,3.78,0,0,1-1.38-1.25A3.88,3.88,0,0,1,350.8,116.84Z" style="fill:#e0e0e0"></path><path d="M353.44,118.62a12.28,12.28,0,0,1-5.1-6.42c-1.51-4.44-.62-9.82.74-12,1.84-3,6.32-2.67,5,2.35S351.93,113,354,116.64Z" style="fill:#2C9456"></path><g style="opacity:0.35000000000000003"><path d="M353.44,118.62a12.28,12.28,0,0,1-5.1-6.42c-1.51-4.44-.62-9.82.74-12,1.84-3,6.32-2.67,5,2.35S351.93,113,354,116.64Z"></path></g><path d="M353.29,117.71a.19.19,0,0,0,.13,0,.2.2,0,0,0,0-.29,14.66,14.66,0,0,1-3.75-10.93c.23-3.64,1.58-6.27,2.08-6.7a.2.2,0,0,0,0-.29.2.2,0,0,0-.28,0c-.68.59-2,3.42-2.23,7a15.08,15.08,0,0,0,3.86,11.23A.21.21,0,0,0,353.29,117.71Z" style="fill:#fafafa"></path><path d="M357.29,118.62a1.94,1.94,0,0,1,.81-1.08,8,8,0,0,1,1.48-.63c.89-.32,2-.8,2.14-1.86a2.88,2.88,0,0,0-.14-1.13,2.5,2.5,0,0,1-.15-1.56c.19-.48.7-.73,1.13-1a3.93,3.93,0,0,0,1.2-1.13,2.41,2.41,0,0,0,.35-1.38c-.09-1-1-1.65-1.07-2.64,0-1.44,3.33-3.39,1.53-4.75-2.3-1.74-5.9.28-6.93,1.75s-1,2.15-2.91,3.4c-1.56,1-3.41,1.25-3.41,3.3s2.63,2.14.56,4.46c-1.24,1.4.81,2.6,1.56,4.26A3.41,3.41,0,0,0,357.29,118.62Z" style="fill:#2C9456"></path><path d="M355.21,119.21h0a.19.19,0,0,0,.19-.21c-.45-11.9,5.6-16.08,6.82-16.41a.21.21,0,0,0,.14-.25.2.2,0,0,0-.25-.14c-2.05.56-7.54,5.58-7.11,16.82A.19.19,0,0,0,355.21,119.21Z" style="fill:#fafafa"></path><path d="M356.39,110.34a.24.24,0,0,0,.13,0c1.76-1.55,5.19-1.51,5.23-1.51a.21.21,0,0,0,0-.41c-.14,0-3.63,0-5.5,1.61a.22.22,0,0,0,0,.29A.21.21,0,0,0,356.39,110.34Z" style="fill:#fafafa"></path></g></g></g><g id="freepik--Furniture--inject-768"><g id="freepik--Desk--inject-768"><g id="freepik--desk--inject-768"><polygon points="353.33 236.09 406.95 205.13 288.17 136.55 234.54 167.51 353.33 236.09" style="fill:#2C9456"></polygon><polygon points="353.33 236.09 406.95 205.13 288.17 136.55 234.54 167.51 353.33 236.09" style="opacity:0.30000000000000004"></polygon><polygon points="406.95 205.13 406.95 276.69 403.69 278.57 403.69 271.03 356.59 298.23 356.59 305.76 353.33 307.65 353.33 236.09 406.95 205.13" style="fill:#2C9456"></polygon><polygon points="406.95 205.13 406.95 276.69 403.69 278.57 403.69 271.03 356.59 298.23 356.59 305.76 353.33 307.65 353.33 236.09 406.95 205.13" style="opacity:0.5"></polygon><polygon points="403.69 278.57 400.43 276.69 400.43 272.92 403.69 271.03 403.69 278.57" style="fill:#2C9456"></polygon><polygon points="403.69 278.57 400.43 276.69 400.43 272.92 403.69 271.03 403.69 278.57" style="opacity:0.6000000000000001"></polygon><polygon points="353.33 307.65 350.07 305.76 350.07 298.23 237.81 233.42 237.81 240.95 234.54 239.07 234.54 167.51 353.33 236.09 353.33 307.65" style="fill:#2C9456"></polygon><polygon points="353.33 307.65 350.07 305.76 350.07 298.23 237.81 233.42 237.81 240.95 234.54 239.07 234.54 167.51 353.33 236.09 353.33 307.65" style="opacity:0.4"></polygon><polygon points="237.81 240.95 241.07 239.07 241.07 235.3 237.81 233.42 237.81 240.95" style="fill:#2C9456"></polygon><g style="opacity:0.6000000000000001"><polygon points="237.81 240.95 241.07 239.07 241.07 235.3 237.81 233.42 237.81 240.95"></polygon></g><polygon points="348.9 239.43 296.1 208.94 296.1 260.54 348.91 291.03 348.9 239.43" style="opacity:0.2"></polygon><polygon points="297.1 259.96 297.1 210.68 347.9 240.01 347.9 289.29 297.1 259.96" style="fill:#2C9456"></polygon><polygon points="297.1 259.96 297.1 210.68 347.9 240.01 347.9 289.29 297.1 259.96" style="opacity:0.4"></polygon><path d="M301.29,230.7c.56.33,1,2.83,1,5.59v4.07c0,2.76-.46,4.74-1,4.41l-1-.58V230.12Z" style="fill:#263238"></path><polygon points="292.04 206.6 292.04 258.19 239.23 227.71 239.23 176.11 292.04 206.6" style="opacity:0.2"></polygon><polygon points="240.23 227.13 240.23 177.84 291.04 207.17 291.04 256.46 240.23 227.13" style="fill:#2C9456"></polygon><polygon points="240.23 227.13 240.23 177.84 291.04 207.17 291.04 256.46 240.23 227.13" style="opacity:0.4"></polygon><path d="M286.56,222.2c-.56-.32-1,1.65-1,4.41v4.08c0,2.76.45,5.26,1,5.58l1,.59V222.79Z" style="fill:#263238"></path></g><g id="freepik--Candle--inject-768"><path id="freepik--shadow--inject-768" d="M378.22,199.27c-3.25,1.88-3.25,4.92,0,6.8a13,13,0,0,0,11.77,0c3.25-1.88,3.25-4.92,0-6.8A13,13,0,0,0,378.22,199.27Z" style="opacity:0.4"></path><path d="M389.11,197.76a11.16,11.16,0,0,1-10.13,0c-2.8-1.61-2.8-4.23,0-5.84a11.16,11.16,0,0,1,10.13,0C391.91,193.53,391.91,196.15,389.11,197.76Z" style="fill:#2C9456"></path><path d="M389.11,197.76a11.16,11.16,0,0,1-10.13,0c-2.8-1.61-2.8-4.23,0-5.84a11.16,11.16,0,0,1,10.13,0C391.91,193.53,391.91,196.15,389.11,197.76Z" style="opacity:0.15"></path><g id="freepik--candle--inject-768"><path d="M390.29,192.67l-.17.16s0,0,0,0h0s0,0,0,0a2,2,0,0,0-.23.27l-.08.11-.09.14a0,0,0,0,0,0,0,.54.54,0,0,0-.07.13.2.2,0,0,0,0,.08.32.32,0,0,0,0,.09c-.27.73-.59,1.28-1,1.44a8,8,0,0,0-1.92,1,2.66,2.66,0,0,0-.48.55l-.28.36a2.13,2.13,0,0,1-3,.31,4.45,4.45,0,0,1-.32-.31l-.31-.36a4.78,4.78,0,0,0-.48-.45,3.81,3.81,0,0,0-1.87-.73,2.38,2.38,0,0,1-1.73-.87h0a2.25,2.25,0,0,1-.3-1.1v7.09a2.36,2.36,0,0,0,.47,1.37,4.23,4.23,0,0,0,1.4,1.2,10.08,10.08,0,0,0,9,0,3.13,3.13,0,0,0,1.86-2.57V192.5Z" style="fill:#2C9456"></path><path d="M390.29,192.67l-.17.16s0,0,0,0h0s0,0,0,0a2,2,0,0,0-.23.27l-.08.11-.09.14a0,0,0,0,0,0,0,.54.54,0,0,0-.07.13.2.2,0,0,0,0,.08.32.32,0,0,0,0,.09c-.27.73-.59,1.28-1,1.44a8,8,0,0,0-1.92,1,2.66,2.66,0,0,0-.48.55l-.28.36a2.2,2.2,0,0,1-3,.31,4.45,4.45,0,0,1-.32-.31l-.31-.36a4.78,4.78,0,0,0-.48-.45,3.81,3.81,0,0,0-1.87-.73,2.38,2.38,0,0,1-1.73-.87h0a2.25,2.25,0,0,1-.3-1.1v7.09a2.36,2.36,0,0,0,.47,1.37,4.23,4.23,0,0,0,1.4,1.2,10.08,10.08,0,0,0,9,0,3.13,3.13,0,0,0,1.86-2.57V192.5Z" style="fill:#fff;opacity:0.2"></path><path d="M390.5,191.67v.83l-.21.17-.17.16-.05,0a.85.85,0,0,0-.17.2l-.08.07a2.8,2.8,0,0,0-.34.61c-.27.74-.59,1.29-1,1.45a8.51,8.51,0,0,0-1.92,1,3.48,3.48,0,0,0-.48.56,3.17,3.17,0,0,1-.29.35,2.15,2.15,0,0,1-.71.6,1.72,1.72,0,0,1-.29.11,2.91,2.91,0,0,1-.74.07,2,2,0,0,1-.68-.11,1.73,1.73,0,0,1-.31-.14l-.29-.2a3.39,3.39,0,0,1-.31-.33l-.32-.35a3.09,3.09,0,0,0-.46-.44,4.26,4.26,0,0,0-.65-.4.77.77,0,0,0-.34,0c-.35.07-.31.67-.31,1.18v2.3a4.62,4.62,0,0,0,.15.72.32.32,0,0,1-.29.34.3.3,0,0,1-.28-.34,6.2,6.2,0,0,0,.15-.72v-2.61c0-.5,0-1.11-.31-1.18a2.4,2.4,0,0,1-1.73-.86,0,0,0,0,0,0,0,2.4,2.4,0,0,1-.27-.82c-.14-1,.48-2.07,1.84-2.86a9.23,9.23,0,0,1,4.54-1.06,5.57,5.57,0,0,0,2.61-.89c.57-.17,1.41-1,2-.85s.55,1.49,1,1.74S390.5,190.59,390.5,191.67Z" style="fill:#2C9456"></path><path d="M390.5,191.67v.83l-.21.17-.17.16-.05,0a.85.85,0,0,0-.17.2l-.08.07a2.8,2.8,0,0,0-.34.61c-.27.74-.59,1.29-1,1.45a8.51,8.51,0,0,0-1.92,1,3.48,3.48,0,0,0-.48.56,3.17,3.17,0,0,1-.29.35,2.15,2.15,0,0,1-.71.6,1.72,1.72,0,0,1-.29.11,2.91,2.91,0,0,1-.74.07,2,2,0,0,1-.68-.11,1.73,1.73,0,0,1-.31-.14l-.29-.2a3.39,3.39,0,0,1-.31-.33l-.32-.35a3.09,3.09,0,0,0-.46-.44,4.26,4.26,0,0,0-.65-.4.77.77,0,0,0-.34,0c-.35.07-.31.67-.31,1.18v2.3a4.62,4.62,0,0,0,.15.72.32.32,0,0,1-.29.34.3.3,0,0,1-.28-.34,6.2,6.2,0,0,0,.15-.72v-2.61c0-.5,0-1.11-.31-1.18a2.4,2.4,0,0,1-1.73-.86,0,0,0,0,0,0,0,2.4,2.4,0,0,1-.27-.82c-.14-1,.48-2.07,1.84-2.86a9.23,9.23,0,0,1,4.54-1.06,5.57,5.57,0,0,0,2.61-.89c.57-.17,1.41-1,2-.85s.55,1.49,1,1.74S390.5,190.59,390.5,191.67Z" style="fill:#fff;opacity:0.45"></path><ellipse cx="384.13" cy="193.6" rx="1.5" ry="0.86" style="opacity:0.15"></ellipse><path d="M384.16,190a9.31,9.31,0,0,0-4.54,1.06c-1.74,1-2.26,2.42-1.57,3.68h0a2.38,2.38,0,0,0,1.73.87h0c.35.07.31.68.31,1.18v2.61a4.44,4.44,0,0,1-.16.72.32.32,0,0,0,.29.34.3.3,0,0,0,.27-.21h0a.19.19,0,0,1-.3,0c-.15-.18,0-.31,0-.58v-2.31a10,10,0,0,0-.05-1.67c-.12-.35-.68-.26-1.28-.56a1.84,1.84,0,0,1-.56-2.46c.49-1.1,2.3-1.78,3.28-2.11a34.6,34.6,0,0,1,3.87-.42c.66-.15.87-.57,1.35-.76s.44-.52.72-.7h0a3.65,3.65,0,0,1-.78.43A5.57,5.57,0,0,1,384.16,190Z" style="fill:#fff;opacity:0.5"></path><path d="M389.72,190a.49.49,0,0,1-.17-.2l0-.06c-.1-.21-.18-.49-.28-.77a1.18,1.18,0,0,0-.07-.2l0-.07c.06.38-.06,1.06.12,1.37s.74.33.88.76a2,2,0,0,1-.11,1.6,3.77,3.77,0,0,0-.9,1.44,1.75,1.75,0,0,1-1.3,1.29,4,4,0,0,0-2.06,1.44,2.17,2.17,0,0,1-1.24.94,1.67,1.67,0,0,1-1.23,0c-.34-.15-.53-.45-.86-.77a9.93,9.93,0,0,0-1-.87.65.65,0,0,0-.9.06h0a.25.25,0,0,1,.14-.08h.21l.13,0,.28.15c.12.07.23.15.36.24a4.78,4.78,0,0,1,.48.45,2.09,2.09,0,0,1,.14.17l.17.18.18.19a.86.86,0,0,0,.14.13,1.47,1.47,0,0,0,.37.24l.15.08.21.06a2,2,0,0,0,.54.08,3.29,3.29,0,0,0,.71-.06l.19-.06.08,0,.14-.08.26-.17.06-.05a2.27,2.27,0,0,0,.3-.32,3.17,3.17,0,0,0,.29-.35,3.48,3.48,0,0,1,.48-.56,6.66,6.66,0,0,1,1.43-.78l.11,0,.38-.15a2.22,2.22,0,0,0,1-1.32.61.61,0,0,1,.05-.12,2.11,2.11,0,0,1,.16-.34l.18-.28,0,0,0,0,.1-.11a.27.27,0,0,1,.07-.08s0,0,0,0l0,0a.46.46,0,0,0,.07-.07l.1-.09.21-.17v-.83C390.5,190.59,390.13,190.19,389.72,190Z" style="fill:#fff;opacity:0.5"></path><path d="M384.54,190.74c-1.76-.17-4.82.51-5.63,2a1.5,1.5,0,0,0,.37,2.17,2,2,0,0,1,.81-2.41A8.91,8.91,0,0,1,384.54,190.74Z" style="opacity:0.05"></path><path d="M386.5,190.81c2.1.29,2.83,1.36,2.76,2.09,0,0,.57-.51.57-.93s-.55-.76-.81-1.07-.22-1.26-.72-1.26S387.75,190.66,386.5,190.81Z" style="opacity:0.05"></path><g id="freepik--Flame--inject-768"><path d="M384.09,191.54c-1-.07-1.67-1.14-1-2.63s1.1-2.3.85-3.81a9.31,9.31,0,0,1,1.12,2.24,7.88,7.88,0,0,1,.51,2.15C385.68,190.87,385,191.54,384.09,191.54Z" style="fill:#2C9456"></path><path d="M384.09,191.54c-1-.07-1.67-1.14-1-2.63s1.1-2.3.85-3.81a9.31,9.31,0,0,1,1.12,2.24,7.88,7.88,0,0,1,.51,2.15C385.68,190.87,385,191.54,384.09,191.54Z" style="fill:#fff;opacity:0.6000000000000001"></path><path d="M384.1,191.45c-.31,0-.63-.4-.78-.69a2,2,0,0,1,.11-1.7l.11-.24a8.38,8.38,0,0,0,.79-2.28c.13.27.25.58.38.92a8.08,8.08,0,0,1,.5,2.06,1.88,1.88,0,0,1-.3,1.38A1.47,1.47,0,0,1,384.1,191.45Z" style="fill:#fff;opacity:0.8"></path><path d="M384.05,191.4a1,1,0,0,1-.37-1c.09-.48.56-1.12.56-1.34a4.11,4.11,0,0,1,.44,1.26A1,1,0,0,1,384.05,191.4Z" style="fill:#2C9456"></path><path d="M384.05,191.4a1,1,0,0,1-.37-1c.09-.48.56-1.12.56-1.34a4.11,4.11,0,0,1,.44,1.26A1,1,0,0,1,384.05,191.4Z" style="opacity:0.15"></path><path d="M384.08,193.65a.25.25,0,0,1-.21-.17c0-.08-.06-.16-.08-.23a2,2,0,0,1,0-.48,2.42,2.42,0,0,1,.05-.47,3.12,3.12,0,0,1,.09-.44c.06-.29.14-.58.18-.86a4.33,4.33,0,0,0,.05-.88h0a3.88,3.88,0,0,1,.1.9,8.66,8.66,0,0,1-.07.89c0,.15,0,.3,0,.44a2,2,0,0,0,0,.42c0,.14,0,.27.05.41a1.29,1.29,0,0,0,0,.19.26.26,0,0,1-.05.24Z" style="fill:#37474f"></path></g></g><g id="freepik--jar--inject-768"><path d="M390,197.13a5.22,5.22,0,0,1-.89.64,9.15,9.15,0,0,1-3.15,1,12.36,12.36,0,0,1-3.84,0l-.61-.11a8.7,8.7,0,0,1-1-.29,7.83,7.83,0,0,1-.85-.32l-.65-.33a5.88,5.88,0,0,1-1.14-.87,2.93,2.93,0,0,1-1-2.06v6.88a2.89,2.89,0,0,0,.9,2l-.07-.07.13.14.13.13.17.15a1.57,1.57,0,0,0,.21.17.71.71,0,0,0,.14.1l.16.11.33.21c.21.11.42.23.65.33h0a6.19,6.19,0,0,0,.85.32c.34.11.68.21,1,.29a12.34,12.34,0,0,0,4.88,0h0l.06,0,.57-.13.13,0a3.69,3.69,0,0,0,.56-.19l.12,0c.21-.08.42-.16.63-.26a6,6,0,0,0,.62-.31,3.57,3.57,0,0,0,2.1-2.93V195A3.19,3.19,0,0,1,390,197.13Z" style="fill:#2C9456"></path><path d="M390,197.13a5.22,5.22,0,0,1-.89.64,9.15,9.15,0,0,1-3.15,1,12.36,12.36,0,0,1-3.84,0l-.61-.11a8.7,8.7,0,0,1-1-.29,7.83,7.83,0,0,1-.85-.32l-.65-.33a5.88,5.88,0,0,1-1.14-.87,2.93,2.93,0,0,1-1-2.06v6.88a2.89,2.89,0,0,0,.9,2l-.07-.07.13.14.13.13.17.15a1.57,1.57,0,0,0,.21.17.71.71,0,0,0,.14.1l.16.11.33.21c.21.11.42.23.65.33h0a6.19,6.19,0,0,0,.85.32c.34.11.68.21,1,.29a12.34,12.34,0,0,0,4.88,0h0l.06,0,.57-.13.13,0a3.69,3.69,0,0,0,.56-.19l.12,0c.21-.08.42-.16.63-.26a6,6,0,0,0,.62-.31,3.57,3.57,0,0,0,2.1-2.93V195A3.19,3.19,0,0,1,390,197.13Z" style="fill:#fff;opacity:0.5"></path><path d="M379.63,198.1V205h0c-.23-.1-.44-.22-.65-.33l-.33-.21-.3-.21a4.54,4.54,0,0,1-.51-.45V196.9a5.88,5.88,0,0,0,1.14.87Z" style="fill:#fff;opacity:0.4"></path><path d="M380.48,198.42a8.7,8.7,0,0,0,1,.29v6.88c-.35-.08-.69-.18-1-.29Z" style="fill:#fff;opacity:0.4"></path><path d="M391.21,195v6.68a3.57,3.57,0,0,1-2.1,2.93,6,6,0,0,1-.62.31c-.21.1-.42.18-.63.26l-.12,0a3.69,3.69,0,0,1-.56.19l-.13,0-.57.13-.06,0h0a12.34,12.34,0,0,1-4.88,0c-.35-.08-.69-.18-1-.29a6.19,6.19,0,0,1-.85-.32h0c-.23-.1-.44-.22-.65-.33l-.33-.21-.16-.11a.71.71,0,0,1-.14-.1,1.57,1.57,0,0,1-.21-.17l-.17-.15-.13-.13-.13-.14.07.07.06,0a5.57,5.57,0,0,0,1.79.93,5.93,5.93,0,0,0,.85.24c.33.09.68.15,1,.21a12.11,12.11,0,0,0,1.58.11,9.67,9.67,0,0,0,1.73-.16c2.46-.48,3.95-2.06,3.95-3.18v-2.75a5.39,5.39,0,0,1-.6.25,12.5,12.5,0,0,1-6.66.46c-.35-.07-.7-.16-1-.26a4.77,4.77,0,0,1-.57-.2,1.62,1.62,0,0,1-.28-.11,7.13,7.13,0,0,1-1-.47,6.7,6.7,0,0,1-.83-.57,4.34,4.34,0,0,1-1-1.08v-2.34a2.93,2.93,0,0,0,1,2.06,5.88,5.88,0,0,0,1.14.87l.65.33a7.83,7.83,0,0,0,.85.32,8.7,8.7,0,0,0,1,.29l.61.11a12.36,12.36,0,0,0,3.84,0,9.15,9.15,0,0,0,3.15-1,5.22,5.22,0,0,0,.89-.64A3.19,3.19,0,0,0,391.21,195Z" style="fill:#2C9456;opacity:0.2"></path><path d="M391.21,195v6.68a3.57,3.57,0,0,1-2.1,2.93,6,6,0,0,1-.62.31c-.21.1-.42.18-.63.26l-.12,0a3.69,3.69,0,0,1-.56.19l-.13,0-.57.13a5.53,5.53,0,0,0,2.59-1.5,3,3,0,0,0,.93-1.86v-5.11A3.19,3.19,0,0,0,391.21,195Z" style="opacity:0.1"></path><path d="M389.07,204.1a2.22,2.22,0,0,1-.37.21,11.14,11.14,0,0,1-5.61.94,10.36,10.36,0,0,1-1.58-.22c-.35-.08-.7-.16-1-.27s-.58-.21-.85-.33l-.24-.12a4,4,0,0,1-1.55-1.24,1.77,1.77,0,0,1,0-2.19,3.94,3.94,0,0,1,1.55-1.23l.24-.11.28-.13.57-.21c.33-.11.68-.19,1-.27l.61-.11a12.36,12.36,0,0,0,3.84,0,9.43,9.43,0,0,1,2.21.59,4.27,4.27,0,0,1,.53.24l.07,0a3.91,3.91,0,0,1,1.23.89C391.07,201.72,390.76,203.11,389.07,204.1Z" style="fill:#2C9456;opacity:0.30000000000000004"></path></g></g><g id="freepik--candle--inject-768"><path id="freepik--shadow--inject-768" d="M361.07,191.62c-3.25,1.88-3.25,4.92,0,6.8a13,13,0,0,0,11.77,0c3.24-1.88,3.24-4.92,0-6.8A13,13,0,0,0,361.07,191.62Z" style="opacity:0.4"></path><path d="M372,190.11a11.16,11.16,0,0,1-10.13,0c-2.8-1.61-2.8-4.23,0-5.85a11.23,11.23,0,0,1,10.13,0C374.76,185.88,374.76,188.5,372,190.11Z" style="fill:#2C9456"></path><path d="M372,190.11a11.16,11.16,0,0,1-10.13,0c-2.8-1.61-2.8-4.23,0-5.85a11.23,11.23,0,0,1,10.13,0C374.76,185.88,374.76,188.5,372,190.11Z" style="opacity:0.15"></path><g id="freepik--candle--inject-768"><path d="M360.81,183.2a1.22,1.22,0,0,1,.18.16l0,0,0,0,0,0,.24.28a.86.86,0,0,0,.07.1,1.3,1.3,0,0,1,.1.15v0l.07.13a.36.36,0,0,1,0,.09l0,.09a2.28,2.28,0,0,0,1,1.44,8,8,0,0,1,1.91,1,2.66,2.66,0,0,1,.48.55l.29.36a2,2,0,0,0,1.66.8,2,2,0,0,0,1.36-.49c.1-.09.2-.2.31-.31l.32-.36a3.23,3.23,0,0,1,.47-.45,3.84,3.84,0,0,1,1.88-.73,2.41,2.41,0,0,0,1.73-.87h0a2.26,2.26,0,0,0,.3-1.11v7.1a2.32,2.32,0,0,1-.46,1.36,4.36,4.36,0,0,1-1.4,1.21,10.08,10.08,0,0,1-9,0,3.12,3.12,0,0,1-1.87-2.57V183A1.94,1.94,0,0,1,360.81,183.2Z" style="fill:#2C9456"></path><path d="M360.81,183.2a1.22,1.22,0,0,1,.18.16l0,0,0,0,0,0,.24.28a.86.86,0,0,0,.07.1,1.3,1.3,0,0,1,.1.15v0l.07.13a.36.36,0,0,1,0,.09l0,.09a2.28,2.28,0,0,0,1,1.44,8,8,0,0,1,1.91,1,2.66,2.66,0,0,1,.48.55l.29.36a2.2,2.2,0,0,0,3,.31c.1-.09.2-.2.31-.31l.32-.36a3.23,3.23,0,0,1,.47-.45,3.84,3.84,0,0,1,1.88-.73,2.41,2.41,0,0,0,1.73-.87h0a2.26,2.26,0,0,0,.3-1.11v7.1a2.32,2.32,0,0,1-.46,1.36,4.36,4.36,0,0,1-1.4,1.21,10.08,10.08,0,0,1-9,0,3.12,3.12,0,0,1-1.87-2.57V183A1.94,1.94,0,0,1,360.81,183.2Z" style="fill:#fff;opacity:0.2"></path><path d="M360.61,182.19V183l.21.16c0,.05.11.1.16.17l.06,0c.06.06.11.13.17.2l.07.08a2.47,2.47,0,0,1,.35.61c.26.73.59,1.29,1,1.44a9,9,0,0,1,1.92,1,3.46,3.46,0,0,1,.47.56,3.17,3.17,0,0,0,.29.35,2.25,2.25,0,0,0,.71.6,1.72,1.72,0,0,0,.29.11,3,3,0,0,0,.75.07,1.92,1.92,0,0,0,.67-.11,1.77,1.77,0,0,0,.31-.15,1.37,1.37,0,0,0,.29-.2,3.2,3.2,0,0,0,.31-.32l.32-.35a3.83,3.83,0,0,1,.47-.45,4.23,4.23,0,0,1,.64-.4.87.87,0,0,1,.35,0c.34.07.31.67.31,1.18v2.29a4.36,4.36,0,0,1-.16.73.33.33,0,0,0,.29.34.31.31,0,0,0,.29-.34,6,6,0,0,1-.15-.73v-2.6c0-.5,0-1.11.31-1.18a2.4,2.4,0,0,0,1.73-.86s0,0,0,0a2.24,2.24,0,0,0,.26-.82c.15-1-.47-2.06-1.84-2.85a9.07,9.07,0,0,0-4.54-1.06,5.63,5.63,0,0,1-2.6-.89c-.57-.17-1.41-1.06-2-.86s-.55,1.5-1,1.75S360.61,181.12,360.61,182.19Z" style="fill:#2C9456"></path><path d="M360.61,182.19V183l.21.16c0,.05.11.1.16.17l.06,0c.06.06.11.13.17.2l.07.08a2.47,2.47,0,0,1,.35.61c.26.73.59,1.29,1,1.44a9,9,0,0,1,1.92,1,3.46,3.46,0,0,1,.47.56,3.17,3.17,0,0,0,.29.35,2.25,2.25,0,0,0,.71.6,1.72,1.72,0,0,0,.29.11,3,3,0,0,0,.75.07,1.92,1.92,0,0,0,.67-.11,1.77,1.77,0,0,0,.31-.15,1.37,1.37,0,0,0,.29-.2,3.2,3.2,0,0,0,.31-.32l.32-.35a3.83,3.83,0,0,1,.47-.45,4.23,4.23,0,0,1,.64-.4.87.87,0,0,1,.35,0c.34.07.31.67.31,1.18v2.29a4.36,4.36,0,0,1-.16.73.33.33,0,0,0,.29.34.31.31,0,0,0,.29-.34,6,6,0,0,1-.15-.73v-2.6c0-.5,0-1.11.31-1.18a2.4,2.4,0,0,0,1.73-.86s0,0,0,0a2.24,2.24,0,0,0,.26-.82c.15-1-.47-2.06-1.84-2.85a9.07,9.07,0,0,0-4.54-1.06,5.63,5.63,0,0,1-2.6-.89c-.57-.17-1.41-1.06-2-.86s-.55,1.5-1,1.75S360.61,181.12,360.61,182.19Z" style="fill:#fff;opacity:0.45"></path><path d="M368,184.73a2.33,2.33,0,0,1-2.12,0,.63.63,0,0,1,0-1.21,2.33,2.33,0,0,1,2.12,0A.63.63,0,0,1,368,184.73Z" style="opacity:0.15"></path><path d="M366.94,180.48a9.35,9.35,0,0,1,4.55,1.07c1.74,1,2.26,2.42,1.56,3.68h0a2.41,2.41,0,0,1-1.73.87h0c-.35.07-.31.68-.31,1.18v2.6a6.45,6.45,0,0,0,.15.73.32.32,0,0,1-.29.34.31.31,0,0,1-.27-.21h0a.19.19,0,0,0,.31,0c.15-.18,0-.31,0-.58v-2.32a8.91,8.91,0,0,1,.05-1.66c.12-.36.68-.26,1.28-.57a1.84,1.84,0,0,0,.56-2.45c-.49-1.11-2.3-1.78-3.28-2.11a32.39,32.39,0,0,0-3.87-.42c-.67-.15-.87-.57-1.35-.77s-.44-.51-.73-.7h0a3.55,3.55,0,0,0,.78.44A5.52,5.52,0,0,0,366.94,180.48Z" style="fill:#fff;opacity:0.5"></path><path d="M361.38,180.49a.59.59,0,0,0,.18-.2l0-.06a7.56,7.56,0,0,0,.27-.77c0-.07.05-.14.08-.2l0-.08c-.06.38.06,1.07-.13,1.38s-.74.32-.87.76a2,2,0,0,0,.1,1.6,3.58,3.58,0,0,1,.9,1.44,1.75,1.75,0,0,0,1.31,1.29,4,4,0,0,1,2.06,1.44,2.19,2.19,0,0,0,1.23.94,1.72,1.72,0,0,0,1.23,0c.35-.15.54-.46.87-.78a10.92,10.92,0,0,1,1-.86.67.67,0,0,1,.91.06h0a.25.25,0,0,0-.14-.08.54.54,0,0,0-.22,0l-.13,0-.28.16c-.11.07-.23.14-.36.24a3.23,3.23,0,0,0-.47.45l-.15.17-.17.18-.17.18-.14.14a1.81,1.81,0,0,1-.37.24l-.16.08-.2.06a2,2,0,0,1-.54.08,3.19,3.19,0,0,1-.71-.06l-.19-.07-.08,0-.15-.08a1.44,1.44,0,0,1-.25-.18l-.07-.05c-.1-.09-.2-.2-.3-.31a3.17,3.17,0,0,1-.29-.35,3.46,3.46,0,0,0-.47-.56,7,7,0,0,0-1.44-.78l-.1-.05-.38-.16c-.4-.14-.7-.65-1-1.32l-.05-.11a1.35,1.35,0,0,0-.17-.34,1.67,1.67,0,0,0-.18-.28l0,0,0,0-.1-.12a.27.27,0,0,1-.07-.08l0,0,0,0-.08-.07-.09-.1-.21-.16v-.84C360.61,181.12,361,180.72,361.38,180.49Z" style="fill:#fff;opacity:0.5"></path><path d="M366.56,181.27c1.77-.17,4.82.5,5.63,2a1.5,1.5,0,0,1-.37,2.17A1.94,1.94,0,0,0,371,183,8.94,8.94,0,0,0,366.56,181.27Z" style="opacity:0.05"></path><path d="M364.61,181.34c-2.11.29-2.83,1.35-2.77,2.08,0,0-.57-.5-.57-.92s.55-.77.82-1.07.22-1.27.72-1.26S363.36,181.18,364.61,181.34Z" style="opacity:0.05"></path><g id="freepik--flame--inject-768"><path d="M367,182.07c1-.07,1.66-1.14,1-2.63s-1.09-2.3-.84-3.81a8.89,8.89,0,0,0-1.12,2.24,8.19,8.19,0,0,0-.52,2.15C365.43,181.39,366.11,182.07,367,182.07Z" style="fill:#2C9456"></path><path d="M367,182.07c1-.07,1.66-1.14,1-2.63s-1.09-2.3-.84-3.81a8.89,8.89,0,0,0-1.12,2.24,8.19,8.19,0,0,0-.52,2.15C365.43,181.39,366.11,182.07,367,182.07Z" style="fill:#fff;opacity:0.6000000000000001"></path><path d="M367,182c.3,0,.62-.39.77-.68a2,2,0,0,0-.11-1.71l-.1-.23a8.27,8.27,0,0,1-.79-2.28,8.29,8.29,0,0,0-.38.92,8,8,0,0,0-.5,2.06,1.85,1.85,0,0,0,.3,1.38A1.37,1.37,0,0,0,367,182Z" style="fill:#fff;opacity:0.8"></path><path d="M367.05,181.93a1,1,0,0,0,.37-1c-.09-.49-.55-1.13-.55-1.34a3.85,3.85,0,0,0-.44,1.26A1,1,0,0,0,367.05,181.93Z" style="fill:#2C9456"></path><path d="M367.05,181.93a1,1,0,0,0,.37-1c-.09-.49-.55-1.13-.55-1.34a3.85,3.85,0,0,0-.44,1.26A1,1,0,0,0,367.05,181.93Z" style="opacity:0.15"></path><path d="M367,184.18a.29.29,0,0,0,.22-.17,2.17,2.17,0,0,0,.07-.24,1.83,1.83,0,0,0,.05-.47c0-.16,0-.32-.05-.47l-.09-.44c-.06-.3-.14-.58-.19-.87a4.2,4.2,0,0,1,0-.87h0a4.43,4.43,0,0,0-.1.9c0,.3.05.6.08.89s0,.29,0,.44a2.94,2.94,0,0,1,0,.42c0,.13,0,.27-.05.4a1.77,1.77,0,0,0,0,.2.28.28,0,0,0,0,.24Z" style="fill:#37474f"></path></g></g><g id="freepik--jar--inject-768"><path d="M372.85,189.48a4.69,4.69,0,0,1-.89.63,8.88,8.88,0,0,1-3.15,1,11.78,11.78,0,0,1-3.84,0,4.34,4.34,0,0,1-.61-.11,7.11,7.11,0,0,1-1-.28,7.83,7.83,0,0,1-.85-.32c-.23-.11-.45-.22-.65-.34a5.48,5.48,0,0,1-1.14-.86,2.93,2.93,0,0,1-1-2.06v6.88a2.85,2.85,0,0,0,.9,2,.2.2,0,0,1-.07-.06.83.83,0,0,0,.13.14l.13.13.17.15.21.17a.71.71,0,0,0,.14.1l.16.11.33.2c.21.12.42.23.65.34h0a7.83,7.83,0,0,0,.85.32,9.22,9.22,0,0,0,1,.28,12,12,0,0,0,4.88,0h0l.06,0,.57-.13.13,0a3.65,3.65,0,0,0,.56-.18.27.27,0,0,0,.12,0c.21-.08.42-.16.63-.26A4.54,4.54,0,0,0,372,197a3.54,3.54,0,0,0,2.1-2.92v-6.68A3.19,3.19,0,0,1,372.85,189.48Z" style="fill:#2C9456"></path><path d="M372.85,189.48a4.69,4.69,0,0,1-.89.63,8.88,8.88,0,0,1-3.15,1,11.78,11.78,0,0,1-3.84,0,4.34,4.34,0,0,1-.61-.11,7.11,7.11,0,0,1-1-.28,7.83,7.83,0,0,1-.85-.32c-.23-.11-.45-.22-.65-.34a5.48,5.48,0,0,1-1.14-.86,2.93,2.93,0,0,1-1-2.06v6.88a2.85,2.85,0,0,0,.9,2,.2.2,0,0,1-.07-.06.83.83,0,0,0,.13.14l.13.13.17.15.21.17a.71.71,0,0,0,.14.1l.16.11.33.2c.21.12.42.23.65.34h0a7.83,7.83,0,0,0,.85.32,9.22,9.22,0,0,0,1,.28,12,12,0,0,0,4.88,0h0l.06,0,.57-.13.13,0a3.65,3.65,0,0,0,.56-.18.27.27,0,0,0,.12,0c.21-.08.42-.16.63-.26A4.54,4.54,0,0,0,372,197a3.54,3.54,0,0,0,2.1-2.92v-6.68A3.19,3.19,0,0,1,372.85,189.48Z" style="fill:#fff;opacity:0.5"></path><path d="M362.48,190.45v6.88h0c-.23-.11-.44-.22-.65-.34l-.33-.2-.3-.21a5.83,5.83,0,0,1-.51-.45v-6.88a5.48,5.48,0,0,0,1.14.86C362,190.23,362.25,190.34,362.48,190.45Z" style="fill:#fff;opacity:0.4"></path><path d="M363.33,190.77a7.11,7.11,0,0,0,1,.28v6.88a9.22,9.22,0,0,1-1-.28Z" style="fill:#fff;opacity:0.4"></path><path d="M374.06,187.39v6.68A3.54,3.54,0,0,1,372,197a4.54,4.54,0,0,1-.62.32c-.21.1-.42.18-.63.26a.27.27,0,0,1-.12,0,3.65,3.65,0,0,1-.56.18l-.13,0-.57.13-.06,0h0a12,12,0,0,1-4.88,0,9.22,9.22,0,0,1-1-.28,7.83,7.83,0,0,1-.85-.32h0c-.23-.11-.44-.22-.65-.34l-.33-.2-.16-.11a.71.71,0,0,1-.14-.1l-.21-.17-.17-.15-.13-.13a.83.83,0,0,1-.13-.14.2.2,0,0,0,.07.06l.06.06a5.57,5.57,0,0,0,1.79.93,5.93,5.93,0,0,0,.85.24,8.53,8.53,0,0,0,1,.2,10.51,10.51,0,0,0,1.58.12,9.67,9.67,0,0,0,1.73-.16c2.46-.48,3.95-2.06,3.95-3.18v-2.75a5.39,5.39,0,0,1-.6.25,12.5,12.5,0,0,1-6.66.46c-.35-.08-.7-.16-1-.27a3.47,3.47,0,0,1-.57-.19l-.28-.11a8.56,8.56,0,0,1-1-.47,6,6,0,0,1-.83-.57,4.34,4.34,0,0,1-1-1.08v-2.34a2.93,2.93,0,0,0,1,2.06,5.48,5.48,0,0,0,1.14.86c.2.12.42.23.65.34a7.83,7.83,0,0,0,.85.32,7.11,7.11,0,0,0,1,.28,4.34,4.34,0,0,0,.61.11,11.78,11.78,0,0,0,3.84,0,8.88,8.88,0,0,0,3.15-1,4.69,4.69,0,0,0,.89-.63A3.19,3.19,0,0,0,374.06,187.39Z" style="fill:#2C9456;opacity:0.2"></path><path d="M374.06,187.39v6.68A3.54,3.54,0,0,1,372,197a4.54,4.54,0,0,1-.62.32c-.21.1-.42.18-.63.26a.27.27,0,0,1-.12,0,3.65,3.65,0,0,1-.56.18l-.13,0-.57.13a5.61,5.61,0,0,0,2.59-1.5,3,3,0,0,0,.93-1.86v-5.11A3.19,3.19,0,0,0,374.06,187.39Z" style="opacity:0.1"></path><path d="M371.92,196.45a2,2,0,0,1-.38.21,11.08,11.08,0,0,1-5.6.94,11.79,11.79,0,0,1-1.58-.23,8.62,8.62,0,0,1-1-.26,7.17,7.17,0,0,1-.85-.34l-.24-.11a4,4,0,0,1-1.55-1.24,1.77,1.77,0,0,1,0-2.19,4,4,0,0,1,1.55-1.24l.24-.11.28-.12c.18-.07.37-.15.57-.21a8.64,8.64,0,0,1,1-.27l.61-.12a11.78,11.78,0,0,0,3.84,0,10,10,0,0,1,2.21.6l.52.23.08,0a3.91,3.91,0,0,1,1.23.89C373.92,194.07,373.61,195.45,371.92,196.45Z" style="fill:#2C9456;opacity:0.30000000000000004"></path></g></g><g id="freepik--Incense--inject-768"><polygon id="freepik--shadow--inject-768" points="355.6 224.54 320.84 204.47 330.99 198.59 365.8 218.65 355.6 224.54" style="opacity:0.4"></polygon><polygon points="355.46 222.87 322.95 204.1 322.95 203.05 331.07 198.35 363.64 217.12 363.64 218.17 355.46 222.87" style="fill:#263238"></polygon><polygon points="355.46 221.82 322.95 203.05 331.07 198.35 363.64 217.12 355.46 221.82" style="fill:#455a64"></polygon><path id="freepik--shadow--inject-768" d="M354.59,216.62c-.47.28-.47.72,0,1a1.91,1.91,0,0,0,1.71,0c.47-.27.47-.71,0-1A1.91,1.91,0,0,0,354.59,216.62Z" style="fill:#263238"></path><path d="M355.44,217.49a.36.36,0,0,1-.27-.12L329.43,190a.37.37,0,1,1,.54-.51l25.75,27.35a.38.38,0,0,1,0,.53A.35.35,0,0,1,355.44,217.49Z" style="fill:#263238"></path><g style="opacity:0.2"><path d="M329.09,188.21c-1.52-1.5-3.33-6.18-.67-9.86,2.23-3.08,4-3.8,4.68-6.43a4.82,4.82,0,0,0-.53-4,4,4,0,0,0-3.7-1.36c3-1.69,7.53.7,7.34,5.07-.16,3.87-2,5.14-4.6,7.7C329.18,181.67,327.63,185.09,329.09,188.21Z" style="fill:#fff"></path><path d="M329.86,188.73c-.33-1.15-1-3.88.4-5.83s5.07-4.35,6-6.73c-.17,2.13-.91,3.48-3.4,6S329.57,186.29,329.86,188.73Z" style="fill:#fff"></path></g></g><g id="freepik--Towels--inject-768"><polygon id="freepik--shadow--inject-768" points="288.27 192.28 255.76 173.53 288.27 154.76 320.74 173.52 288.27 192.28" style="opacity:0.4"></polygon><path d="M317.47,168.79v3.81a1.69,1.69,0,0,1-.84,1.46l-27.34,15.79a1.65,1.65,0,0,1-1.62.17l-29-16.75a1.4,1.4,0,0,1-.59-1.29,4.74,4.74,0,0,1,2.21-3.67L288.46,152Z" style="fill:#e6e6e6"></path><path d="M289.29,185.06l28.18-16.27v3.81a1.69,1.69,0,0,1-.84,1.46l-27.34,15.79c-1.22.7-2.21.2-2.21-1.12A4.74,4.74,0,0,1,289.29,185.06Z" style="opacity:0.2"></path><path d="M290.58,185.91a1.58,1.58,0,0,0-.74,1.22c0,.44.33.61.74.38L317.47,172v-1.6Z" style="opacity:0.2"></path><path d="M317.47,163.6v3.82a1.67,1.67,0,0,1-.84,1.45l-27.34,15.79a1.6,1.6,0,0,1-1.62.17l-29-16.75a1.4,1.4,0,0,1-.59-1.29,4.75,4.75,0,0,1,2.21-3.67l28.18-16.27Z" style="fill:#f0f0f0"></path><path d="M289.29,179.87l28.18-16.27v3.82a1.67,1.67,0,0,1-.84,1.45l-27.34,15.79c-1.22.7-2.21.2-2.21-1.12A4.75,4.75,0,0,1,289.29,179.87Z" style="opacity:0.2"></path><path d="M290.58,180.72a1.58,1.58,0,0,0-.74,1.23c0,.44.33.6.74.37l26.89-15.53V165.2Z" style="opacity:0.2"></path><path d="M317.47,158.09v3.81a1.69,1.69,0,0,1-.84,1.46l-27.34,15.78a1.63,1.63,0,0,1-1.62.18l-29-16.76a1.38,1.38,0,0,1-.59-1.28,4.72,4.72,0,0,1,2.21-3.67l28.18-16.27Z" style="fill:#fafafa"></path><path d="M289.29,174.36l28.18-16.27v3.81a1.69,1.69,0,0,1-.84,1.46l-27.34,15.78c-1.22.71-2.21.21-2.21-1.11A4.72,4.72,0,0,1,289.29,174.36Z" style="opacity:0.2"></path><path d="M290.58,175.21a1.56,1.56,0,0,0-.74,1.22c0,.44.33.61.74.37l26.89-15.52v-1.6Z" style="opacity:0.2"></path></g></g></g><g id="freepik--Mirror--inject-768"><g id="freepik--mirror--inject-768"><path d="M471.5,321.79a6.31,6.31,0,0,1-3.14-1L428,297.49a18.28,18.28,0,0,1-7.79-10.77L402.25,200.6a1.33,1.33,0,1,1,2.61-.54l17.95,86.11a15.76,15.76,0,0,0,6.51,9l40.37,23.31c1.14.65,1.95.73,2.25.52s.49-1,.22-2.3L454.5,230.76a1.34,1.34,0,0,1,2.62-.53l17.66,85.94c.64,3.1-.52,4.46-1.27,5A3.44,3.44,0,0,1,471.5,321.79Z" style="fill:#455a64"></path><polygon points="393.36 307.31 453.09 341.8 463.95 153.68 404.22 119.19 393.36 307.31" style="fill:#2C9456"></polygon><polygon points="397.5 305.07 407.86 125.93 459.81 155.92 449.45 335.07 397.5 305.07" style="fill:#fafafa"></polygon><polygon points="466.71 152.09 463.95 153.68 453.09 341.8 455.85 340.21 466.71 152.09" style="fill:#2C9456"></polygon><polygon points="466.71 152.09 463.95 153.68 453.09 341.8 455.85 340.21 466.71 152.09" style="opacity:0.2"></polygon><polygon points="406.98 117.6 404.22 119.19 463.95 153.68 466.71 152.09 406.98 117.6" style="fill:#2C9456"></polygon><polygon points="406.98 117.6 404.22 119.19 463.95 153.68 466.71 152.09 406.98 117.6" style="fill:#fff;opacity:0.2"></polygon><g id="freepik--Shines--inject-768" style="opacity:0.1"><polygon points="402.04 226.52 401.61 234 458.59 177.02 459.02 169.54 402.04 226.52" style="fill:#2C9456"></polygon><polygon points="406.91 142.26 406.48 149.74 422.08 134.14 417.62 131.56 406.91 142.26" style="fill:#2C9456"></polygon><polygon points="440.38 144.71 429.24 138.27 405.79 161.73 404.71 180.38 440.38 144.71" style="fill:#2C9456"></polygon><polygon points="457.98 187.56 401 244.54 400.23 257.94 457.21 200.96 457.98 187.56" style="fill:#2C9456"></polygon><polygon points="451.74 295.52 452.82 276.87 414.69 315 425.83 321.43 451.74 295.52" style="fill:#2C9456"></polygon><polygon points="453.57 263.87 454 256.39 402.46 307.93 406.93 310.51 453.57 263.87" style="fill:#2C9456"></polygon><polygon points="456.33 216.17 456.76 208.69 399.78 265.67 399.35 273.15 456.33 216.17" style="fill:#2C9456"></polygon></g></g></g><g id="freepik--speech-bubble--inject-768"><g id="freepik--speech-bubble--inject-768"><path id="freepik--speech-bubble--inject-768" d="M249.48,38.81H215.2a2.8,2.8,0,0,0-2.8,2.8V85.44a2.8,2.8,0,0,0,2.8,2.81h11.73L231,96.39a1.48,1.48,0,0,0,2.66,0l4.08-8.14h11.73a2.81,2.81,0,0,0,2.81-2.81V41.61A2.8,2.8,0,0,0,249.48,38.81Z" style="fill:#fafafa"></path><path d="M232.34,97.72a2,2,0,0,1-1.78-1.1l-3.93-7.87H215.2a3.31,3.31,0,0,1-3.3-3.31V41.61a3.3,3.3,0,0,1,3.3-3.3h34.28a3.31,3.31,0,0,1,3.31,3.3V85.44a3.32,3.32,0,0,1-3.31,3.31H238.06l-3.94,7.87A2,2,0,0,1,232.34,97.72ZM215.2,39.31a2.3,2.3,0,0,0-2.3,2.3V85.44a2.31,2.31,0,0,0,2.3,2.31h12l4.22,8.42a1,1,0,0,0,1.77,0l4.21-8.42h12a2.32,2.32,0,0,0,2.31-2.31V41.61a2.31,2.31,0,0,0-2.31-2.3Z" style="fill:#e0e0e0"></path><g id="freepik--Icon--inject-768"><path d="M228.05,83.44a.51.51,0,0,1-.38-.16.54.54,0,0,1-.15-.39,22.22,22.22,0,0,0-.14-2.94c-.08-.86-1-1.88-1.94-3a17.77,17.77,0,0,1-2.05-2.6,29.57,29.57,0,0,1-2.29-6.45c-.12-.42-.22-.8-.31-1.11-.41-1.4-.06-2.12.3-2.48A1.74,1.74,0,0,1,223,64c1.57.48,2.45,2.15,3,3.55a3.48,3.48,0,0,0,.45.8c0-2.06,0-6.91,0-9.07,0-2.38,0-4.44,2.13-4.71a2.19,2.19,0,0,1,1.26.21,2.17,2.17,0,0,1,4.29-.24,2.08,2.08,0,0,1,1.14-.23c1.67.1,2.1,1.47,2.2,2.74a1.9,1.9,0,0,1,.7-.19c2-.11,2.42,2,2.58,3.83a63.72,63.72,0,0,1,.15,11.16,20.1,20.1,0,0,1-.91,4.81,20.5,20.5,0,0,0-.94,6.08.53.53,0,0,1-.52.51l-10.42.15Zm10.42-.68h0ZM222.19,65a.5.5,0,0,0-.36.11c-.16.17-.26.63,0,1.44.1.31.2.69.32,1.12a28,28,0,0,0,2.18,6.18,17,17,0,0,0,1.93,2.45c1.07,1.22,2.09,2.36,2.21,3.56s.14,2,.15,2.54l9.37-.14a20.73,20.73,0,0,1,1-5.83,19.14,19.14,0,0,0,.86-4.6,61.34,61.34,0,0,0-.14-10.94c-.26-3-1.06-2.94-1.46-2.92a1,1,0,0,0-.78.66.52.52,0,0,1-.59.34.53.53,0,0,1-.44-.53c.06-2.47-.38-3-1.22-3s-.88.46-.89.48a.49.49,0,0,1-.54.39.52.52,0,0,1-.49-.46c-.19-1.51-.52-2-1.41-1.9-.6,0-1.14.36-1.05,2.37a1.93,1.93,0,0,1,0,.24.53.53,0,0,1-1.06,0c0-.06,0-.12,0-.19a.83.83,0,0,0-.25-.48,1,1,0,0,0-.81-.21c-.91.12-1.18.61-1.2,3.67,0,2.78,0,10,0,10a.55.55,0,0,1-.53.53c-.1,0-1.21,0-2-1.87-.49-1.19-1.21-2.6-2.36-3A1.6,1.6,0,0,0,222.19,65Z" style="fill:#2C9456"></path><path d="M230.4,63.78a.53.53,0,0,1-.53-.52l-.14-6.74a.53.53,0,0,1,.52-.54.54.54,0,0,1,.54.52l.14,6.74a.53.53,0,0,1-.52.54Z" style="fill:#2C9456"></path><path d="M237,64.45a.52.52,0,0,1-.52-.52l-.14-6.74a.53.53,0,0,1,.51-.54.55.55,0,0,1,.54.52l.14,6.74a.52.52,0,0,1-.51.54Z" style="fill:#2C9456"></path><path d="M233.94,63.73a.53.53,0,0,1-.53-.51l-.15-7.59a.52.52,0,0,1,.52-.54h0a.52.52,0,0,1,.52.51l.16,7.6a.51.51,0,0,1-.52.53Z" style="fill:#2C9456"></path><path d="M238.06,53.35a.54.54,0,0,1-.53-.48,5.78,5.78,0,0,0-6.09-5.24.53.53,0,1,1-.07-1.05,6.86,6.86,0,0,1,3.71.83,6.79,6.79,0,0,1,3.5,5.36.51.51,0,0,1-.47.57Z" style="fill:#2C9456"></path><path d="M225.57,54.82a.54.54,0,0,1-.53-.45,6.82,6.82,0,0,1,.78-4.27,6.9,6.9,0,0,1,2.23-2.42.52.52,0,0,1,.73.16.53.53,0,0,1-.15.73,5.87,5.87,0,0,0-1.89,2,5.71,5.71,0,0,0-.65,3.6.53.53,0,0,1-.45.6Z" style="fill:#2C9456"></path><path d="M241.67,57.27a.51.51,0,0,1-.17,0,.53.53,0,0,1-.33-.67,9.9,9.9,0,0,0-13.58-12.15.53.53,0,1,1-.45-1,11,11,0,0,1,15,13.45A.53.53,0,0,1,241.67,57.27Z" style="fill:#2C9456"></path><path d="M222.65,48.89a.45.45,0,0,1-.25-.07.53.53,0,0,1-.21-.72A10.89,10.89,0,0,1,224.71,45a.53.53,0,1,1,.69.8,9.61,9.61,0,0,0-2.28,2.79A.53.53,0,0,1,222.65,48.89Z" style="fill:#2C9456"></path><path d="M224.28,61.16a.57.57,0,0,1-.38-.16A11,11,0,0,1,221,51.42a.53.53,0,1,1,1,.19,9.91,9.91,0,0,0,2.61,8.65.53.53,0,0,1-.38.9Z" style="fill:#2C9456"></path></g></g></g><g id="freepik--Characters--inject-768"><g id="freepik--characters--inject-768"><g id="freepik--Character--inject-768"><path d="M199.06,345.26a3.41,3.41,0,0,0,.64,3.44c1.37,1.19,5.41,3.14,10.75,2.45s8.22-2.34,10.36-4.13,5.13-4.31,7.54-4.84a14.49,14.49,0,0,0,5.39-2.21c.72-.69.62-3.77.62-3.77Z" style="fill:#455a64"></path><path d="M232.23,324.34a.86.86,0,0,1,.81.72c.16.85.34,3.32.7,4.72a25,25,0,0,1,.52,7.48c-.29,1.58-3.95,2.68-6.28,3.57a29.6,29.6,0,0,0-7.57,4.78c-2.51,2.06-7.78,4.22-11.26,4.19-4.12,0-8.75-1.36-9.81-3.27-1.31-2.36-.28-3.73,5.82-6.56,1.15-.53,5.21-2.93,6.59-3.8,3.74-2.36,7.45-5.64,9.17-9.8a2.31,2.31,0,0,1,.88-1.28A1.89,1.89,0,0,1,223,325a10.08,10.08,0,0,1,2.94.88c.82.39,2,.85,2,1.89a3.59,3.59,0,0,1-.23,1.07c-.07.21-.13.5.06.63s.41,0,.57-.16a15.53,15.53,0,0,0,1.64-2,6,6,0,0,1,1-1,11,11,0,0,0,1-.68C232.3,325.29,232.22,324.83,232.23,324.34Z" style="fill:#2C9456"></path><path d="M232.23,324.34a.86.86,0,0,1,.81.72c.16.85.34,3.32.7,4.72a25,25,0,0,1,.52,7.48c-.29,1.58-3.95,2.68-6.28,3.57a29.6,29.6,0,0,0-7.57,4.78c-2.51,2.06-7.78,4.22-11.26,4.19-4.12,0-8.75-1.36-9.81-3.27-1.31-2.36-.28-3.73,5.82-6.56,1.15-.53,5.21-2.93,6.59-3.8,3.74-2.36,7.45-5.64,9.17-9.8a2.31,2.31,0,0,1,.88-1.28A1.89,1.89,0,0,1,223,325a10.08,10.08,0,0,1,2.94.88c.82.39,2,.85,2,1.89a3.59,3.59,0,0,1-.23,1.07c-.07.21-.13.5.06.63s.41,0,.57-.16a15.53,15.53,0,0,0,1.64-2,6,6,0,0,1,1-1,11,11,0,0,0,1-.68C232.3,325.29,232.22,324.83,232.23,324.34Z" style="fill:#fff;opacity:0.9"></path><path d="M220.41,345.61a40,40,0,0,1,3.33-2.49h0s-7.18,4.36-10.08,2.38c-1.86-1.28-1-2.83-.93-3.32s-4.56-2.62-6.38-2.83h0c-.5.28-.93.5-1.19.62-6.1,2.83-7.13,4.2-5.82,6.56,1.06,1.91,4.42,3.4,9.74,3.4C212.55,349.93,217.9,347.67,220.41,345.61Z" style="fill:#2C9456;opacity:0.8"></path><path d="M220.41,345.61a40,40,0,0,1,3.33-2.49h0s-7.18,4.36-10.08,2.38c-1.86-1.28-1-2.83-.93-3.32s-4.56-2.62-6.38-2.83h0c-.5.28-.93.5-1.19.62-6.1,2.83-7.13,4.2-5.82,6.56,1.06,1.91,4.42,3.4,9.74,3.4C212.55,349.93,217.9,347.67,220.41,345.61Z" style="fill:#fff;opacity:0.8"></path><path d="M213.23,340.73c-3.79,1.52-2.18,2.23-1.11,2.38s7.44-3.58,11.34-6.66c4.06-3.21,6.62-6.73,8.13-7.91.56-.44,1.17-1,1.71-1.48-.1-.84-.18-1.6-.26-2a.86.86,0,0,0-.81-.72c0,.49.07,1-.3,1.32a11,11,0,0,1-1,.68,5.62,5.62,0,0,0-1,1,15.53,15.53,0,0,1-1.64,2C225,333.5,217,339.22,213.23,340.73Z" style="fill:#2C9456"></path><path d="M212.39,342.55a.34.34,0,0,0,.23-.08.38.38,0,0,0,.06-.53,9,9,0,0,0-7-2.74.38.38,0,0,0-.34.41.38.38,0,0,0,.42.34,8.38,8.38,0,0,1,6.29,2.47A.36.36,0,0,0,212.39,342.55Z" style="fill:#fafafa"></path><path d="M215.7,340.52a.35.35,0,0,0,.23-.09.38.38,0,0,0,.06-.53,9.06,9.06,0,0,0-7-2.74.39.39,0,0,0-.34.42.38.38,0,0,0,.42.33,8.38,8.38,0,0,1,6.29,2.47A.37.37,0,0,0,215.7,340.52Z" style="fill:#fafafa"></path><path d="M219,338.59a.35.35,0,0,0,.23-.09.37.37,0,0,0,.06-.52,9,9,0,0,0-7-2.74.37.37,0,0,0-.34.41.38.38,0,0,0,.42.33,8.38,8.38,0,0,1,6.29,2.47A.37.37,0,0,0,219,338.59Z" style="fill:#fafafa"></path><path d="M222.07,336.39a.36.36,0,0,0,.24-.09.38.38,0,0,0,.05-.53,9.07,9.07,0,0,0-7-2.74.38.38,0,0,0-.33.42.37.37,0,0,0,.41.33,8.36,8.36,0,0,1,6.29,2.47A.38.38,0,0,0,222.07,336.39Z" style="fill:#fafafa"></path><path d="M225.08,334.18a.34.34,0,0,0,.23-.08.38.38,0,0,0,.06-.53c-1.47-1.86-4.8-3.08-7.59-2.77a.37.37,0,0,0,.08.74c2.51-.27,5.62.85,6.92,2.5A.41.41,0,0,0,225.08,334.18Z" style="fill:#fafafa"></path><path d="M255.42,361.89c-.15,3.62.17,6.07,1.23,8.32a5.34,5.34,0,0,0,5.92,2.77c2.51-.37,5.81-1.71,6.82-4.75a19.8,19.8,0,0,0,.87-8.59Z" style="fill:#455a64"></path><path d="M267.77,336.74c1,.19.81,5.06.91,10,.1,5.26,1.43,7.56,1.56,11.88.15,4.93-.33,7.08-2.33,9.86s-8.33,5.05-10.88.53c-2.08-3.68-1.8-7.5-1.09-12.34.73-5,1.29-8.52,1.47-12.35.17-3.67.27-7.23,1.19-7.55,0,.55,0,1.23,0,1.77s-.09,2.39.48,2.46a7.76,7.76,0,0,0,.14-1.37,1.68,1.68,0,0,1,.4-1.15,1.89,1.89,0,0,1,1.17-.38,28,28,0,0,1,3-.16c.51,0,1,0,1.52.08a4.17,4.17,0,0,1,1.25.31.93.93,0,0,1,.5.55,1.51,1.51,0,0,1,0,.56,3.87,3.87,0,0,0,0,1c0,.14.11.33.25.31s.18-.16.2-.28c.06-.59,0-1,.07-1.71,0-.31,0-.75,0-1.07S267.76,337.06,267.77,336.74Z" style="fill:#2C9456"></path><path d="M267.77,336.74c1,.19.81,5.06.91,10,.1,5.26,1.43,7.56,1.56,11.88.15,4.93-.33,7.08-2.33,9.86s-8.33,5.05-10.88.53c-2.08-3.68-1.8-7.5-1.09-12.34.73-5,1.29-8.52,1.47-12.35.17-3.67.27-7.23,1.19-7.55,0,.55,0,1.23,0,1.77s-.09,2.39.48,2.46a7.76,7.76,0,0,0,.14-1.37,1.68,1.68,0,0,1,.4-1.15,1.89,1.89,0,0,1,1.17-.38,28,28,0,0,1,3-.16c.51,0,1,0,1.52.08a4.17,4.17,0,0,1,1.25.31.93.93,0,0,1,.5.55,1.51,1.51,0,0,1,0,.56,3.87,3.87,0,0,0,0,1c0,.14.11.33.25.31s.18-.16.2-.28c.06-.59,0-1,.07-1.71,0-.31,0-.75,0-1.07S267.76,337.06,267.77,336.74Z" style="fill:#fff;opacity:0.9"></path><path d="M270.15,357.18c0,.71.16,5.42-1.19,6.14s-1.85-3-1.85-3-3.12-1.3-8,.27c.16.78-.81,3.2-2,2.54s-1.19-6-1.19-6.1c-.66,4.64-.87,8.35,1.15,11.92,2.55,4.52,8.88,2.24,10.88-.53s2.48-4.93,2.33-9.86C270.23,358.1,270.19,357.63,270.15,357.18Z" style="fill:#2C9456"></path><path d="M270.15,357.18c0,.71.16,5.42-1.19,6.14s-1.85-3-1.85-3-3.12-1.3-8,.27c.16.78-.81,3.2-2,2.54s-1.19-6-1.19-6.1c-.66,4.64-.87,8.35,1.15,11.92,2.55,4.52,8.88,2.24,10.88-.53s2.48-4.93,2.33-9.86C270.23,358.1,270.19,357.63,270.15,357.18Z" style="fill:#fff;opacity:0.8"></path><path d="M266.71,360.63c-.16,1.76,1.64,1.34,2-1.14s-.45-8.51,0-12.78c-.1-4.91.09-9.78-.91-10,0,.06,0,.12,0,.18l-.11,2.48c0,.36,0,.68,0,1.06-.34,3.59-.53,10.58-.55,13.9A56.8,56.8,0,0,1,266.71,360.63Z" style="fill:#2C9456"></path><path d="M259.66,360.63a56.8,56.8,0,0,1-.34-6.27c0-3.29-.21-10.2-.54-13.81a8.9,8.9,0,0,1-.15-2c0-.5,0-1.13,0-1.65,0,0,0-.07,0-.11-.66.24-.9,2.18-1,4.63,0,1.42,0,3.19.14,5.33.44,4.27-.34,10.34,0,12.82S259.81,362.39,259.66,360.63Z" style="fill:#2C9456"></path><path d="M259,360.76a.32.32,0,0,0,.14,0,12,12,0,0,1,7.85,0,.37.37,0,0,0,.48-.21.39.39,0,0,0-.22-.49,12.5,12.5,0,0,0-8.39,0,.37.37,0,0,0-.2.49A.36.36,0,0,0,259,360.76Z" style="fill:#fafafa"></path><path d="M258.54,356.85l.12,0a14.73,14.73,0,0,1,8.78,0,.38.38,0,0,0,.48-.24.38.38,0,0,0-.23-.48,15.38,15.38,0,0,0-9.28,0,.38.38,0,0,0-.23.48A.39.39,0,0,0,258.54,356.85Z" style="fill:#fafafa"></path><path d="M267.57,353.15a.38.38,0,0,0,.34-.22.39.39,0,0,0-.19-.5c-4.36-2-9.06-.13-9.25-.05a.36.36,0,0,0-.21.49.37.37,0,0,0,.49.2s4.6-1.8,8.66.05A.41.41,0,0,0,267.57,353.15Z" style="fill:#fafafa"></path><path d="M267.65,349.7a.39.39,0,0,0,.34-.21.37.37,0,0,0-.18-.5,11.6,11.6,0,0,0-9.43-.1.37.37,0,0,0-.18.5.38.38,0,0,0,.5.17,11.1,11.1,0,0,1,8.79.11A.45.45,0,0,0,267.65,349.7Z" style="fill:#fafafa"></path><path d="M267.73,345.83a.39.39,0,0,0,.34-.21.38.38,0,0,0-.17-.5c-4.48-2.21-9.31-.1-9.52,0a.38.38,0,0,0,.31.69c.05,0,4.71-2.06,8.87,0A.35.35,0,0,0,267.73,345.83Z" style="fill:#ebebeb"></path><path d="M262.21,200.2a69.43,69.43,0,0,1,5.32,20c1.93,25,1.22,57.24,1.22,57.24.22,2.62,1.88,8.56,3,20.07,1.32,13.6-1.29,50.11-1.29,50.11s-8.14,4.85-14.47-.67c0,0-6.4-53.77-8.11-67.3-1.49-11.8-6-33.62-6-33.62l-3.79,26.63s-.3,18-.61,24.9c-.37,8-2.22,31.84-2.22,31.84s-11.18,3.79-16.17-1.58c0,0-.83-47-1-56.64-.33-18.85-1.08-42,2-61.81Z" style="fill:#2C9456"></path><path d="M262.21,200.2a69.43,69.43,0,0,1,5.32,20c1.93,25,1.22,57.24,1.22,57.24.22,2.62,1.88,8.56,3,20.07,1.32,13.6-1.29,50.11-1.29,50.11s-8.14,4.85-14.47-.67c0,0-6.4-53.77-8.11-67.3-1.49-11.8-6-33.62-6-33.62l-3.79,26.63s-.3,18-.61,24.9c-.37,8-2.22,31.84-2.22,31.84s-11.18,3.79-16.17-1.58c0,0-.83-47-1-56.64-.33-18.85-1.08-42,2-61.81Z" style="opacity:0.2"></path><path d="M241.89,246l-2-15.13s-10.15-1.36-14.75-5.68a16.68,16.68,0,0,0,12,7.56l2.1,14-.47,21.37Z" style="opacity:0.2"></path><path d="M231.06,178.38l-15.42,2.39v13.68c-3.19,3.22-11.14,11.37-16.81,18.36l10.54,5.61c2.21-2.66,8.4-7.56,14.17-11.72,6-4.3,7.52-7.59,7.52-7.59C231.91,197.59,231.06,178.38,231.06,178.38Z" style="fill:#ffc4c3"></path><path d="M225.89,152c-6,.81-8.08,2.45-10.24,7.31s-.57,29.34-.57,29.34h18.56Z" style="fill:#2C9456"></path><path d="M225.89,152c-6,.81-8.08,2.45-10.24,7.31s-.57,29.34-.57,29.34h18.56Z" style="opacity:0.1"></path><path d="M219.08,183.85c.63,4.92,1.09,14.57,1.09,14.57-1.31,12.68-1.61,21.46-1.61,21.46,19.21,9.35,46.67,3.74,50.09-.53-2.23-12.29-5.62-19-8.42-25.89l3.13-22S255,165,255.21,151.27c0,0-6.63-1.77-11-1.65-11.45.31-18.29,2.42-18.29,2.42a64.24,64.24,0,0,0-9.41,12.67C213,170.76,213.18,178.12,219.08,183.85Z" style="fill:#2C9456"></path><g style="opacity:0.30000000000000004"><path d="M219.08,183.85c.63,4.92,1.09,14.57,1.09,14.57-1.31,12.68-1.61,21.46-1.61,21.46,19.21,9.35,46.67,3.74,50.09-.53-2.23-12.29-5.62-19-8.42-25.89l3.13-22S255,165,255.21,151.27c0,0-6.63-1.77-11-1.65-11.45.31-18.29,2.42-18.29,2.42a64.24,64.24,0,0,0-9.41,12.67C213,170.76,213.18,178.12,219.08,183.85Z" style="fill:#fff"></path></g><path d="M244.18,149.62a88.44,88.44,0,0,0-14.74,1.57,58.58,58.58,0,0,0-3,8.8,11.8,11.8,0,0,0,1.11,8.16,32,32,0,0,0,14.16-8.45A45.63,45.63,0,0,0,249,150,29.06,29.06,0,0,0,244.18,149.62Z" style="opacity:0.1"></path><polygon points="237.31 175.96 249.87 176 249.96 178.42 237.21 178.35 237.31 175.96" style="opacity:0.2"></polygon><path d="M247.08,107a10.25,10.25,0,0,1,7.28,1.13,8.66,8.66,0,0,1,3.84,3.66c2,4.13,2.57,7.76,3,13.33a50.44,50.44,0,0,0,1.88,9.69,42.93,42.93,0,0,0,1.7,5.41c.28.66,1.12,1.65,1,2.39-.28,1.56-3.94-1-4.29-1.7.07,3.54.44,7.16,2.68,10,.27.36.69.76.66,1.25-.09,1.35-2.73,1.21-3.61,1.14a13,13,0,0,1-6.33-2c-2.7-1.84-3.94-5-4.69-8.08a41.2,41.2,0,0,1-.94-5.53,67.56,67.56,0,0,1-.25-7.26,33.16,33.16,0,0,0-.57-7.71c-.58-2.44-2.93-3.88-4-6.12a13.4,13.4,0,0,1-1.51-7.32A7.82,7.82,0,0,1,247.08,107Z" style="fill:#f0997a"></path><path d="M248.8,114.78c.56-1.6.33-4-2.09-6a4.72,4.72,0,0,0-4.81-.92Z" style="fill:#2C9456"></path><path d="M245,143.72c-.16-1.88,2.18-6,4.05-10.67,2.6-6.48,3.1-15.65-2.55-21.77s-18.19-9.38-27.44-.77c-8.05,3.63-9,14.61-3.34,17.17Z" style="fill:#f0997a"></path><path d="M220,115.14c-2.38,1.52-5.61,4.6-3.82,17.29,1.39,9.93,5.48,14.16,7.28,14.87s3.91.7,7.2,0l.56,5.67s-5.68,8.49-2.85,13.44a41.66,41.66,0,0,0,11.3-6.86c6.21-5.59,6.37-7.29,6.82-9l-1.4-12.78s1.78,1.53,5-1.48c2.65-2.49,3.42-6.55,1.21-8.63a4.54,4.54,0,0,0-4.35-1,5.59,5.59,0,0,0-3.52,3.45,1.08,1.08,0,0,1-.67.72.8.8,0,0,1-.7-.23,2.31,2.31,0,0,1-.41-.65,13.45,13.45,0,0,1-1-4.28C237.32,126.54,221.65,123.82,220,115.14Z" style="fill:#ffc4c3"></path><path d="M212.67,127.49a2.37,2.37,0,0,0,.81,1.22,1.13,1.13,0,0,1,.32.43,20.76,20.76,0,0,0,1.32,3.39,4.43,4.43,0,0,0,4.56,2,6.88,6.88,0,0,0,1.44-.26l.11,0a4.64,4.64,0,0,0,1.14-.54l.06,0,.1-.07.12-.09.1-.09.12-.11.11-.11a2.29,2.29,0,0,0,.21-.23,5,5,0,0,0,.8-1.43c.47-1.29.12-3,1.11-3.29l.12,0,.13,0c1.38-.13,1.44,1.75,2.37,3s2.34,2.39,5.34,2.1l.39-.05.3-.05a4.62,4.62,0,0,0,.71-.17l.22-.07.21-.08.14,0a4.68,4.68,0,0,0,.77-.43l.25-.19a3.35,3.35,0,0,0,.43-.41,4.1,4.1,0,0,0,.76-1.33,19.58,19.58,0,0,0,.42-3.55,1.36,1.36,0,0,1,.18-.53l.25-.4,7.2,1.54a4.89,4.89,0,0,1,.63-.42,11,11,0,0,1,1.55-.54L237.41,124h-.74a25.76,25.76,0,0,0-7.28.88c-2.24.82-3,1.55-4.26,1.68s-2.06-.48-4.32-.86a22.46,22.46,0,0,0-6.86.45l-.67.14A1,1,0,0,0,212.67,127.49Zm15.34-.41a1.93,1.93,0,0,1,.6-.55l.11-.07.07,0,.31-.17.28-.14a8.34,8.34,0,0,1,1-.38l.38-.13c.33-.1.66-.18,1-.25l.24,0a6.58,6.58,0,0,1,4.19.24c.57.36.54,2.19.43,3.13v.14c0,.12,0,.25,0,.38s0,.16-.05.24h0a3.45,3.45,0,0,1-.11.4h0c0,.05,0,.09,0,.14l0,.08a1,1,0,0,0,0,.1,1.17,1.17,0,0,0-.05.11l-.06.13c0,.05,0,.09-.07.14l-.09.14a3.66,3.66,0,0,1-3,1.63,4.64,4.64,0,0,1-3.41-.73h0a3.91,3.91,0,0,1-1.28-1.73C227.93,128.86,227.64,127.68,228,127.08Zm-13.19.49a2.11,2.11,0,0,1,.51-.36l0,0,.23-.11.15-.06.11,0,.08,0h0l.12,0,.51-.13.27,0,.17,0,.12,0,.36,0,.13,0h.12c.32,0,.67,0,1,0,1.6,0,3.33.49,3.83,1a4,4,0,0,1,.45,2.76,5.54,5.54,0,0,1-.12.71.08.08,0,0,0,0,.05s0,0,0,.08a.06.06,0,0,0,0,0l0,.09-.07.18a1,1,0,0,1-.07.15s0,0,0,.06l-.06.1a.41.41,0,0,1,0,.09h0a3.67,3.67,0,0,1-3.15,1.7,4.51,4.51,0,0,1-1.71-.17,4.16,4.16,0,0,1-2.5-2.74C214.91,129.8,214.4,128,214.82,127.57Z" style="fill:#37474f"></path><path d="M229.84,128.92a1.48,1.48,0,0,0,1.45,1.46,1.39,1.39,0,0,0,1.44-1.38,1.49,1.49,0,0,0-1.45-1.47A1.39,1.39,0,0,0,229.84,128.92Z"></path><path d="M231.37,138.33l-3.17,1.59a1.74,1.74,0,0,0,2.36.85A1.85,1.85,0,0,0,231.37,138.33Z" style="fill:#f28f8f"></path><path d="M217.53,124.92l3.07-1.08a1.56,1.56,0,0,0-2-1A1.71,1.71,0,0,0,217.53,124.92Z"></path><path d="M231.88,122.59l3.07,1.09a1.56,1.56,0,0,0-.93-2.07A1.72,1.72,0,0,0,231.88,122.59Z"></path><path d="M218.17,130a1.48,1.48,0,0,0,1.44,1.46,1.39,1.39,0,0,0,1.45-1.39,1.48,1.48,0,0,0-1.45-1.46A1.39,1.39,0,0,0,218.17,130Z"></path><path d="M225.82,128.23l.57,8.32-4.83-.46,3.46-7.83A1.22,1.22,0,0,1,225.82,128.23Z" style="fill:#ffa8a7"></path><path d="M230.64,147.33c3.46-.86,9-2.7,11.19-7.41a9.64,9.64,0,0,1-2.52,5.08c-2.08,1.92-8.47,4.34-8.47,4.34Z" style="fill:#ffa8a7"></path><path d="M279.76,195.84c-.78-4.85-6.61-28.6-9.16-34.54-3.7-8.62-7.85-10.31-15.39-10-6.1,5.72.15,22,1.48,25.92l7.73,23c-1.81,3.1-12.92,26.44-17.55,31.14L259,234.69c2.88-3.4,15-19.53,18-23.37C281.75,205.38,281.12,204.19,279.76,195.84Z" style="fill:#ffc4c3"></path><path d="M253.27,151.14c5-.48,12.38-.91,17,8.68s7.7,24.5,7.7,24.5a44.41,44.41,0,0,1-17.83,5l-6.75-19.41S249.49,156.1,253.27,151.14Z" style="fill:#2C9456"></path><path d="M253.27,151.14c5-.48,12.38-.91,17,8.68s7.7,24.5,7.7,24.5a44.41,44.41,0,0,1-17.83,5l-6.75-19.41S249.49,156.1,253.27,151.14Z" style="opacity:0.1"></path></g><g id="freepik--massage-table--inject-768"><g id="freepik--Table--inject-768"><path d="M334.1,415.19V334.76h-5.74v80.43h0a1.42,1.42,0,0,0,.84,1.17,4.47,4.47,0,0,0,4.06,0A1.4,1.4,0,0,0,334.1,415.19Z" style="fill:#455a64"></path><polygon points="266.24 407.46 343.42 362.91 343.42 339.45 266.24 384.01 266.24 407.46" style="fill:#263238"></polygon><path d="M269.11,452.71V372.29h-5.74v80.42h0a1.41,1.41,0,0,0,.84,1.17,4.47,4.47,0,0,0,4.06,0A1.41,1.41,0,0,0,269.11,452.71Z" style="fill:#455a64"></path><path d="M248.8,365.94V285.51h-5.74v80.43h0a1.42,1.42,0,0,0,.84,1.17,4.47,4.47,0,0,0,4.06,0A1.42,1.42,0,0,0,248.8,365.94Z" style="fill:#455a64"></path><polygon points="180.94 358.21 258.12 313.66 258.12 290.2 180.94 334.76 180.94 358.21" style="fill:#263238"></polygon><path d="M183.81,403.46V323h-5.74v80.42h0a1.41,1.41,0,0,0,.84,1.17,4.47,4.47,0,0,0,4.06,0A1.41,1.41,0,0,0,183.81,403.46Z" style="fill:#455a64"></path><polygon points="148.44 339.45 225.62 294.89 225.62 271.44 148.44 316 148.44 339.45" style="fill:#263238"></polygon><path d="M216.31,347.18V266.75h-5.75v80.43h0a1.42,1.42,0,0,0,.84,1.17,4.47,4.47,0,0,0,4.06,0A1.42,1.42,0,0,0,216.31,347.18Z" style="fill:#455a64"></path><path d="M151.31,384.7V304.28h-5.74V384.7h0a1.42,1.42,0,0,0,.84,1.17,4.47,4.47,0,0,0,4.06,0A1.42,1.42,0,0,0,151.31,384.7Z" style="fill:#455a64"></path><path d="M131,297.93V217.5h-5.74v80.43h0a1.42,1.42,0,0,0,.84,1.17,4.47,4.47,0,0,0,4.06,0A1.42,1.42,0,0,0,131,297.93Z" style="fill:#455a64"></path><polygon points="63.14 290.2 140.32 245.65 140.32 222.19 63.14 266.75 63.14 290.2" style="fill:#263238"></polygon><path d="M66,335.45V255H60.27v80.42h0a1.42,1.42,0,0,0,.84,1.17,4.47,4.47,0,0,0,4.06,0A1.42,1.42,0,0,0,66,335.45Z" style="fill:#455a64"></path><path d="M51.22,250.18,115.68,213a9.57,9.57,0,0,1,8.66,0l105.07,60.66c2.39,1.38,4.33,3.55,4.33,4.85v2.34L160.63,323,46.89,257.37V255C46.89,253.73,48.83,251.56,51.22,250.18Z" style="fill:#2C9456"></path><path d="M165,315.85l64.45-37.22c2.39-1.38,2.39-3.62,0-5L124.34,213a9.57,9.57,0,0,0-8.66,0L51.22,250.18c-2.39,1.38-2.39,3.62,0,5L156.3,315.85A9.57,9.57,0,0,0,165,315.85Z" style="fill:#fff;opacity:0.30000000000000004"></path><polygon points="46.89 257.37 46.89 262.06 160.63 327.73 160.63 323.04 46.89 257.37" style="fill:#37474f"></polygon><polygon points="233.74 280.82 233.74 285.51 160.63 327.73 160.63 323.04 233.74 280.82" style="fill:#263238"></polygon><path d="M169,318.19,233.48,281a9.57,9.57,0,0,1,8.66,0l105.07,60.66c2.39,1.38,4.33,3.55,4.33,4.85v2.34l-73.11,42.22L164.69,325.38V323C164.69,321.74,166.63,319.57,169,318.19Z" style="fill:#2C9456"></path><path d="M282.76,383.86l64.45-37.22c2.39-1.38,2.39-3.62,0-5L242.14,281a9.57,9.57,0,0,0-8.66,0L169,318.19c-2.39,1.38-2.39,3.62,0,5L274.1,383.86A9.57,9.57,0,0,0,282.76,383.86Z" style="fill:#fff;opacity:0.30000000000000004"></path><polygon points="164.69 325.38 164.69 330.07 278.43 395.74 278.43 391.05 164.69 325.38" style="fill:#37474f"></polygon><polygon points="351.54 348.83 351.54 353.52 278.43 395.74 278.43 391.05 351.54 348.83" style="fill:#263238"></polygon><path d="M266.24,417.85a1,1,0,0,1-.65-.24l-85.3-72.71a1,1,0,0,1,1.3-1.52l85.3,72.7a1,1,0,0,1,.11,1.41A1,1,0,0,1,266.24,417.85Z" style="fill:#455a64"></path><path d="M266.24,394.39a1,1,0,0,1-.29,0l-85.3-25.8a1,1,0,0,1-.67-1.24,1,1,0,0,1,1.25-.67l85.3,25.8a1,1,0,0,1-.29,1.95Z" style="fill:#455a64"></path><path d="M148.44,349.83a1,1,0,0,1-.65-.23l-85.3-72.71a1,1,0,0,1,1.3-1.52l85.3,72.7a1,1,0,0,1,.11,1.41A1,1,0,0,1,148.44,349.83Z" style="fill:#455a64"></path><path d="M148.44,326.38a1,1,0,0,1-.29,0l-85.3-25.8a1,1,0,1,1,.58-1.91l85.3,25.79a1,1,0,0,1-.29,2Z" style="fill:#455a64"></path></g><g id="freepik--Pillow--inject-768"><path d="M143.63,233.87c0-1.84-2.75-4.91-6.14-6.87l-13.65-7.88a9.26,9.26,0,0,0-4.71-1.53h0c-2.93,0-14.67,5.67-20.43,9s-18.33,11.34-20.29,14.74c-.64,1.11,22,17.58,24.81,17,6.17-1.29,17.33-6.6,23-10.09,9.35-5.7,14.64-10.45,16.5-12.47C143.64,234.77,143.63,234.26,143.63,233.87Z" style="fill:#f0f0f0"></path><path d="M84.26,249l13.64,7.88c3.39,2,6.14,2.06,6.14.22s-2.75-4.92-6.14-6.87l-13.64-7.88c-3.4-2-6.15-2.06-6.15-.22S80.86,247.05,84.26,249Z" style="fill:#e0e0e0"></path></g></g><g id="freepik--character--inject-768"><path d="M209.72,269.22a7.09,7.09,0,0,0-.17-.93c-.19-.76-3.57-5.79-3.5-5.88s.15-.07.24.12a137.26,137.26,0,0,0-28-23.69c-11.61-7.25-19.33-4.28-26.32-.26,4.75,3.37,12.25,9,16.92,12.87a158.16,158.16,0,0,0,16.53,12.6c3.38,2.26,5.19,4,11.39,6.24,3,1.08,7.63,3.15,10.87,2A2.68,2.68,0,0,0,209.72,269.22Z" style="fill:#b16668"></path><path d="M135,247.29c-6,4-10.26,7.72-12.56,11.49,4.51,17.54,24.73,17.82,38.64,31.43,5.2,5.09,9.09,8.61,9.09,8.61l36.64-26.42S189.5,254.14,180.22,247s-19.66-10.37-28.3-8.39A58.32,58.32,0,0,0,135,247.29Z" style="fill:#2C9456"></path><path d="M135,247.29c-6,4-10.26,7.72-12.56,11.49,4.51,17.54,24.73,17.82,38.64,31.43,5.2,5.09,9.09,8.61,9.09,8.61l36.64-26.42S189.5,254.14,180.22,247s-19.66-10.37-28.3-8.39A58.32,58.32,0,0,0,135,247.29Z" style="opacity:0.30000000000000004"></path><path d="M134.55,213.23a12.44,12.44,0,1,0-19.9,14.94c.13.18.28.34.42.51l-1.46,7.43-6.56-7.27a2.74,2.74,0,0,0-3-2.08,2.54,2.54,0,0,0-2.09,3l3.54-.54a4.53,4.53,0,0,0-1.16,2.49c-.31,2.35,3.62,6,8.4,9,0,0,7.41,6.18,8.88,7.13,3,2,4.79.84,4.79.84l-4.94-15.93a12.44,12.44,0,0,0,13.11-19.5Z" style="fill:#263238"></path><path d="M116.92,238.08c-.34.82-2.08.3-3.42.08s-4.6.55-3.89,4,5.55,4.9,8,4.45c3.06-.56,2.69-2.92,2.69-2.92l12.34,10.08h0c8.12,2.2,20-7.54,11-9.49l-3.79-3.15a9.81,9.81,0,0,0,2.47-1.9c2.17-2.22,2.26-5.31,1-8.51-2-5.15-4.13-8.92-11.42-16.53-8-8.34-18.73-.42-21.77,7.53S116.92,238.08,116.92,238.08Z" style="fill:#b16668"></path><path d="M117.69,239.11c-.3.23-2.92-.83-4.19-1-1.77-.16-6.92-9.84-6.92-9.84a5.12,5.12,0,0,1-2.27-5.14c.29-3.08,3.43-5.84,5.61-7.7,4-3.36,8.35-7.17,9.4-12.46.08-.41.24-.91.65-1a1,1,0,0,1,.75.19,6.69,6.69,0,0,1,2.67,3.82c0,.15.12.32.27.33s.24-.14.3-.26a6.09,6.09,0,0,0,.58-2.12c.07-1,2.22,1,2.43,1.29a8.46,8.46,0,0,1,1.19,6.48c-.5,2.2-2.23,3.91-3.81,5.44a72.2,72.2,0,0,1-11,7.9c-1.24.69-.66,2,1,5.42C115.8,233.53,118.7,238.31,117.69,239.11Z" style="fill:#263238"></path><path d="M139.94,241.17s-7,3.69-9.64,4.11a13.57,13.57,0,0,1-6.1-1.09s2.49,2.21,4.79,2.46c4.68.53,12.38-4.29,12.38-4.29Z" style="fill:#9a4a4d"></path><path d="M126.89,228.4a2.23,2.23,0,0,1-3.43,2.66,3.3,3.3,0,0,0,2.22-.67A3.35,3.35,0,0,0,126.89,228.4Z" style="fill:#263238"></path><path d="M135.8,221.87a2.23,2.23,0,0,1-3.59,2.44,3.26,3.26,0,0,0,3.59-2.44Z" style="fill:#263238"></path><path d="M122.32,225.69l-1.63,2.92a1.75,1.75,0,0,1-.65-2.34A1.64,1.64,0,0,1,122.32,225.69Z" style="fill:#263238"></path><path d="M132.33,236.2l3.2-.94a1.64,1.64,0,0,1-1.08,2.1A1.74,1.74,0,0,1,132.33,236.2Z" style="fill:#9a4a4d"></path><path d="M133.67,218.93l-3.37,0a1.63,1.63,0,0,1,1.65-1.68A1.76,1.76,0,0,1,133.67,218.93Z" style="fill:#263238"></path><polygon points="128.22 225.54 133.52 231.85 136.08 228.1 128.22 225.54" style="fill:#9a4a4d"></polygon><path d="M199.32,285.89s-3.81-39.43-2.48-47.37c1.36-8.19,4.7-11.83,10-12.07,6.63,4.37,9.74,14.09,13.59,23.7s7.45,30,7.16,39.63-8.28,16-17,16.8S199.32,285.89,199.32,285.89Z" style="fill:#37474f"></path><path d="M221.35,292.49a18.52,18.52,0,0,1-11.64-1.2l-6.88,8.24c1.76,4.05,4.26,7.36,7.77,7.05,8.68-.76,16.67-7.23,17-16.8a102.92,102.92,0,0,0-1.75-18.23h0S227.48,291,221.35,292.49Z" style="opacity:0.30000000000000004"></path><path d="M211.15,246.77a27.6,27.6,0,0,0,9.1,3c-1.78-4.45-3.41-8.91-5.32-12.83-.44-.58-.88-1.16-1.33-1.71l-1.43-.79-8.07-.53S205.71,243.74,211.15,246.77Z" style="fill:#263238"></path><path d="M270.66,210.8c-2.49-2.77-4.65.3-5.86,2.53s-1,3.22-1.62,6.66c-.5,2.85-1.4,7.92-3,10.51a3.51,3.51,0,0,1-3.47,1.35c-2.85-.44-8.94-1.36-15.73-2.36l3.68,15.28c5.12-.77,10.12-1.28,14-.86a20.16,20.16,0,0,1,4.15.64,27.64,27.64,0,0,1,4.08,1.65c2,.9,5-.65,6.11-2.67,1.32-2.45.83-4.45.78-7.26,0-1.66-.18-3.35-.2-5a40.48,40.48,0,0,1,.82-6.32,12,12,0,0,0-1-7.45C272.43,215.33,272.31,212.63,270.66,210.8Z" style="fill:#b16668"></path><path d="M212.82,225.71c-2.5-.14-8.58-.86-11.74,3-2.92,4.1,5.75,16,13.79,17.92a32,32,0,0,0,14.09.73c5.51-.78,12.79-2.32,19.42-3.12-2.1-1.22-3.2-11.3-1.28-13.87C235.23,228.64,216.21,225.9,212.82,225.71Z" style="fill:#37474f"></path><path d="M295.81,332.76a3.6,3.6,0,0,0-2.35.12c-3.6.53-5.53,3.7-6.91,6.48-1,2-1.94,4.09-3,6.09-.39.74-2.11,3.29-2.11,3.29s-5.9-4.69-8.6-7.19c-3.29-3-13.51-12.93-19.57-19-9.32-9.38-12.19-12.18-19.93-16.55-7.67-4.7-33.06-16.87-40.94-21.7L173,298.68s5.7,6.16,9.47,8.18c10.93,5.83,33.39,12,48,16.48,4.28,8.53,5.24,11.22,13.49,17.18,7.5,5.41,16.92,10,26.39,16a21.17,21.17,0,0,1,5.08,5c.42.65.81,1.38,1.18,2.05,1.33,2.38,3.32,3.78,6.18,3.49a8,8,0,0,0,5.05-2.68c2.72-3.06,3.06-7.52,5-11.14,1.76-3.34,5-5.44,5.7-9.3C299.14,340.65,298.62,332.91,295.81,332.76Z" style="fill:#b16668"></path><path d="M170.17,298.82A107.42,107.42,0,0,0,187,310.14c12.44,6.51,42.44,15.55,42.44,15.55a54.48,54.48,0,0,0,5.67,7.8c5.89,5.93,18.3,13.08,18.3,13.08s1.27-9.9,11-13.08c0,0-16.13-18.27-22.56-23.44-3.72-3-19.51-11.84-32.13-18.76-.36-15.37-11.71-20.64-11.71-20.64A98.2,98.2,0,0,0,170.17,298.82Z" style="fill:#37474f"></path><path d="M201.47,321.2c-1.25-.47-2.82-1.22-4.22-1.79a28.07,28.07,0,0,1-6.26-3.06c1.86,0,2.72.73,5.32.15a3.79,3.79,0,0,0,2.31-1.45.94.94,0,0,0,.18-.41c.06-.62-.76-.86-1.37-.93-2.49-.3-4.58-1.64-7-2.31-3.53-1-8.24-.48-10.9-1.57s-26.32-16.7-26.32-16.7-7.62-10.29-15.52-21.73c-6.44-9.33-8.87-13.72-13.51-15.08-4.71,3.28-6.5,7.49-5.81,12.59.56,4.16,2.16,7,5.7,11.93A159.32,159.32,0,0,0,137,297.18c2.7,3,4,5.19,9.46,8.91s25.81,13.21,25.81,13.21,13.11,11.21,22.37,10.62a8.76,8.76,0,0,0,6.34-2.55C202.73,325.65,203.87,322.11,201.47,321.2Z" style="fill:#b16668"></path></g><path id="freepik--Hand--inject-768" d="M209.37,218.42a8.31,8.31,0,0,0-1.63,4.72,11.33,11.33,0,0,0,.89,3.52c.39,1.12.72,2.25,1.17,3.33s2.88,3.25.55,3.49c-2.7.28-3.63-2.11-4.91-4-.33-.5-1.17-1.79-1.94-1.34s-.51,1.64-.51,2.26c0,1.11,0,2.22.13,3.32a25,25,0,0,0,1.28,6.48c.27.75,1,2,.4,2.69-1,1.22-2.17-.41-3-.77s-2.1.3-2.91-.6c-.71-.2-.79-.4-1.31-.94s-1.12-.49-1.8-.84c-1.63-.84-2.11-3.28-2.38-4.9-.89-5.15-1.19-8.82.86-13.7a32,32,0,0,1,4.6-8.29" style="fill:#ffc4c3"></path><path id="freepik--hand--inject-768" d="M253.83,243.79a7.44,7.44,0,0,1-3.5-4.26,3.89,3.89,0,0,0-.59-1.21,8.89,8.89,0,0,0-1.67-2.26,1.78,1.78,0,0,0-1.49-.45c-.65.11-.87.75-1.44,1s-1.46,0-2.13.16c-.95.18-1.1.84-1.7,1.49-.37.39-.92.42-1.34.75a2.88,2.88,0,0,0-1.22,1.6,4.92,4.92,0,0,0,3,5.87c2.51.81,8-.09,10.49,0s3.54-2.7,3.54-2.7Z" style="fill:#ffc4c3"></path></g></g></svg>